<?xml version="1.0" encoding="UTF-8" standalone="no"?>
<!DOCTYPE svg PUBLIC "-//W3C//DTD SVG 1.1//EN"
 "http://www.w3.org/Graphics/SVG/1.1/DTD/svg11.dtd">
<!-- Generated by graphviz version 14.1.4 (20260321.0153)
 -->
<!-- Title: UART_RX Pages: 1 -->
<svg width="501pt" height="171pt"
 viewBox="0.00 0.00 501.00 171.00" xmlns="http://www.w3.org/2000/svg" xmlns:xlink="http://www.w3.org/1999/xlink">
<g id="graph0" class="graph" transform="scale(1 1) rotate(0) translate(4 166.81)">
<title>UART_RX</title>
<polygon fill="white" stroke="none" points="-4,4 -4,-166.81 497.11,-166.81 497.11,4 -4,4"/>
<!-- IDLE -->
<g id="node1" class="node">
<title>IDLE</title>
<ellipse fill="none" stroke="black" cx="24.5" cy="-27.66" rx="24.5" ry="24.5"/>
<text xml:space="preserve" text-anchor="middle" x="24.5" y="-23.21" font-family="Helvetica,sans-Serif" font-size="11.00">IDLE</text>
</g>
<!-- IDLE&#45;&gt;IDLE -->
<g id="edge1" class="edge">
<title>IDLE&#45;&gt;IDLE</title>
<path fill="none" stroke="black" d="M13.51,-49.97C12.15,-60.7 15.81,-70.17 24.5,-70.17 29.94,-70.17 33.41,-66.47 34.91,-61.07"/>
<polygon fill="black" stroke="black" points="38.39,-61.65 35.42,-51.48 31.4,-61.28 38.39,-61.65"/>
<text xml:space="preserve" text-anchor="middle" x="24.5" y="-71.37" font-family="Helvetica,sans-Serif" font-size="9.00">rx=1</text>
</g>
<!-- START -->
<g id="node2" class="node">
<title>START</title>
<ellipse fill="none" stroke="black" cx="150.63" cy="-87.66" rx="30.37" ry="30.37"/>
<text xml:space="preserve" text-anchor="middle" x="150.63" y="-83.21" font-family="Helvetica,sans-Serif" font-size="11.00">START</text>
</g>
<!-- IDLE&#45;&gt;START -->
<g id="edge2" class="edge">
<title>IDLE&#45;&gt;START</title>
<path fill="none" stroke="black" d="M47.12,-38.11C65.19,-46.84 91.35,-59.49 112.72,-69.82"/>
<polygon fill="black" stroke="black" points="111.19,-72.97 121.71,-74.17 114.23,-66.66 111.19,-72.97"/>
<text xml:space="preserve" text-anchor="middle" x="84.63" y="-73.99" font-family="Helvetica,sans-Serif" font-size="9.00">rx=0</text>
<text xml:space="preserve" text-anchor="middle" x="84.63" y="-64.24" font-family="Helvetica,sans-Serif" font-size="9.00">(start bit)</text>
</g>
<!-- DATA -->
<g id="node3" class="node">
<title>DATA</title>
<ellipse fill="none" stroke="black" cx="325.14" cy="-90.66" rx="34.65" ry="34.65"/>
<text xml:space="preserve" text-anchor="middle" x="325.14" y="-92.21" font-family="Helvetica,sans-Serif" font-size="11.00">DATA</text>
<text xml:space="preserve" text-anchor="middle" x="325.14" y="-80.21" font-family="Helvetica,sans-Serif" font-size="11.00">(8 bits)</text>
</g>
<!-- START&#45;&gt;DATA -->
<g id="edge3" class="edge">
<title>START&#45;&gt;DATA</title>
<path fill="none" stroke="black" d="M181.28,-88.18C208.11,-88.64 248,-89.34 278.82,-89.87"/>
<polygon fill="black" stroke="black" points="278.57,-93.37 288.63,-90.04 278.69,-86.37 278.57,-93.37"/>
<text xml:space="preserve" text-anchor="middle" x="235.74" y="-90.89" font-family="Helvetica,sans-Serif" font-size="9.00">always</text>
</g>
<!-- DATA&#45;&gt;DATA -->
<g id="edge4" class="edge">
<title>DATA&#45;&gt;DATA</title>
<path fill="none" stroke="black" d="M311.34,-122.79C311.12,-134.12 315.72,-143.31 325.14,-143.31 331.18,-143.31 335.24,-139.54 337.31,-133.85"/>
<polygon fill="black" stroke="black" points="340.73,-134.69 338.72,-124.29 333.8,-133.67 340.73,-134.69"/>
<text xml:space="preserve" text-anchor="middle" x="325.14" y="-154.26" font-family="Helvetica,sans-Serif" font-size="9.00">bit_cnt &lt; 7</text>
<text xml:space="preserve" text-anchor="middle" x="325.14" y="-144.51" font-family="Helvetica,sans-Serif" font-size="9.00">(shift in bit)</text>
</g>
<!-- STOP -->
<g id="node4" class="node">
<title>STOP</title>
<ellipse fill="none" stroke="black" cx="465.45" cy="-27.66" rx="27.66" ry="27.66"/>
<text xml:space="preserve" text-anchor="middle" x="465.45" y="-23.21" font-family="Helvetica,sans-Serif" font-size="11.00">STOP</text>
</g>
<!-- DATA&#45;&gt;STOP -->
<g id="edge5" class="edge">
<title>DATA&#45;&gt;STOP</title>
<path fill="none" stroke="black" d="M357.18,-76.52C378.67,-66.73 407.31,-53.69 429.59,-43.54"/>
<polygon fill="black" stroke="black" points="430.93,-46.78 438.58,-39.45 428.02,-40.41 430.93,-46.78"/>
<text xml:space="preserve" text-anchor="middle" x="398.79" y="-67.86" font-family="Helvetica,sans-Serif" font-size="9.00">bit_cnt = 7</text>
</g>
<!-- STOP&#45;&gt;IDLE -->
<g id="edge6" class="edge">
<title>STOP&#45;&gt;IDLE</title>
<path fill="none" stroke="black" d="M437.49,-27.66C361.56,-27.66 145.98,-27.66 60.78,-27.66"/>
<polygon fill="black" stroke="black" points="60.93,-24.16 50.93,-27.66 60.93,-31.16 60.93,-24.16"/>
<text xml:space="preserve" text-anchor="middle" x="235.74" y="-38.61" font-family="Helvetica,sans-Serif" font-size="9.00">rx=0</text>
<text xml:space="preserve" text-anchor="middle" x="235.74" y="-28.86" font-family="Helvetica,sans-Serif" font-size="9.00">(framing error)</text>
</g>
<!-- STOP&#45;&gt;IDLE -->
<g id="edge7" class="edge">
<title>STOP&#45;&gt;IDLE</title>
<path fill="none" stroke="black" d="M438.11,-22.6C390.44,-14.06 286.7,1.75 198.99,-4.16 150.5,-7.43 94.89,-15.79 59.98,-21.6"/>
<polygon fill="black" stroke="black" points="59.74,-18.09 50.47,-23.21 60.91,-24.99 59.74,-18.09"/>
<text xml:space="preserve" text-anchor="middle" x="235.74" y="-15.11" font-family="Helvetica,sans-Serif" font-size="9.00">rx=1</text>
<text xml:space="preserve" text-anchor="middle" x="235.74" y="-5.36" font-family="Helvetica,sans-Serif" font-size="9.00">(valid=1, data out)</text>
</g>
</g>
</svg>
