<?xml version="1.0" encoding="UTF-8" standalone="no"?>
<!DOCTYPE svg PUBLIC "-//W3C//DTD SVG 1.1//EN"
 "http://www.w3.org/Graphics/SVG/1.1/DTD/svg11.dtd">
<!-- Generated by graphviz version 14.1.4 (20260321.0153)
 -->
<!-- Title: MESI Pages: 1 -->
<svg width="861pt" height="227pt"
 viewBox="0.00 0.00 861.00 227.00" xmlns="http://www.w3.org/2000/svg" xmlns:xlink="http://www.w3.org/1999/xlink">
<g id="graph0" class="graph" transform="scale(1 1) rotate(0) translate(4 222.75)">
<title>MESI</title>
<polygon fill="white" stroke="none" points="-4,4 -4,-222.75 856.77,-222.75 856.77,4 -4,4"/>
<!-- M -->
<g id="node1" class="node">
<title>M</title>
<ellipse fill="none" stroke="black" cx="62.23" cy="-62.23" rx="62.23" ry="62.23"/>
<text xml:space="preserve" text-anchor="middle" x="62.23" y="-69.95" font-family="Helvetica,sans-Serif" font-size="12.00">Modified</text>
<text xml:space="preserve" text-anchor="middle" x="62.23" y="-57.2" font-family="Helvetica,sans-Serif" font-size="12.00">(M)</text>
<text xml:space="preserve" text-anchor="middle" x="62.23" y="-44.45" font-family="Helvetica,sans-Serif" font-size="12.00">(dirty, unique)</text>
</g>
<!-- S -->
<g id="node3" class="node">
<title>S</title>
<ellipse fill="none" stroke="black" cx="301.48" cy="-151.23" rx="67.53" ry="67.53"/>
<text xml:space="preserve" text-anchor="middle" x="301.48" y="-158.95" font-family="Helvetica,sans-Serif" font-size="12.00">Shared</text>
<text xml:space="preserve" text-anchor="middle" x="301.48" y="-146.2" font-family="Helvetica,sans-Serif" font-size="12.00">(S)</text>
<text xml:space="preserve" text-anchor="middle" x="301.48" y="-133.45" font-family="Helvetica,sans-Serif" font-size="12.00">(clean, shared)</text>
</g>
<!-- M&#45;&gt;S -->
<g id="edge8" class="edge">
<title>M&#45;&gt;S</title>
<path fill="none" stroke="black" d="M110.08,-102.46C120.24,-109.61 131.3,-116.33 142.45,-121.23 167.51,-132.23 196.54,-139.21 222.83,-143.63"/>
<polygon fill="black" stroke="black" points="221.99,-147.04 232.41,-145.13 223.08,-140.12 221.99,-147.04"/>
<text xml:space="preserve" text-anchor="middle" x="179.2" y="-152.99" font-family="Helvetica,sans-Serif" font-size="9.00">remote read</text>
<text xml:space="preserve" text-anchor="middle" x="179.2" y="-143.24" font-family="Helvetica,sans-Serif" font-size="9.00">(writeback)</text>
</g>
<!-- I -->
<g id="node4" class="node">
<title>I</title>
<ellipse fill="none" stroke="black" cx="556.48" cy="-90.23" rx="62.23" ry="62.23"/>
<text xml:space="preserve" text-anchor="middle" x="556.48" y="-97.95" font-family="Helvetica,sans-Serif" font-size="12.00">Invalid</text>
<text xml:space="preserve" text-anchor="middle" x="556.48" y="-85.2" font-family="Helvetica,sans-Serif" font-size="12.00">(I)</text>
<text xml:space="preserve" text-anchor="middle" x="556.48" y="-72.45" font-family="Helvetica,sans-Serif" font-size="12.00">(stale/absent)</text>
</g>
<!-- M&#45;&gt;I -->
<g id="edge9" class="edge">
<title>M&#45;&gt;I</title>
<path fill="none" stroke="black" d="M124.84,-58.86C157.29,-57.26 197.76,-55.52 233.95,-54.73 293.96,-53.41 309.25,-49.09 369.01,-54.73 407.64,-58.37 450.19,-66.17 484.88,-73.54"/>
<polygon fill="black" stroke="black" points="483.85,-76.9 494.37,-75.59 485.33,-70.06 483.85,-76.9"/>
<text xml:space="preserve" text-anchor="middle" x="301.48" y="-65.68" font-family="Helvetica,sans-Serif" font-size="9.00">eviction</text>
<text xml:space="preserve" text-anchor="middle" x="301.48" y="-55.93" font-family="Helvetica,sans-Serif" font-size="9.00">(writeback)</text>
</g>
<!-- E -->
<g id="node2" class="node">
<title>E</title>
<ellipse fill="none" stroke="black" cx="785.24" cy="-89.23" rx="67.53" ry="67.53"/>
<text xml:space="preserve" text-anchor="middle" x="785.24" y="-96.95" font-family="Helvetica,sans-Serif" font-size="12.00">Exclusive</text>
<text xml:space="preserve" text-anchor="middle" x="785.24" y="-84.2" font-family="Helvetica,sans-Serif" font-size="12.00">(E)</text>
<text xml:space="preserve" text-anchor="middle" x="785.24" y="-71.45" font-family="Helvetica,sans-Serif" font-size="12.00">(clean, unique)</text>
</g>
<!-- E&#45;&gt;M -->
<g id="edge3" class="edge">
<title>E&#45;&gt;M</title>
<path fill="none" stroke="black" d="M725.18,-57.43C694.39,-42.64 655.56,-26.7 618.71,-19.23 446.98,15.59 240.15,-20.4 133.88,-44.42"/>
<polygon fill="black" stroke="black" points="133.11,-41 124.14,-46.65 134.67,-47.83 133.11,-41"/>
<text xml:space="preserve" text-anchor="middle" x="431.63" y="-8.01" font-family="Helvetica,sans-Serif" font-size="9.00">local write</text>
</g>
<!-- E&#45;&gt;S -->
<g id="edge4" class="edge">
<title>E&#45;&gt;S</title>
<path fill="none" stroke="black" d="M725.64,-121.62C694.81,-136.86 655.81,-153.37 618.71,-161.23 538.49,-178.21 444.29,-171.99 379.7,-163.84"/>
<polygon fill="black" stroke="black" points="380.26,-160.39 369.89,-162.56 379.35,-167.33 380.26,-160.39"/>
<text xml:space="preserve" text-anchor="middle" x="556.48" y="-173.2" font-family="Helvetica,sans-Serif" font-size="9.00">remote read</text>
</g>
<!-- E&#45;&gt;I -->
<g id="edge5" class="edge">
<title>E&#45;&gt;I</title>
<path fill="none" stroke="black" d="M718.38,-77.46C712.08,-76.65 705.79,-75.97 699.71,-75.48 671.8,-73.22 664.59,-72.9 636.71,-75.48 634.22,-75.71 631.69,-75.97 629.14,-76.28"/>
<polygon fill="black" stroke="black" points="628.82,-72.79 619.38,-77.59 629.76,-79.73 628.82,-72.79"/>
<text xml:space="preserve" text-anchor="middle" x="668.21" y="-76.68" font-family="Helvetica,sans-Serif" font-size="9.00">eviction</text>
</g>
<!-- S&#45;&gt;M -->
<g id="edge7" class="edge">
<title>S&#45;&gt;M</title>
<path fill="none" stroke="black" d="M243.83,-115.2C234.72,-110.25 225.23,-105.55 215.95,-101.73 190.14,-91.07 160.67,-82.64 134.55,-76.35"/>
<polygon fill="black" stroke="black" points="135.59,-73 125.05,-74.13 133.99,-79.82 135.59,-73"/>
<text xml:space="preserve" text-anchor="middle" x="179.2" y="-112.68" font-family="Helvetica,sans-Serif" font-size="9.00">local write</text>
<text xml:space="preserve" text-anchor="middle" x="179.2" y="-102.93" font-family="Helvetica,sans-Serif" font-size="9.00">(invalidate others)</text>
</g>
<!-- S&#45;&gt;I -->
<g id="edge6" class="edge">
<title>S&#45;&gt;I</title>
<path fill="none" stroke="black" d="M368.73,-142.36C401.42,-137.25 441.25,-129.89 476.26,-120.23 479.99,-119.2 483.78,-118.06 487.6,-116.86"/>
<polygon fill="black" stroke="black" points="488.52,-120.24 496.91,-113.77 486.32,-113.59 488.52,-120.24"/>
<text xml:space="preserve" text-anchor="middle" x="431.63" y="-149.57" font-family="Helvetica,sans-Serif" font-size="9.00">remote write</text>
<text xml:space="preserve" text-anchor="middle" x="431.63" y="-139.82" font-family="Helvetica,sans-Serif" font-size="9.00">(invalidate)</text>
</g>
<!-- I&#45;&gt;E -->
<g id="edge1" class="edge">
<title>I&#45;&gt;E</title>
<path fill="none" stroke="black" d="M619.15,-89.95C646.01,-89.84 677.79,-89.69 706.27,-89.57"/>
<polygon fill="black" stroke="black" points="705.92,-93.07 715.9,-89.53 705.89,-86.07 705.92,-93.07"/>
<text xml:space="preserve" text-anchor="middle" x="668.21" y="-100.82" font-family="Helvetica,sans-Serif" font-size="9.00">local read</text>
<text xml:space="preserve" text-anchor="middle" x="668.21" y="-91.07" font-family="Helvetica,sans-Serif" font-size="9.00">(miss, no other)</text>
</g>
<!-- I&#45;&gt;S -->
<g id="edge2" class="edge">
<title>I&#45;&gt;S</title>
<path fill="none" stroke="black" d="M494.19,-87.15C461.68,-87.22 421.44,-90.06 387.01,-100.73 380.47,-102.75 373.91,-105.38 367.5,-108.37"/>
<polygon fill="black" stroke="black" points="366.29,-105.06 358.91,-112.66 369.42,-111.32 366.29,-105.06"/>
<text xml:space="preserve" text-anchor="middle" x="431.63" y="-111.68" font-family="Helvetica,sans-Serif" font-size="9.00">local read</text>
<text xml:space="preserve" text-anchor="middle" x="431.63" y="-101.93" font-family="Helvetica,sans-Serif" font-size="9.00">(miss, other has copy)</text>
</g>
</g>
</svg>
