<?xml version="1.0" encoding="UTF-8" standalone="no"?>
<!DOCTYPE svg PUBLIC "-//W3C//DTD SVG 1.1//EN"
 "http://www.w3.org/Graphics/SVG/1.1/DTD/svg11.dtd">
<!-- Generated by graphviz version 14.1.4 (20260321.0153)
 -->
<!-- Title: I2C Pages: 1 -->
<svg width="386pt" height="175pt"
 viewBox="0.00 0.00 386.00 175.00" xmlns="http://www.w3.org/2000/svg" xmlns:xlink="http://www.w3.org/1999/xlink">
<g id="graph0" class="graph" transform="scale(1 1) rotate(0) translate(4 171)">
<title>I2C</title>
<polygon fill="white" stroke="none" points="-4,4 -4,-171 381.63,-171 381.63,4 -4,4"/>
<text xml:space="preserve" text-anchor="middle" x="188.82" y="-6.65" font-family="Times,serif" font-size="13.00">I2C Bus: Multiple Devices on Two Wires</text>
<!-- master -->
<g id="node1" class="node">
<title>master</title>
<polygon fill="lightblue" stroke="black" points="75.25,-115.88 0,-115.88 0,-74.12 75.25,-74.12 75.25,-115.88"/>
<text xml:space="preserve" text-anchor="middle" x="37.62" y="-102.38" font-family="Times,serif" font-size="10.00">SoC</text>
<text xml:space="preserve" text-anchor="middle" x="37.62" y="-91.12" font-family="Times,serif" font-size="10.00">I2C Controller</text>
<text xml:space="preserve" text-anchor="middle" x="37.62" y="-79.88" font-family="Times,serif" font-size="10.00">(Master)</text>
</g>
<!-- bus -->
<g id="node2" class="node">
<title>bus</title>
<ellipse fill="lightyellow" stroke="black" cx="192.57" cy="-95" rx="81.32" ry="29.52"/>
<text xml:space="preserve" text-anchor="middle" x="192.57" y="-102.38" font-family="Times,serif" font-size="10.00">SCL + SDA</text>
<text xml:space="preserve" text-anchor="middle" x="192.57" y="-91.12" font-family="Times,serif" font-size="10.00">open&#45;drain bus</text>
<text xml:space="preserve" text-anchor="middle" x="192.57" y="-79.88" font-family="Times,serif" font-size="10.00">pull&#45;up resistors to VCC</text>
</g>
<!-- master&#45;&gt;bus -->
<g id="edge1" class="edge">
<title>master&#45;&gt;bus</title>
<path fill="none" stroke="black" d="M86.96,-95C91.05,-95 95.27,-95 99.56,-95"/>
<polygon fill="black" stroke="black" points="87.16,-91.5 77.16,-95 87.16,-98.5 87.16,-91.5"/>
<polygon fill="black" stroke="black" points="99.52,-98.5 109.52,-95 99.52,-91.5 99.52,-98.5"/>
</g>
<!-- sensor -->
<g id="node3" class="node">
<title>sensor</title>
<polygon fill="#e2efda" stroke="black" points="377.63,-167 309.88,-167 309.88,-131 377.63,-131 377.63,-167"/>
<text xml:space="preserve" text-anchor="middle" x="343.76" y="-150.75" font-family="Times,serif" font-size="10.00">Temp Sensor</text>
<text xml:space="preserve" text-anchor="middle" x="343.76" y="-139.5" font-family="Times,serif" font-size="10.00">Addr: 0x48</text>
</g>
<!-- bus&#45;&gt;sensor -->
<g id="edge2" class="edge">
<title>bus&#45;&gt;sensor</title>
<path fill="none" stroke="black" d="M262.07,-119.8C274.67,-124.35 287.49,-128.99 299.1,-133.2"/>
<polygon fill="black" stroke="black" points="263.27,-116.51 252.67,-116.39 260.88,-123.09 263.27,-116.51"/>
<polygon fill="black" stroke="black" points="297.79,-136.45 308.39,-136.56 300.17,-129.86 297.79,-136.45"/>
</g>
<!-- pmic -->
<g id="node4" class="node">
<title>pmic</title>
<polygon fill="#e2efda" stroke="black" points="375.38,-113 312.13,-113 312.13,-77 375.38,-77 375.38,-113"/>
<text xml:space="preserve" text-anchor="middle" x="343.76" y="-96.75" font-family="Times,serif" font-size="10.00">PMIC</text>
<text xml:space="preserve" text-anchor="middle" x="343.76" y="-85.5" font-family="Times,serif" font-size="10.00">Addr: 0x58</text>
</g>
<!-- bus&#45;&gt;pmic -->
<g id="edge3" class="edge">
<title>bus&#45;&gt;pmic</title>
<path fill="none" stroke="black" d="M285.72,-95C290.78,-95 295.73,-95 300.47,-95"/>
<polygon fill="black" stroke="black" points="285.79,-91.5 275.79,-95 285.79,-98.5 285.79,-91.5"/>
<polygon fill="black" stroke="black" points="300.22,-98.5 310.22,-95 300.22,-91.5 300.22,-98.5"/>
</g>
<!-- eeprom -->
<g id="node5" class="node">
<title>eeprom</title>
<polygon fill="#e2efda" stroke="black" points="375.38,-59 312.13,-59 312.13,-23 375.38,-23 375.38,-59"/>
<text xml:space="preserve" text-anchor="middle" x="343.76" y="-42.75" font-family="Times,serif" font-size="10.00">EEPROM</text>
<text xml:space="preserve" text-anchor="middle" x="343.76" y="-31.5" font-family="Times,serif" font-size="10.00">Addr: 0x50</text>
</g>
<!-- bus&#45;&gt;eeprom -->
<g id="edge4" class="edge">
<title>bus&#45;&gt;eeprom</title>
<path fill="none" stroke="black" d="M262.03,-70.22C275.4,-65.38 289.04,-60.44 301.21,-56.04"/>
<polygon fill="black" stroke="black" points="260.88,-66.91 252.67,-73.61 263.27,-73.49 260.88,-66.91"/>
<polygon fill="black" stroke="black" points="302.28,-59.37 310.49,-52.68 299.9,-52.79 302.28,-59.37"/>
</g>
</g>
</svg>
