<?xml version="1.0" encoding="UTF-8" standalone="no"?>
<!DOCTYPE svg PUBLIC "-//W3C//DTD SVG 1.1//EN"
 "http://www.w3.org/Graphics/SVG/1.1/DTD/svg11.dtd">
<!-- Generated by graphviz version 2.42.4 (0)
 -->
<!-- Title: CPU_State Pages: 1 -->
<svg width="1071pt" height="295pt"
 viewBox="0.00 0.00 1071.06 294.72" xmlns="http://www.w3.org/2000/svg" xmlns:xlink="http://www.w3.org/1999/xlink">
<g id="graph0" class="graph" transform="scale(1 1) rotate(0) translate(4 290.72)">
<title>CPU_State</title>
<polygon fill="white" stroke="transparent" points="-4,4 -4,-290.72 1067.06,-290.72 1067.06,4 -4,4"/>
<!-- RESET -->
<g id="node1" class="node">
<title>RESET</title>
<ellipse fill="none" stroke="black" cx="34.67" cy="-96" rx="30.82" ry="30.82"/>
<ellipse fill="none" stroke="black" cx="34.67" cy="-96" rx="34.84" ry="34.84"/>
<text text-anchor="middle" x="34.67" y="-93.2" font-family="Helvetica,sans-Serif" font-size="11.00">RESET</text>
</g>
<!-- FETCH -->
<g id="node2" class="node">
<title>FETCH</title>
<ellipse fill="none" stroke="black" cx="206" cy="-96" rx="30.84" ry="30.84"/>
<text text-anchor="middle" x="206" y="-93.2" font-family="Helvetica,sans-Serif" font-size="11.00">FETCH</text>
</g>
<!-- RESET&#45;&gt;FETCH -->
<g id="edge1" class="edge">
<title>RESET&#45;&gt;FETCH</title>
<path fill="none" stroke="black" d="M69.53,-96C97.04,-96 135.9,-96 164.95,-96"/>
<polygon fill="black" stroke="black" points="165.17,-99.5 175.17,-96 165.17,-92.5 165.17,-99.5"/>
<text text-anchor="middle" x="122.34" y="-99" font-family="Helvetica,sans-Serif" font-size="10.00">reset released</text>
</g>
<!-- DECODE -->
<g id="node3" class="node">
<title>DECODE</title>
<ellipse fill="none" stroke="black" cx="391.15" cy="-242" rx="37.77" ry="37.77"/>
<text text-anchor="middle" x="391.15" y="-239.2" font-family="Helvetica,sans-Serif" font-size="11.00">DECODE</text>
</g>
<!-- FETCH&#45;&gt;DECODE -->
<g id="edge2" class="edge">
<title>FETCH&#45;&gt;DECODE</title>
<path fill="none" stroke="black" d="M223.48,-121.56C231.92,-133.48 242.89,-147.35 254.67,-158 282.7,-183.35 319.38,-205.56 347.5,-220.76"/>
<polygon fill="black" stroke="black" points="346.22,-224.04 356.69,-225.64 349.5,-217.86 346.22,-224.04"/>
<text text-anchor="middle" x="294.17" y="-215" font-family="Helvetica,sans-Serif" font-size="10.00">instruction read</text>
</g>
<!-- HALTED -->
<g id="node7" class="node">
<title>HALTED</title>
<ellipse fill="none" stroke="black" cx="391.15" cy="-147" rx="35.46" ry="35.46"/>
<ellipse fill="none" stroke="black" cx="391.15" cy="-147" rx="39.46" ry="39.46"/>
<text text-anchor="middle" x="391.15" y="-144.2" font-family="Helvetica,sans-Serif" font-size="11.00">HALTED</text>
</g>
<!-- FETCH&#45;&gt;HALTED -->
<g id="edge11" class="edge">
<title>FETCH&#45;&gt;HALTED</title>
<path fill="none" stroke="black" d="M231.81,-113.56C238.91,-117.89 246.86,-122.11 254.67,-125 282.4,-135.24 315.06,-140.72 341.37,-143.65"/>
<polygon fill="black" stroke="black" points="341.18,-147.15 351.48,-144.69 341.89,-140.19 341.18,-147.15"/>
<text text-anchor="middle" x="294.17" y="-146" font-family="Helvetica,sans-Serif" font-size="10.00">WFI instruction</text>
</g>
<!-- EXCEPTION -->
<g id="node8" class="node">
<title>EXCEPTION</title>
<ellipse fill="none" stroke="black" cx="845.36" cy="-83" rx="55.31" ry="55.31"/>
<text text-anchor="middle" x="845.36" y="-86.2" font-family="Helvetica,sans-Serif" font-size="11.00">EXCEPTION</text>
<text text-anchor="middle" x="845.36" y="-74.2" font-family="Helvetica,sans-Serif" font-size="11.00">HANDLER</text>
</g>
<!-- FETCH&#45;&gt;EXCEPTION -->
<g id="edge8" class="edge">
<title>FETCH&#45;&gt;EXCEPTION</title>
<path fill="none" stroke="black" d="M236.75,-94.64C242.69,-94.4 248.88,-94.18 254.67,-94 445.54,-88.22 671.25,-85.02 779.75,-83.71"/>
<polygon fill="black" stroke="black" points="779.93,-87.21 789.88,-83.59 779.84,-80.21 779.93,-87.21"/>
<text text-anchor="middle" x="510.13" y="-92" font-family="Helvetica,sans-Serif" font-size="10.00">IRQ / fault</text>
</g>
<!-- EXECUTE -->
<g id="node4" class="node">
<title>EXECUTE</title>
<ellipse fill="none" stroke="black" cx="629.92" cy="-190" rx="40.08" ry="40.08"/>
<text text-anchor="middle" x="629.92" y="-187.2" font-family="Helvetica,sans-Serif" font-size="11.00">EXECUTE</text>
</g>
<!-- DECODE&#45;&gt;EXECUTE -->
<g id="edge3" class="edge">
<title>DECODE&#45;&gt;EXECUTE</title>
<path fill="none" stroke="black" d="M428.37,-234.05C469.08,-225.11 535.36,-210.55 580.49,-200.64"/>
<polygon fill="black" stroke="black" points="581.33,-204.04 590.35,-198.47 579.83,-197.2 581.33,-204.04"/>
<text text-anchor="middle" x="510.13" y="-232" font-family="Helvetica,sans-Serif" font-size="10.00">decoded</text>
</g>
<!-- MEMACCESS -->
<g id="node5" class="node">
<title>MEMACCESS</title>
<ellipse fill="none" stroke="black" cx="845.36" cy="-245" rx="41.94" ry="41.94"/>
<text text-anchor="middle" x="845.36" y="-248.2" font-family="Helvetica,sans-Serif" font-size="11.00">MEM</text>
<text text-anchor="middle" x="845.36" y="-236.2" font-family="Helvetica,sans-Serif" font-size="11.00">ACCESS</text>
</g>
<!-- EXECUTE&#45;&gt;MEMACCESS -->
<g id="edge4" class="edge">
<title>EXECUTE&#45;&gt;MEMACCESS</title>
<path fill="none" stroke="black" d="M669.08,-199.83C704.19,-208.88 756.48,-222.35 794.81,-232.23"/>
<polygon fill="black" stroke="black" points="794.17,-235.68 804.73,-234.79 795.92,-228.9 794.17,-235.68"/>
<text text-anchor="middle" x="730.21" y="-228" font-family="Helvetica,sans-Serif" font-size="10.00">load/store</text>
</g>
<!-- WRITEBACK -->
<g id="node6" class="node">
<title>WRITEBACK</title>
<ellipse fill="none" stroke="black" cx="1026.29" cy="-174" rx="36.54" ry="36.54"/>
<text text-anchor="middle" x="1026.29" y="-177.2" font-family="Helvetica,sans-Serif" font-size="11.00">WRITE</text>
<text text-anchor="middle" x="1026.29" y="-165.2" font-family="Helvetica,sans-Serif" font-size="11.00">BACK</text>
</g>
<!-- EXECUTE&#45;&gt;WRITEBACK -->
<g id="edge5" class="edge">
<title>EXECUTE&#45;&gt;WRITEBACK</title>
<path fill="none" stroke="black" d="M670.19,-188.21C702.43,-186.76 749.28,-184.68 790.21,-183 855.84,-180.3 931.8,-177.44 979.19,-175.69"/>
<polygon fill="black" stroke="black" points="979.58,-179.18 989.44,-175.31 979.32,-172.18 979.58,-179.18"/>
<text text-anchor="middle" x="845.36" y="-186" font-family="Helvetica,sans-Serif" font-size="10.00">reg&#45;reg op</text>
</g>
<!-- EXECUTE&#45;&gt;EXCEPTION -->
<g id="edge9" class="edge">
<title>EXECUTE&#45;&gt;EXCEPTION</title>
<path fill="none" stroke="black" d="M662.21,-165.72C670.44,-159.87 679.46,-153.9 688.21,-149 718.56,-132 754.18,-116.63 783.73,-105"/>
<polygon fill="black" stroke="black" points="785.04,-108.25 793.09,-101.36 782.5,-101.72 785.04,-108.25"/>
<text text-anchor="middle" x="730.21" y="-152" font-family="Helvetica,sans-Serif" font-size="10.00">illegal instr / trap</text>
</g>
<!-- MEMACCESS&#45;&gt;WRITEBACK -->
<g id="edge6" class="edge">
<title>MEMACCESS&#45;&gt;WRITEBACK</title>
<path fill="none" stroke="black" d="M884.31,-229.94C913.1,-218.52 952.68,-202.81 982.58,-190.95"/>
<polygon fill="black" stroke="black" points="983.91,-194.18 991.92,-187.24 981.33,-187.68 983.91,-194.18"/>
<text text-anchor="middle" x="945.02" y="-218" font-family="Helvetica,sans-Serif" font-size="10.00">data ready</text>
</g>
<!-- WRITEBACK&#45;&gt;FETCH -->
<g id="edge7" class="edge">
<title>WRITEBACK&#45;&gt;FETCH</title>
<path fill="none" stroke="black" d="M1009.92,-140.86C983.96,-90.38 926.31,0 846.36,0 390.15,0 390.15,0 390.15,0 330.49,0 271.12,-40.45 236.79,-68.84"/>
<polygon fill="black" stroke="black" points="234.4,-66.27 229.03,-75.41 238.93,-71.62 234.4,-66.27"/>
<text text-anchor="middle" x="629.92" y="-3" font-family="Helvetica,sans-Serif" font-size="10.00">PC += 4</text>
</g>
<!-- HALTED&#45;&gt;FETCH -->
<g id="edge12" class="edge">
<title>HALTED&#45;&gt;FETCH</title>
<path fill="none" stroke="black" d="M358.81,-124.3C350.93,-119.54 342.26,-115.04 333.67,-112 305.67,-102.09 272.26,-98.17 246.79,-96.68"/>
<polygon fill="black" stroke="black" points="246.91,-93.19 236.75,-96.2 246.57,-100.18 246.91,-93.19"/>
<text text-anchor="middle" x="294.17" y="-115" font-family="Helvetica,sans-Serif" font-size="10.00">interrupt arrives</text>
</g>
<!-- EXCEPTION&#45;&gt;FETCH -->
<g id="edge10" class="edge">
<title>EXCEPTION&#45;&gt;FETCH</title>
<path fill="none" stroke="black" d="M789.99,-80.73C783.99,-80.48 777.97,-80.23 772.21,-80 628.47,-74.15 592.37,-66.08 448.63,-72 362.21,-75.56 340.5,-77.28 254.67,-88 251.99,-88.33 249.24,-88.71 246.46,-89.11"/>
<polygon fill="black" stroke="black" points="245.79,-85.68 236.44,-90.66 246.86,-92.59 245.79,-85.68"/>
<text text-anchor="middle" x="510.13" y="-75" font-family="Helvetica,sans-Serif" font-size="10.00">MRET / handler complete</text>
</g>
</g>
</svg>
