<?xml version="1.0" encoding="UTF-8" standalone="no"?>
<!DOCTYPE svg PUBLIC "-//W3C//DTD SVG 1.1//EN"
 "http://www.w3.org/Graphics/SVG/1.1/DTD/svg11.dtd">
<!-- Generated by graphviz version 14.1.2 (20260124.0452)
 -->
<!-- Title: FSM Pages: 1 -->
<svg width="646pt" height="199pt"
 viewBox="0.00 0.00 646.00 199.00" xmlns="http://www.w3.org/2000/svg" xmlns:xlink="http://www.w3.org/1999/xlink">
<g id="graph0" class="graph" transform="scale(1 1) rotate(0) translate(4 195.32)">
<title>FSM</title>
<polygon fill="white" stroke="none" points="-4,4 -4,-195.32 641.83,-195.32 641.83,4 -4,4"/>
<!-- __start -->
<g id="node1" class="node">
<title>__start</title>
<ellipse fill="black" stroke="black" cx="7.2" cy="-38.37" rx="7.2" ry="7.2"/>
</g>
<!-- IDLE -->
<g id="node2" class="node">
<title>IDLE</title>
<ellipse fill="none" stroke="black" cx="89.77" cy="-38.37" rx="34.37" ry="34.37"/>
<ellipse fill="none" stroke="black" cx="89.77" cy="-38.37" rx="38.37" ry="38.37"/>
<text xml:space="preserve" text-anchor="middle" x="89.77" y="-33.7" font-family="monospace" font-size="14.00">IDLE</text>
</g>
<!-- __start&#45;&gt;IDLE -->
<g id="edge1" class="edge">
<title>__start&#45;&gt;IDLE</title>
<path fill="none" stroke="black" d="M14.79,-38.37C20.64,-38.37 29.75,-38.37 39.62,-38.37"/>
<polygon fill="black" stroke="black" points="39.42,-41.87 49.42,-38.37 39.42,-34.87 39.42,-41.87"/>
</g>
<!-- FETCH -->
<g id="node3" class="node">
<title>FETCH</title>
<ellipse fill="none" stroke="black" cx="234.3" cy="-90.37" rx="40.16" ry="40.16"/>
<text xml:space="preserve" text-anchor="middle" x="234.3" y="-85.7" font-family="monospace" font-size="14.00">FETCH</text>
</g>
<!-- IDLE&#45;&gt;FETCH -->
<g id="edge2" class="edge">
<title>IDLE&#45;&gt;FETCH</title>
<path fill="none" stroke="black" d="M126.37,-51.36C144.24,-57.88 166.13,-65.87 185.45,-72.91"/>
<polygon fill="black" stroke="black" points="184.16,-76.17 194.75,-76.31 186.55,-69.59 184.16,-76.17"/>
<text xml:space="preserve" text-anchor="middle" x="161.15" y="-72.28" font-family="monospace" font-size="10.00">start</text>
</g>
<!-- DECODE -->
<g id="node4" class="node">
<title>DECODE</title>
<ellipse fill="none" stroke="black" cx="410.41" cy="-145.37" rx="45.95" ry="45.95"/>
<text xml:space="preserve" text-anchor="middle" x="410.41" y="-140.7" font-family="monospace" font-size="14.00">DECODE</text>
</g>
<!-- FETCH&#45;&gt;DECODE -->
<g id="edge3" class="edge">
<title>FETCH&#45;&gt;DECODE</title>
<path fill="none" stroke="black" d="M273.08,-102.31C297.17,-109.92 328.76,-119.89 355.46,-128.33"/>
<polygon fill="black" stroke="black" points="354.16,-131.59 364.75,-131.26 356.26,-124.91 354.16,-131.59"/>
<text xml:space="preserve" text-anchor="middle" x="319.46" y="-127.67" font-family="monospace" font-size="10.00">mem_ready</text>
</g>
<!-- EXECUTE -->
<g id="node5" class="node">
<title>EXECUTE</title>
<ellipse fill="none" stroke="black" cx="586.09" cy="-68.37" rx="51.73" ry="51.73"/>
<text xml:space="preserve" text-anchor="middle" x="586.09" y="-63.7" font-family="monospace" font-size="14.00">EXECUTE</text>
</g>
<!-- DECODE&#45;&gt;EXECUTE -->
<g id="edge4" class="edge">
<title>DECODE&#45;&gt;EXECUTE</title>
<path fill="none" stroke="black" d="M453.01,-126.93C475.49,-116.96 503.58,-104.51 528.07,-93.65"/>
<polygon fill="black" stroke="black" points="529.21,-96.97 536.94,-89.72 526.38,-90.58 529.21,-96.97"/>
<text xml:space="preserve" text-anchor="middle" x="495.36" y="-119.28" font-family="monospace" font-size="10.00">decoded</text>
</g>
<!-- EXECUTE&#45;&gt;IDLE -->
<g id="edge5" class="edge">
<title>EXECUTE&#45;&gt;IDLE</title>
<path fill="none" stroke="black" d="M534.32,-62.85C472.88,-56.43 366.23,-46.1 274.46,-41.37 228.91,-39.02 176.92,-38.36 139.91,-38.24"/>
<polygon fill="black" stroke="black" points="139.96,-34.74 129.96,-38.22 139.95,-41.74 139.96,-34.74"/>
<text xml:space="preserve" text-anchor="middle" x="319.46" y="-48.94" font-family="monospace" font-size="10.00">done</text>
</g>
<!-- EXECUTE&#45;&gt;FETCH -->
<g id="edge6" class="edge">
<title>EXECUTE&#45;&gt;FETCH</title>
<path fill="none" stroke="black" d="M534.22,-69.69C489.47,-71.04 422.59,-73.54 364.46,-77.62 338.48,-79.45 309.63,-82.22 285.8,-84.72"/>
<polygon fill="black" stroke="black" points="285.62,-81.22 276.05,-85.76 286.36,-88.18 285.62,-81.22"/>
<text xml:space="preserve" text-anchor="middle" x="410.41" y="-80.87" font-family="monospace" font-size="10.00">!done / pc++</text>
</g>
</g>
</svg>
