<?xml version="1.0" encoding="UTF-8" standalone="no"?>
<!DOCTYPE svg PUBLIC "-//W3C//DTD SVG 1.1//EN"
 "http://www.w3.org/Graphics/SVG/1.1/DTD/svg11.dtd">
<!-- Generated by graphviz version 14.1.5 (20260411.2331)
 -->
<!-- Title: P_Channel Pages: 1 -->
<svg width="777pt" height="331pt"
 viewBox="0.00 0.00 777.00 331.00" xmlns="http://www.w3.org/2000/svg" xmlns:xlink="http://www.w3.org/1999/xlink">
<g id="graph0" class="graph" transform="scale(1 1) rotate(0) translate(4 326.77)">
<title>P_Channel</title>
<polygon fill="white" stroke="none" points="-4,4 -4,-326.77 772.58,-326.77 772.58,4 -4,4"/>
<!-- P_STABLE -->
<g id="node1" class="node">
<title>P_STABLE</title>
<ellipse fill="#7b35c2" stroke="#2d2d2d" cx="340.29" cy="-300.14" rx="133.29" ry="22.63"/>
<text xml:space="preserve" text-anchor="middle" x="340.29" y="-301.69" font-family="Helvetica,sans-Serif" font-size="11.00" fill="white">P_STABLE</text>
<text xml:space="preserve" text-anchor="middle" x="340.29" y="-289.69" font-family="Helvetica,sans-Serif" font-size="11.00" fill="white">PREQ=0 &#160;PACCEPT=0 &#160;PDENY=0</text>
</g>
<!-- P_REQUEST -->
<g id="node2" class="node">
<title>P_REQUEST</title>
<ellipse fill="#f5f2ec" stroke="#2d2d2d" cx="340.29" cy="-207.64" rx="133.29" ry="22.63"/>
<text xml:space="preserve" text-anchor="middle" x="340.29" y="-209.19" font-family="Helvetica,sans-Serif" font-size="11.00">P_REQUEST</text>
<text xml:space="preserve" text-anchor="middle" x="340.29" y="-197.19" font-family="Helvetica,sans-Serif" font-size="11.00">PREQ=1 &#160;PACCEPT=0 &#160;PDENY=0</text>
</g>
<!-- P_STABLE&#45;&gt;P_REQUEST -->
<g id="edge1" class="edge">
<title>P_STABLE&#45;&gt;P_REQUEST</title>
<path fill="none" stroke="#2d2d2d" d="M340.29,-277.23C340.29,-266.64 340.29,-253.7 340.29,-241.92"/>
<polygon fill="#2d2d2d" stroke="#2d2d2d" points="343.79,-242.17 340.29,-232.17 336.79,-242.17 343.79,-242.17"/>
<text xml:space="preserve" text-anchor="middle" x="366.54" y="-250.01" font-family="Helvetica,sans-Serif" font-size="10.00">PREQ rises</text>
</g>
<!-- P_ACCEPT -->
<g id="node3" class="node">
<title>P_ACCEPT</title>
<ellipse fill="#e07820" stroke="#2d2d2d" cx="245.29" cy="-115.13" rx="133.29" ry="22.63"/>
<text xml:space="preserve" text-anchor="middle" x="245.29" y="-116.68" font-family="Helvetica,sans-Serif" font-size="11.00" fill="white">P_ACCEPT</text>
<text xml:space="preserve" text-anchor="middle" x="245.29" y="-104.68" font-family="Helvetica,sans-Serif" font-size="11.00" fill="white">PREQ=1 &#160;PACCEPT=1 &#160;PDENY=0</text>
</g>
<!-- P_REQUEST&#45;&gt;P_ACCEPT -->
<g id="edge2" class="edge">
<title>P_REQUEST&#45;&gt;P_ACCEPT</title>
<path fill="none" stroke="#2d2d2d" d="M317.78,-185.19C305.33,-173.33 289.67,-158.42 276.1,-145.49"/>
<polygon fill="#2d2d2d" stroke="#2d2d2d" points="278.72,-143.15 269.07,-138.78 273.89,-148.22 278.72,-143.15"/>
<text xml:space="preserve" text-anchor="middle" x="333.73" y="-157.51" font-family="Helvetica,sans-Serif" font-size="10.00">PACCEPT rises</text>
</g>
<!-- P_DENIED -->
<g id="node5" class="node">
<title>P_DENIED</title>
<ellipse fill="#f5f2ec" stroke="#2d2d2d" cx="530.29" cy="-115.13" rx="133.29" ry="22.63"/>
<text xml:space="preserve" text-anchor="middle" x="530.29" y="-116.68" font-family="Helvetica,sans-Serif" font-size="11.00">P_DENIED</text>
<text xml:space="preserve" text-anchor="middle" x="530.29" y="-104.68" font-family="Helvetica,sans-Serif" font-size="11.00">PREQ=1 &#160;PACCEPT=0 &#160;PDENY=1</text>
</g>
<!-- P_REQUEST&#45;&gt;P_DENIED -->
<g id="edge5" class="edge">
<title>P_REQUEST&#45;&gt;P_DENIED</title>
<path fill="none" stroke="#2d2d2d" d="M383.88,-185.87C411.42,-172.76 447.21,-155.71 476.51,-141.75"/>
<polygon fill="#2d2d2d" stroke="#2d2d2d" points="477.68,-145.07 485.21,-137.61 474.67,-138.75 477.68,-145.07"/>
<text xml:space="preserve" text-anchor="middle" x="476.29" y="-157.51" font-family="Helvetica,sans-Serif" font-size="10.00">PDENY rises</text>
</g>
<!-- P_COMPLETE -->
<g id="node4" class="node">
<title>P_COMPLETE</title>
<ellipse fill="#f5f2ec" stroke="#2d2d2d" cx="133.29" cy="-22.63" rx="133.29" ry="22.63"/>
<text xml:space="preserve" text-anchor="middle" x="133.29" y="-24.18" font-family="Helvetica,sans-Serif" font-size="11.00">P_COMPLETE</text>
<text xml:space="preserve" text-anchor="middle" x="133.29" y="-12.18" font-family="Helvetica,sans-Serif" font-size="11.00">PREQ=0 &#160;PACCEPT=1 &#160;PDENY=0</text>
</g>
<!-- P_ACCEPT&#45;&gt;P_COMPLETE -->
<g id="edge3" class="edge">
<title>P_ACCEPT&#45;&gt;P_COMPLETE</title>
<path fill="none" stroke="#2d2d2d" d="M218.75,-92.68C203.79,-80.6 184.92,-65.35 168.72,-52.25"/>
<polygon fill="#2d2d2d" stroke="#2d2d2d" points="171.18,-49.75 161.21,-46.19 166.79,-55.19 171.18,-49.75"/>
<text xml:space="preserve" text-anchor="middle" x="220.75" y="-65" font-family="Helvetica,sans-Serif" font-size="10.00">PREQ falls</text>
</g>
<!-- P_COMPLETE&#45;&gt;P_STABLE -->
<g id="edge4" class="edge">
<title>P_COMPLETE&#45;&gt;P_STABLE</title>
<path fill="none" stroke="#2d2d2d" d="M119.39,-45.26C106.21,-68.67 90.23,-106.8 103.29,-137.76 132.67,-207.38 210.54,-251.18 269.06,-275.3"/>
<polygon fill="#2d2d2d" stroke="#2d2d2d" points="267.76,-278.55 278.35,-279.01 270.36,-272.05 267.76,-278.55"/>
<text xml:space="preserve" text-anchor="middle" x="152.38" y="-157.51" font-family="Helvetica,sans-Serif" font-size="10.00">PACCEPT falls</text>
</g>
<!-- P_CONTINUE -->
<g id="node6" class="node">
<title>P_CONTINUE</title>
<ellipse fill="#f5f2ec" stroke="#2d2d2d" cx="635.29" cy="-22.63" rx="133.29" ry="22.63"/>
<text xml:space="preserve" text-anchor="middle" x="635.29" y="-24.18" font-family="Helvetica,sans-Serif" font-size="11.00">P_CONTINUE</text>
<text xml:space="preserve" text-anchor="middle" x="635.29" y="-12.18" font-family="Helvetica,sans-Serif" font-size="11.00">PREQ=0 &#160;PACCEPT=0 &#160;PDENY=1</text>
</g>
<!-- P_DENIED&#45;&gt;P_CONTINUE -->
<g id="edge6" class="edge">
<title>P_DENIED&#45;&gt;P_CONTINUE</title>
<path fill="none" stroke="#2d2d2d" d="M555.44,-92.45C569.34,-80.48 586.78,-65.44 601.82,-52.48"/>
<polygon fill="#2d2d2d" stroke="#2d2d2d" points="603.91,-55.3 609.2,-46.12 599.34,-49.99 603.91,-55.3"/>
<text xml:space="preserve" text-anchor="middle" x="613.83" y="-65" font-family="Helvetica,sans-Serif" font-size="10.00">PREQ falls</text>
</g>
<!-- P_CONTINUE&#45;&gt;P_STABLE -->
<g id="edge7" class="edge">
<title>P_CONTINUE&#45;&gt;P_STABLE</title>
<path fill="none" stroke="#2d2d2d" d="M652.59,-45.16C669.62,-69.16 690.62,-108.44 672.29,-137.76 621.91,-218.33 518.51,-259.71 440.41,-280.26"/>
<polygon fill="#2d2d2d" stroke="#2d2d2d" points="439.86,-276.79 431.03,-282.65 441.59,-283.57 439.86,-276.79"/>
<text xml:space="preserve" text-anchor="middle" x="687.4" y="-157.51" font-family="Helvetica,sans-Serif" font-size="10.00">PDENY falls</text>
</g>
</g>
</svg>
