<?xml version="1.0" encoding="UTF-8" standalone="no"?>
<!DOCTYPE svg PUBLIC "-//W3C//DTD SVG 1.1//EN"
 "http://www.w3.org/Graphics/SVG/1.1/DTD/svg11.dtd">
<!-- Generated by graphviz version 14.1.4 (20260321.0153)
 -->
<!-- Title: InterruptController Pages: 1 -->
<svg width="413pt" height="260pt"
 viewBox="0.00 0.00 413.00 260.00" xmlns="http://www.w3.org/2000/svg" xmlns:xlink="http://www.w3.org/1999/xlink">
<g id="graph0" class="graph" transform="scale(1 1) rotate(0) translate(4 256)">
<title>InterruptController</title>
<polygon fill="white" stroke="none" points="-4,4 -4,-256 409.45,-256 409.45,4 -4,4"/>
<!-- UART -->
<g id="node1" class="node">
<title>UART</title>
<polygon fill="none" stroke="black" points="64.75,-252 0,-252 0,-216 64.75,-216 64.75,-252"/>
<text xml:space="preserve" text-anchor="middle" x="32.38" y="-230.12" font-family="Helvetica,sans-Serif" font-size="10.00">UART IRQ</text>
</g>
<!-- GIC -->
<g id="node6" class="node">
<title>GIC</title>
<ellipse fill="none" stroke="black" cx="200.1" cy="-126" rx="99.35" ry="77.78"/>
<text xml:space="preserve" text-anchor="middle" x="200.1" y="-167.5" font-family="Helvetica,sans-Serif" font-size="10.00">Generic Interrupt</text>
<text xml:space="preserve" text-anchor="middle" x="200.1" y="-156.25" font-family="Helvetica,sans-Serif" font-size="10.00">Controller (GIC)</text>
<text xml:space="preserve" text-anchor="middle" x="200.1" y="-133" font-family="Helvetica,sans-Serif" font-size="10.00">&#45; 256+ interrupt inputs</text>
<text xml:space="preserve" text-anchor="middle" x="200.1" y="-121.75" font-family="Helvetica,sans-Serif" font-size="10.00">&#45; Per&#45;interrupt priority</text>
<text xml:space="preserve" text-anchor="middle" x="200.1" y="-110.5" font-family="Helvetica,sans-Serif" font-size="10.00">&#45; Per&#45;interrupt CPU targeting</text>
<text xml:space="preserve" text-anchor="middle" x="200.1" y="-99.25" font-family="Helvetica,sans-Serif" font-size="10.00">&#45; Edge/Level config</text>
<text xml:space="preserve" text-anchor="middle" x="200.1" y="-88" font-family="Helvetica,sans-Serif" font-size="10.00">&#45; Secure/Non&#45;secure</text>
<text xml:space="preserve" text-anchor="middle" x="200.1" y="-76.75" font-family="Helvetica,sans-Serif" font-size="10.00"> &#160;partitioning</text>
</g>
<!-- UART&#45;&gt;GIC -->
<g id="edge1" class="edge">
<title>UART&#45;&gt;GIC</title>
<path fill="none" stroke="black" d="M61.49,-215.68C76.02,-206.21 94.63,-194.08 113.43,-181.83"/>
<polygon fill="black" stroke="black" points="115.22,-184.84 121.68,-176.45 111.39,-178.98 115.22,-184.84"/>
</g>
<!-- SPI -->
<g id="node2" class="node">
<title>SPI</title>
<polygon fill="none" stroke="black" points="59.38,-198 5.38,-198 5.38,-162 59.38,-162 59.38,-198"/>
<text xml:space="preserve" text-anchor="middle" x="32.38" y="-176.12" font-family="Helvetica,sans-Serif" font-size="10.00">SPI IRQ</text>
</g>
<!-- SPI&#45;&gt;GIC -->
<g id="edge2" class="edge">
<title>SPI&#45;&gt;GIC</title>
<path fill="none" stroke="black" d="M59.63,-171.44C70.33,-167.96 83.43,-163.69 97.27,-159.18"/>
<polygon fill="black" stroke="black" points="98.11,-162.59 106.54,-156.16 95.95,-155.93 98.11,-162.59"/>
</g>
<!-- DMA -->
<g id="node3" class="node">
<title>DMA</title>
<polygon fill="none" stroke="black" points="61.75,-144 3,-144 3,-108 61.75,-108 61.75,-144"/>
<text xml:space="preserve" text-anchor="middle" x="32.38" y="-122.12" font-family="Helvetica,sans-Serif" font-size="10.00">DMA IRQ</text>
</g>
<!-- DMA&#45;&gt;GIC -->
<g id="edge3" class="edge">
<title>DMA&#45;&gt;GIC</title>
<path fill="none" stroke="black" d="M62.24,-126C70.26,-126 79.47,-126 89.25,-126"/>
<polygon fill="black" stroke="black" points="88.98,-129.5 98.98,-126 88.98,-122.5 88.98,-129.5"/>
</g>
<!-- GPIO -->
<g id="node4" class="node">
<title>GPIO</title>
<polygon fill="none" stroke="black" points="63.25,-90 1.5,-90 1.5,-54 63.25,-54 63.25,-90"/>
<text xml:space="preserve" text-anchor="middle" x="32.38" y="-68.12" font-family="Helvetica,sans-Serif" font-size="10.00">GPIO IRQ</text>
</g>
<!-- GPIO&#45;&gt;GIC -->
<g id="edge4" class="edge">
<title>GPIO&#45;&gt;GIC</title>
<path fill="none" stroke="black" d="M63.39,-81.78C73.27,-85 84.88,-88.78 97.07,-92.75"/>
<polygon fill="black" stroke="black" points="95.87,-96.04 106.46,-95.82 98.04,-89.39 95.87,-96.04"/>
</g>
<!-- TIMER -->
<g id="node5" class="node">
<title>TIMER</title>
<polygon fill="none" stroke="black" points="63.25,-36 1.5,-36 1.5,0 63.25,0 63.25,-36"/>
<text xml:space="preserve" text-anchor="middle" x="32.38" y="-14.12" font-family="Helvetica,sans-Serif" font-size="10.00">Timer IRQ</text>
</g>
<!-- TIMER&#45;&gt;GIC -->
<g id="edge5" class="edge">
<title>TIMER&#45;&gt;GIC</title>
<path fill="none" stroke="black" d="M61.49,-36.32C76.02,-45.79 94.63,-57.92 113.43,-70.17"/>
<polygon fill="black" stroke="black" points="111.39,-73.02 121.68,-75.55 115.22,-67.16 111.39,-73.02"/>
</g>
<!-- CPU0 -->
<g id="node7" class="node">
<title>CPU0</title>
<polygon fill="none" stroke="black" points="405.45,-171 335.45,-171 335.45,-135 405.45,-135 405.45,-171"/>
<text xml:space="preserve" text-anchor="middle" x="370.45" y="-154.75" font-family="Helvetica,sans-Serif" font-size="10.00">CPU Core 0</text>
<text xml:space="preserve" text-anchor="middle" x="370.45" y="-143.5" font-family="Helvetica,sans-Serif" font-size="10.00">nIRQ / nFIQ</text>
</g>
<!-- GIC&#45;&gt;CPU0 -->
<g id="edge6" class="edge">
<title>GIC&#45;&gt;CPU0</title>
<path fill="none" stroke="black" d="M297.56,-141.47C306.65,-142.93 315.54,-144.36 323.81,-145.68"/>
<polygon fill="black" stroke="black" points="323.1,-149.11 333.52,-147.24 324.21,-142.2 323.1,-149.11"/>
</g>
<!-- CPU1 -->
<g id="node8" class="node">
<title>CPU1</title>
<polygon fill="none" stroke="black" points="405.45,-117 335.45,-117 335.45,-81 405.45,-81 405.45,-117"/>
<text xml:space="preserve" text-anchor="middle" x="370.45" y="-100.75" font-family="Helvetica,sans-Serif" font-size="10.00">CPU Core 1</text>
<text xml:space="preserve" text-anchor="middle" x="370.45" y="-89.5" font-family="Helvetica,sans-Serif" font-size="10.00">nIRQ / nFIQ</text>
</g>
<!-- GIC&#45;&gt;CPU1 -->
<g id="edge7" class="edge">
<title>GIC&#45;&gt;CPU1</title>
<path fill="none" stroke="black" d="M297.56,-110.53C306.65,-109.07 315.54,-107.64 323.81,-106.32"/>
<polygon fill="black" stroke="black" points="324.21,-109.8 333.52,-104.76 323.1,-102.89 324.21,-109.8"/>
</g>
</g>
</svg>
