<?xml version="1.0" encoding="UTF-8" standalone="no"?>
<!DOCTYPE svg PUBLIC "-//W3C//DTD SVG 1.1//EN"
 "http://www.w3.org/Graphics/SVG/1.1/DTD/svg11.dtd">
<!-- Generated by graphviz version 14.1.5 (20260411.2331)
 -->
<!-- Title: BootProcess Pages: 1 -->
<svg width="187pt" height="773pt"
 viewBox="0.00 0.00 187.00 773.00" xmlns="http://www.w3.org/2000/svg" xmlns:xlink="http://www.w3.org/1999/xlink">
<g id="graph0" class="graph" transform="scale(1 1) rotate(0) translate(4 769)">
<title>BootProcess</title>
<polygon fill="white" stroke="none" points="-4,4 -4,-769 182.75,-769 182.75,4 -4,4"/>
<!-- POR -->
<g id="node1" class="node">
<title>POR</title>
<path fill="none" stroke="black" d="M126.62,-765C126.62,-765 52.12,-765 52.12,-765 46.12,-765 40.12,-759 40.12,-753 40.12,-753 40.12,-741 40.12,-741 40.12,-735 46.12,-729 52.12,-729 52.12,-729 126.62,-729 126.62,-729 132.62,-729 138.62,-735 138.62,-741 138.62,-741 138.62,-753 138.62,-753 138.62,-759 132.62,-765 126.62,-765"/>
<text xml:space="preserve" text-anchor="middle" x="89.38" y="-748.55" font-family="Helvetica,sans-Serif" font-size="11.00">Power&#45;On Reset</text>
<text xml:space="preserve" text-anchor="middle" x="89.38" y="-736.55" font-family="Helvetica,sans-Serif" font-size="11.00">(hardware event)</text>
</g>
<!-- BROM -->
<g id="node2" class="node">
<title>BROM</title>
<path fill="none" stroke="black" d="M155.88,-693C155.88,-693 22.87,-693 22.87,-693 16.88,-693 10.88,-687 10.88,-681 10.88,-681 10.88,-600 10.88,-600 10.88,-594 16.88,-588 22.88,-588 22.88,-588 155.88,-588 155.88,-588 161.88,-588 167.88,-594 167.88,-600 167.88,-600 167.88,-681 167.88,-681 167.88,-687 161.88,-693 155.88,-693"/>
<text xml:space="preserve" text-anchor="middle" x="89.38" y="-678.55" font-family="Helvetica,sans-Serif" font-size="11.00">Boot ROM</text>
<text xml:space="preserve" text-anchor="middle" x="89.38" y="-666.55" font-family="Helvetica,sans-Serif" font-size="11.00">(on&#45;chip, immutable)</text>
<text xml:space="preserve" text-anchor="middle" x="89.38" y="-641.55" font-family="Helvetica,sans-Serif" font-size="11.00">CPU executes from ROM</text>
<text xml:space="preserve" text-anchor="middle" x="89.38" y="-629.55" font-family="Helvetica,sans-Serif" font-size="11.00">Minimal init (stack, caches)</text>
<text xml:space="preserve" text-anchor="middle" x="89.38" y="-617.55" font-family="Helvetica,sans-Serif" font-size="11.00">Determines boot source</text>
<text xml:space="preserve" text-anchor="middle" x="89.38" y="-605.55" font-family="Helvetica,sans-Serif" font-size="11.00">(NAND, eMMC, USB, JTAG)</text>
<text xml:space="preserve" text-anchor="middle" x="89.38" y="-593.55" font-family="Helvetica,sans-Serif" font-size="11.00">Loads First&#45;Stage Bootloader</text>
</g>
<!-- POR&#45;&gt;BROM -->
<g id="edge1" class="edge">
<title>POR&#45;&gt;BROM</title>
<path fill="none" stroke="black" d="M89.38,-728.74C89.38,-721.81 89.38,-713.37 89.38,-704.48"/>
<polygon fill="black" stroke="black" points="92.88,-704.6 89.38,-694.6 85.88,-704.6 92.88,-704.6"/>
</g>
<!-- FSBL -->
<g id="node3" class="node">
<title>FSBL</title>
<path fill="none" stroke="black" d="M160.75,-552C160.75,-552 18,-552 18,-552 12,-552 6,-546 6,-540 6,-540 6,-459 6,-459 6,-453 12,-447 18,-447 18,-447 160.75,-447 160.75,-447 166.75,-447 172.75,-453 172.75,-459 172.75,-459 172.75,-540 172.75,-540 172.75,-546 166.75,-552 160.75,-552"/>
<text xml:space="preserve" text-anchor="middle" x="89.38" y="-537.55" font-family="Helvetica,sans-Serif" font-size="11.00">First&#45;Stage Bootloader</text>
<text xml:space="preserve" text-anchor="middle" x="89.38" y="-525.55" font-family="Helvetica,sans-Serif" font-size="11.00">(FSBL, e.g. SPL)</text>
<text xml:space="preserve" text-anchor="middle" x="89.38" y="-500.55" font-family="Helvetica,sans-Serif" font-size="11.00">Initialises DRAM</text>
<text xml:space="preserve" text-anchor="middle" x="89.38" y="-488.55" font-family="Helvetica,sans-Serif" font-size="11.00">(DDR training sequences)</text>
<text xml:space="preserve" text-anchor="middle" x="89.38" y="-476.55" font-family="Helvetica,sans-Serif" font-size="11.00">Initialises clocks to full speed</text>
<text xml:space="preserve" text-anchor="middle" x="89.38" y="-464.55" font-family="Helvetica,sans-Serif" font-size="11.00">Loads second&#45;stage bootloader</text>
<text xml:space="preserve" text-anchor="middle" x="89.38" y="-452.55" font-family="Helvetica,sans-Serif" font-size="11.00">from eMMC/NAND to DRAM</text>
</g>
<!-- BROM&#45;&gt;FSBL -->
<g id="edge2" class="edge">
<title>BROM&#45;&gt;FSBL</title>
<path fill="none" stroke="black" d="M89.38,-587.74C89.38,-579.87 89.38,-571.68 89.38,-563.6"/>
<polygon fill="black" stroke="black" points="92.88,-563.82 89.38,-553.82 85.88,-563.82 92.88,-563.82"/>
</g>
<!-- UBOOT -->
<g id="node4" class="node">
<title>UBOOT</title>
<path fill="none" stroke="black" d="M166.75,-411C166.75,-411 12,-411 12,-411 6,-411 0,-405 0,-399 0,-399 0,-318 0,-318 0,-312 6,-306 12,-306 12,-306 166.75,-306 166.75,-306 172.75,-306 178.75,-312 178.75,-318 178.75,-318 178.75,-399 178.75,-399 178.75,-405 172.75,-411 166.75,-411"/>
<text xml:space="preserve" text-anchor="middle" x="89.38" y="-396.55" font-family="Helvetica,sans-Serif" font-size="11.00">Second&#45;Stage Bootloader</text>
<text xml:space="preserve" text-anchor="middle" x="89.38" y="-384.55" font-family="Helvetica,sans-Serif" font-size="11.00">(U&#45;Boot / UEFI)</text>
<text xml:space="preserve" text-anchor="middle" x="89.38" y="-359.55" font-family="Helvetica,sans-Serif" font-size="11.00">Full command&#45;line environment</text>
<text xml:space="preserve" text-anchor="middle" x="89.38" y="-347.55" font-family="Helvetica,sans-Serif" font-size="11.00">Ethernet, USB, filesystem support</text>
<text xml:space="preserve" text-anchor="middle" x="89.38" y="-335.55" font-family="Helvetica,sans-Serif" font-size="11.00">Device Tree configuration</text>
<text xml:space="preserve" text-anchor="middle" x="89.38" y="-323.55" font-family="Helvetica,sans-Serif" font-size="11.00">Loads kernel image from storage</text>
<text xml:space="preserve" text-anchor="middle" x="89.38" y="-311.55" font-family="Helvetica,sans-Serif" font-size="11.00">Passes device tree to kernel</text>
</g>
<!-- FSBL&#45;&gt;UBOOT -->
<g id="edge3" class="edge">
<title>FSBL&#45;&gt;UBOOT</title>
<path fill="none" stroke="black" d="M89.38,-446.74C89.38,-438.87 89.38,-430.68 89.38,-422.6"/>
<polygon fill="black" stroke="black" points="92.88,-422.82 89.38,-412.82 85.88,-422.82 92.88,-422.82"/>
</g>
<!-- KERNEL -->
<g id="node5" class="node">
<title>KERNEL</title>
<path fill="none" stroke="black" d="M164.5,-270C164.5,-270 14.25,-270 14.25,-270 8.25,-270 2.25,-264 2.25,-258 2.25,-258 2.25,-201 2.25,-201 2.25,-195 8.25,-189 14.25,-189 14.25,-189 164.5,-189 164.5,-189 170.5,-189 176.5,-195 176.5,-201 176.5,-201 176.5,-258 176.5,-258 176.5,-264 170.5,-270 164.5,-270"/>
<text xml:space="preserve" text-anchor="middle" x="89.38" y="-255.55" font-family="Helvetica,sans-Serif" font-size="11.00">Linux Kernel</text>
<text xml:space="preserve" text-anchor="middle" x="89.38" y="-230.55" font-family="Helvetica,sans-Serif" font-size="11.00">Memory management init (MMU)</text>
<text xml:space="preserve" text-anchor="middle" x="89.38" y="-218.55" font-family="Helvetica,sans-Serif" font-size="11.00">Core subsystems start</text>
<text xml:space="preserve" text-anchor="middle" x="89.38" y="-206.55" font-family="Helvetica,sans-Serif" font-size="11.00">Probe drivers from Device Tree</text>
<text xml:space="preserve" text-anchor="middle" x="89.38" y="-194.55" font-family="Helvetica,sans-Serif" font-size="11.00">Start init process (PID 1)</text>
</g>
<!-- UBOOT&#45;&gt;KERNEL -->
<g id="edge4" class="edge">
<title>UBOOT&#45;&gt;KERNEL</title>
<path fill="none" stroke="black" d="M89.38,-305.84C89.38,-297.91 89.38,-289.72 89.38,-281.79"/>
<polygon fill="black" stroke="black" points="92.88,-281.94 89.38,-271.94 85.88,-281.94 92.88,-281.94"/>
</g>
<!-- INIT -->
<g id="node6" class="node">
<title>INIT</title>
<path fill="none" stroke="black" d="M144.62,-153C144.62,-153 34.12,-153 34.12,-153 28.13,-153 22.12,-147 22.12,-141 22.12,-141 22.12,-84 22.12,-84 22.12,-78 28.12,-72 34.12,-72 34.12,-72 144.62,-72 144.62,-72 150.62,-72 156.62,-78 156.62,-84 156.62,-84 156.62,-141 156.62,-141 156.62,-147 150.62,-153 144.62,-153"/>
<text xml:space="preserve" text-anchor="middle" x="89.38" y="-138.55" font-family="Helvetica,sans-Serif" font-size="11.00">Init System</text>
<text xml:space="preserve" text-anchor="middle" x="89.38" y="-126.55" font-family="Helvetica,sans-Serif" font-size="11.00">(systemd / BusyBox init)</text>
<text xml:space="preserve" text-anchor="middle" x="89.38" y="-101.55" font-family="Helvetica,sans-Serif" font-size="11.00">Mount filesystems</text>
<text xml:space="preserve" text-anchor="middle" x="89.38" y="-89.55" font-family="Helvetica,sans-Serif" font-size="11.00">Start system services</text>
<text xml:space="preserve" text-anchor="middle" x="89.38" y="-77.55" font-family="Helvetica,sans-Serif" font-size="11.00">Launch user applications</text>
</g>
<!-- KERNEL&#45;&gt;INIT -->
<g id="edge5" class="edge">
<title>KERNEL&#45;&gt;INIT</title>
<path fill="none" stroke="black" d="M89.38,-188.6C89.38,-180.93 89.38,-172.8 89.38,-164.82"/>
<polygon fill="black" stroke="black" points="92.88,-164.84 89.38,-154.84 85.88,-164.84 92.88,-164.84"/>
</g>
<!-- APP -->
<g id="node7" class="node">
<title>APP</title>
<path fill="none" stroke="black" d="M133.38,-36C133.38,-36 45.37,-36 45.37,-36 39.38,-36 33.38,-30 33.38,-24 33.38,-24 33.38,-12 33.38,-12 33.38,-6 39.38,0 45.38,0 45.38,0 133.38,0 133.38,0 139.38,0 145.38,-6 145.38,-12 145.38,-12 145.38,-24 145.38,-24 145.38,-30 139.38,-36 133.38,-36"/>
<text xml:space="preserve" text-anchor="middle" x="89.38" y="-13.55" font-family="Helvetica,sans-Serif" font-size="11.00">Application Running</text>
</g>
<!-- INIT&#45;&gt;APP -->
<g id="edge6" class="edge">
<title>INIT&#45;&gt;APP</title>
<path fill="none" stroke="black" d="M89.38,-71.73C89.38,-63.73 89.38,-55.47 89.38,-47.92"/>
<polygon fill="black" stroke="black" points="92.88,-47.95 89.38,-37.95 85.88,-47.95 92.88,-47.95"/>
</g>
</g>
</svg>
