<?xml version="1.0" encoding="UTF-8" standalone="no"?>
<!DOCTYPE svg PUBLIC "-//W3C//DTD SVG 1.1//EN"
 "http://www.w3.org/Graphics/SVG/1.1/DTD/svg11.dtd">
<!-- Generated by graphviz version 14.1.4 (20260321.0153)
 -->
<!-- Title: GPIO Pages: 1 -->
<svg width="454pt" height="311pt"
 viewBox="0.00 0.00 454.00 311.00" xmlns="http://www.w3.org/2000/svg" xmlns:xlink="http://www.w3.org/1999/xlink">
<g id="graph0" class="graph" transform="scale(1 1) rotate(0) translate(4 306.5)">
<title>GPIO</title>
<polygon fill="white" stroke="none" points="-4,4 -4,-306.5 450,-306.5 450,4 -4,4"/>
<text xml:space="preserve" text-anchor="middle" x="223" y="-6.65" font-family="Times,serif" font-size="13.00">GPIO Port Architecture (8&#45;bit example)</text>
<g id="clust1" class="cluster">
<title>cluster_pins</title>
<polygon fill="#e2efda" stroke="black" points="8,-31 8,-106 438,-106 438,-31 8,-31"/>
<text xml:space="preserve" text-anchor="middle" x="223" y="-89.65" font-family="Times,serif" font-size="13.00">Physical Chip Pins</text>
</g>
<!-- regs -->
<g id="node1" class="node">
<title>regs</title>
<polygon fill="lightyellow" stroke="black" points="112.12,-186.5 112.12,-302 333.88,-302 333.88,-186.5 112.12,-186.5"/>
<text xml:space="preserve" text-anchor="middle" x="223" y="-288.5" font-family="Times,serif" font-size="10.00">Software Registers</text>
<polyline fill="none" stroke="black" points="112.12,-282.75 333.88,-282.75"/>
<text xml:space="preserve" text-anchor="middle" x="156.88" y="-269.25" font-family="Times,serif" font-size="10.00">GPIO_DIR [7:0]</text>
<polyline fill="none" stroke="black" points="201.62,-263.5 201.62,-282.75"/>
<text xml:space="preserve" text-anchor="middle" x="267.5" y="-269.25" font-family="Times,serif" font-size="10.00">1=Output, 0=Input per pin</text>
<polyline fill="none" stroke="black" points="112.12,-263.5 333.88,-263.5"/>
<text xml:space="preserve" text-anchor="middle" x="155.75" y="-250" font-family="Times,serif" font-size="10.00">GPIO_OUT [7:0]</text>
<polyline fill="none" stroke="black" points="199.38,-244.25 199.38,-263.5"/>
<text xml:space="preserve" text-anchor="middle" x="266.62" y="-250" font-family="Times,serif" font-size="10.00">Value to drive on output pins</text>
<polyline fill="none" stroke="black" points="112.12,-244.25 333.88,-244.25"/>
<text xml:space="preserve" text-anchor="middle" x="154.5" y="-230.75" font-family="Times,serif" font-size="10.00">GPIO_IN [7:0]</text>
<polyline fill="none" stroke="black" points="196.88,-225 196.88,-244.25"/>
<text xml:space="preserve" text-anchor="middle" x="265.25" y="-230.75" font-family="Times,serif" font-size="10.00">Current value on input pins</text>
<polyline fill="none" stroke="black" points="112.12,-225 333.88,-225"/>
<text xml:space="preserve" text-anchor="middle" x="158.25" y="-211.5" font-family="Times,serif" font-size="10.00">GPIO_IE [7:0]</text>
<polyline fill="none" stroke="black" points="204.38,-205.75 204.38,-225"/>
<text xml:space="preserve" text-anchor="middle" x="269" y="-211.5" font-family="Times,serif" font-size="10.00">Interrupt enable per pin</text>
<polyline fill="none" stroke="black" points="112.12,-205.75 333.88,-205.75"/>
<text xml:space="preserve" text-anchor="middle" x="161.62" y="-192.25" font-family="Times,serif" font-size="10.00">GPIO_ITYPE [7:0]</text>
<polyline fill="none" stroke="black" points="211.12,-186.5 211.12,-205.75"/>
<text xml:space="preserve" text-anchor="middle" x="272.25" y="-192.25" font-family="Times,serif" font-size="10.00">Edge / Level trigger type</text>
</g>
<!-- ctrl -->
<g id="node2" class="node">
<title>ctrl</title>
<polygon fill="lightblue" stroke="black" points="268.12,-150 177.88,-150 177.88,-114 268.12,-114 268.12,-150"/>
<text xml:space="preserve" text-anchor="middle" x="223" y="-128.3" font-family="Times,serif" font-size="11.00">GPIO Controller</text>
</g>
<!-- regs&#45;&gt;ctrl -->
<g id="edge1" class="edge">
<title>regs&#45;&gt;ctrl</title>
<path fill="none" stroke="black" d="M223,-186.19C223,-177.74 223,-169.35 223,-161.82"/>
<polygon fill="black" stroke="black" points="226.5,-161.96 223,-151.96 219.5,-161.96 226.5,-161.96"/>
</g>
<!-- IO0 -->
<g id="node3" class="node">
<title>IO0</title>
<polygon fill="none" stroke="black" points="70,-75 16,-75 16,-39 70,-39 70,-75"/>
<text xml:space="preserve" text-anchor="middle" x="43" y="-53.12" font-family="Times,serif" font-size="10.00">IO0</text>
</g>
<!-- ctrl&#45;&gt;IO0 -->
<g id="edge2" class="edge">
<title>ctrl&#45;&gt;IO0</title>
<path fill="none" stroke="black" d="M177.73,-126.8C141.88,-122.81 95.23,-115.94 79,-106 70.54,-100.82 63.39,-92.84 57.75,-84.88"/>
<polygon fill="black" stroke="black" points="60.79,-83.14 52.44,-76.62 54.9,-86.92 60.79,-83.14"/>
</g>
<!-- IO1 -->
<g id="node4" class="node">
<title>IO1</title>
<polygon fill="none" stroke="black" points="142,-75 88,-75 88,-39 142,-39 142,-75"/>
<text xml:space="preserve" text-anchor="middle" x="115" y="-53.12" font-family="Times,serif" font-size="10.00">IO1</text>
</g>
<!-- ctrl&#45;&gt;IO1 -->
<g id="edge3" class="edge">
<title>ctrl&#45;&gt;IO1</title>
<path fill="none" stroke="black" d="M177.56,-119.82C168.26,-116.3 158.91,-111.77 151,-106 143.19,-100.3 136.31,-92.42 130.72,-84.7"/>
<polygon fill="black" stroke="black" points="133.65,-82.79 125.18,-76.43 127.84,-86.68 133.65,-82.79"/>
</g>
<!-- IO2 -->
<g id="node5" class="node">
<title>IO2</title>
<polygon fill="none" stroke="black" points="214,-75 160,-75 160,-39 214,-39 214,-75"/>
<text xml:space="preserve" text-anchor="middle" x="187" y="-53.12" font-family="Times,serif" font-size="10.00">IO2</text>
</g>
<!-- ctrl&#45;&gt;IO2 -->
<g id="edge4" class="edge">
<title>ctrl&#45;&gt;IO2</title>
<path fill="none" stroke="black" d="M214.47,-113.7C210.33,-105.31 205.26,-95.02 200.6,-85.58"/>
<polygon fill="black" stroke="black" points="203.83,-84.21 196.26,-76.79 197.55,-87.3 203.83,-84.21"/>
</g>
<!-- IO3 -->
<g id="node6" class="node">
<title>IO3</title>
<polygon fill="none" stroke="black" points="286,-75 232,-75 232,-39 286,-39 286,-75"/>
<text xml:space="preserve" text-anchor="middle" x="259" y="-53.12" font-family="Times,serif" font-size="10.00">IO3</text>
</g>
<!-- ctrl&#45;&gt;IO3 -->
<g id="edge5" class="edge">
<title>ctrl&#45;&gt;IO3</title>
<path fill="none" stroke="black" d="M231.53,-113.7C235.67,-105.31 240.74,-95.02 245.4,-85.58"/>
<polygon fill="black" stroke="black" points="248.45,-87.3 249.74,-76.79 242.17,-84.21 248.45,-87.3"/>
</g>
<!-- IO4 -->
<g id="node7" class="node">
<title>IO4</title>
<polygon fill="none" stroke="black" points="358,-75 304,-75 304,-39 358,-39 358,-75"/>
<text xml:space="preserve" text-anchor="middle" x="331" y="-53.12" font-family="Times,serif" font-size="10.00">IO4</text>
</g>
<!-- ctrl&#45;&gt;IO4 -->
<g id="edge6" class="edge">
<title>ctrl&#45;&gt;IO4</title>
<path fill="none" stroke="black" d="M268.44,-119.82C277.74,-116.3 287.09,-111.77 295,-106 302.81,-100.3 309.69,-92.42 315.28,-84.7"/>
<polygon fill="black" stroke="black" points="318.16,-86.68 320.82,-76.43 312.35,-82.79 318.16,-86.68"/>
</g>
<!-- IO5 -->
<g id="node8" class="node">
<title>IO5</title>
<polygon fill="none" stroke="black" points="430,-75 376,-75 376,-39 430,-39 430,-75"/>
<text xml:space="preserve" text-anchor="middle" x="403" y="-53.12" font-family="Times,serif" font-size="10.00">IO5</text>
</g>
<!-- ctrl&#45;&gt;IO5 -->
<g id="edge7" class="edge">
<title>ctrl&#45;&gt;IO5</title>
<path fill="none" stroke="black" d="M268.27,-126.8C304.12,-122.81 350.77,-115.94 367,-106 375.46,-100.82 382.61,-92.84 388.25,-84.88"/>
<polygon fill="black" stroke="black" points="391.1,-86.92 393.56,-76.62 385.21,-83.14 391.1,-86.92"/>
</g>
</g>
</svg>
