<?xml version="1.0" encoding="UTF-8" standalone="no"?>
<!DOCTYPE svg PUBLIC "-//W3C//DTD SVG 1.1//EN"
 "http://www.w3.org/Graphics/SVG/1.1/DTD/svg11.dtd">
<!-- Generated by graphviz version 14.1.4 (20260321.0153)
 -->
<!-- Title: IOMUX Pages: 1 -->
<svg width="457pt" height="229pt"
 viewBox="0.00 0.00 457.00 229.00" xmlns="http://www.w3.org/2000/svg" xmlns:xlink="http://www.w3.org/1999/xlink">
<g id="graph0" class="graph" transform="scale(1 1) rotate(0) translate(4 225)">
<title>IOMUX</title>
<polygon fill="white" stroke="none" points="-4,4 -4,-225 452.75,-225 452.75,4 -4,4"/>
<text xml:space="preserve" text-anchor="middle" x="224.38" y="-6.65" font-family="Times,serif" font-size="13.00">Pin Multiplexing (IOMUX)</text>
<!-- pin -->
<g id="node1" class="node">
<title>pin</title>
<polygon fill="lightgrey" stroke="black" points="66.25,-140 0,-140 0,-104 66.25,-104 66.25,-140"/>
<text xml:space="preserve" text-anchor="middle" x="33.12" y="-118.12" font-family="Times,serif" font-size="10.00">Physical Pin</text>
</g>
<!-- iomux -->
<g id="node2" class="node">
<title>iomux</title>
<polygon fill="lightyellow" stroke="black" points="215.75,-163.75 102.25,-122 215.75,-80.25 329.25,-122 215.75,-163.75"/>
<text xml:space="preserve" text-anchor="middle" x="215.75" y="-129.38" font-family="Times,serif" font-size="10.00">IOMUX</text>
<text xml:space="preserve" text-anchor="middle" x="215.75" y="-118.12" font-family="Times,serif" font-size="10.00">(IOMUX_CFG register</text>
<text xml:space="preserve" text-anchor="middle" x="215.75" y="-106.88" font-family="Times,serif" font-size="10.00">selects function at boot)</text>
</g>
<!-- pin&#45;&gt;iomux -->
<g id="edge1" class="edge">
<title>pin&#45;&gt;iomux</title>
<path fill="none" stroke="black" d="M66.42,-122C73.39,-122 81.17,-122 89.41,-122"/>
<polygon fill="black" stroke="black" points="89.38,-125.5 99.38,-122 89.38,-118.5 89.38,-125.5"/>
</g>
<!-- gpio -->
<g id="node3" class="node">
<title>gpio</title>
<polygon fill="none" stroke="black" points="448.75,-221 365.25,-221 365.25,-185 448.75,-185 448.75,-221"/>
<text xml:space="preserve" text-anchor="middle" x="407" y="-199.12" font-family="Times,serif" font-size="10.00">GPIO Controller</text>
</g>
<!-- iomux&#45;&gt;gpio -->
<g id="edge2" class="edge">
<title>iomux&#45;&gt;gpio</title>
<path fill="none" stroke="black" d="M269.22,-144.46C295.75,-155.81 327.85,-169.55 354.28,-180.86"/>
<polygon fill="black" stroke="black" points="352.89,-184.07 363.46,-184.79 355.64,-177.64 352.89,-184.07"/>
</g>
<!-- uart -->
<g id="node4" class="node">
<title>uart</title>
<polygon fill="none" stroke="black" points="436.38,-167 377.62,-167 377.62,-131 436.38,-131 436.38,-167"/>
<text xml:space="preserve" text-anchor="middle" x="407" y="-145.12" font-family="Times,serif" font-size="10.00">UART TX</text>
</g>
<!-- iomux&#45;&gt;uart -->
<g id="edge3" class="edge">
<title>iomux&#45;&gt;uart</title>
<path fill="none" stroke="black" d="M298.66,-133.69C322.1,-137.03 346.6,-140.52 366.26,-143.33"/>
<polygon fill="black" stroke="black" points="365.64,-146.78 376.03,-144.72 366.63,-139.85 365.64,-146.78"/>
</g>
<!-- spi -->
<g id="node5" class="node">
<title>spi</title>
<polygon fill="none" stroke="black" points="434,-113 380,-113 380,-77 434,-77 434,-113"/>
<text xml:space="preserve" text-anchor="middle" x="407" y="-91.12" font-family="Times,serif" font-size="10.00">SPI CLK</text>
</g>
<!-- iomux&#45;&gt;spi -->
<g id="edge4" class="edge">
<title>iomux&#45;&gt;spi</title>
<path fill="none" stroke="black" d="M298.66,-110.31C322.93,-106.85 348.33,-103.23 368.33,-100.37"/>
<polygon fill="black" stroke="black" points="368.83,-103.84 378.23,-98.96 367.84,-96.91 368.83,-103.84"/>
</g>
<!-- i2c -->
<g id="node6" class="node">
<title>i2c</title>
<polygon fill="none" stroke="black" points="434,-59 380,-59 380,-23 434,-23 434,-59"/>
<text xml:space="preserve" text-anchor="middle" x="407" y="-37.12" font-family="Times,serif" font-size="10.00">I2C SDA</text>
</g>
<!-- iomux&#45;&gt;i2c -->
<g id="edge5" class="edge">
<title>iomux&#45;&gt;i2c</title>
<path fill="none" stroke="black" d="M269.22,-99.54C301.03,-85.93 340.84,-68.89 369.29,-56.71"/>
<polygon fill="black" stroke="black" points="370.39,-60.05 378.21,-52.89 367.64,-53.61 370.39,-60.05"/>
</g>
</g>
</svg>
