<?xml version="1.0" encoding="UTF-8" standalone="no"?>
<!DOCTYPE svg PUBLIC "-//W3C//DTD SVG 1.1//EN"
 "http://www.w3.org/Graphics/SVG/1.1/DTD/svg11.dtd">
<!-- Generated by graphviz version 14.1.4 (20260321.0153)
 -->
<!-- Title: SynthesisFlow Pages: 1 -->
<svg width="270pt" height="457pt"
 viewBox="0.00 0.00 270.00 457.00" xmlns="http://www.w3.org/2000/svg" xmlns:xlink="http://www.w3.org/1999/xlink">
<g id="graph0" class="graph" transform="scale(1 1) rotate(0) translate(4 452.5)">
<title>SynthesisFlow</title>
<polygon fill="white" stroke="none" points="-4,4 -4,-452.5 265.75,-452.5 265.75,4 -4,4"/>
<text xml:space="preserve" text-anchor="middle" x="130.88" y="-432.15" font-family="Times,serif" font-size="13.00">RTL Synthesis Flow</text>
<g id="clust1" class="cluster">
<title>cluster_tool</title>
<polygon fill="#f2f2f2" stroke="black" points="8.62,-69.75 8.62,-375.75 242.62,-375.75 242.62,-69.75 8.62,-69.75"/>
<text xml:space="preserve" text-anchor="middle" x="125.62" y="-359.4" font-family="Times,serif" font-size="13.00">Synthesis Tool</text>
<text xml:space="preserve" text-anchor="middle" x="125.62" y="-344.4" font-family="Times,serif" font-size="13.00">(Synopsys DC / Cadence Genus / Yosys)</text>
</g>
<!-- rtl -->
<g id="node1" class="node">
<title>rtl</title>
<polygon fill="lightblue" stroke="black" points="117.25,-422.62 0,-422.62 0,-386.62 117.25,-386.62 117.25,-422.62"/>
<text xml:space="preserve" text-anchor="middle" x="58.62" y="-406.38" font-family="Times,serif" font-size="10.00">RTL Source</text>
<text xml:space="preserve" text-anchor="middle" x="58.62" y="-395.12" font-family="Times,serif" font-size="10.00">(SystemVerilog / VHDL)</text>
</g>
<!-- elab -->
<g id="node3" class="node">
<title>elab</title>
<polygon fill="white" stroke="black" points="179.38,-329.75 71.88,-329.75 71.88,-293.75 179.38,-293.75 179.38,-329.75"/>
<text xml:space="preserve" text-anchor="middle" x="125.62" y="-313.5" font-family="Times,serif" font-size="10.00">1. Elaborate</text>
<text xml:space="preserve" text-anchor="middle" x="125.62" y="-302.25" font-family="Times,serif" font-size="10.00">build design hierarchy</text>
</g>
<!-- rtl&#45;&gt;elab -->
<g id="edge4" class="edge">
<title>rtl&#45;&gt;elab</title>
<path fill="none" stroke="black" d="M71.23,-386.53C81.08,-373.16 94.96,-354.34 106.23,-339.06"/>
<polygon fill="black" stroke="black" points="108.84,-341.42 111.95,-331.29 103.2,-337.27 108.84,-341.42"/>
</g>
<!-- sdc -->
<g id="node2" class="node">
<title>sdc</title>
<polygon fill="lightyellow" stroke="black" points="248.38,-425.5 134.88,-425.5 134.88,-383.75 248.38,-383.75 248.38,-425.5"/>
<text xml:space="preserve" text-anchor="middle" x="191.62" y="-412" font-family="Times,serif" font-size="10.00">Constraints</text>
<text xml:space="preserve" text-anchor="middle" x="191.62" y="-400.75" font-family="Times,serif" font-size="10.00">(.sdc file)</text>
<text xml:space="preserve" text-anchor="middle" x="191.62" y="-389.5" font-family="Times,serif" font-size="10.00">clock period, I/O delays</text>
</g>
<!-- sdc&#45;&gt;elab -->
<g id="edge5" class="edge">
<title>sdc&#45;&gt;elab</title>
<path fill="none" stroke="black" d="M176.98,-383.46C167.54,-370.46 155.15,-353.41 144.92,-339.31"/>
<polygon fill="black" stroke="black" points="147.83,-337.37 139.12,-331.33 142.16,-341.48 147.83,-337.37"/>
</g>
<!-- generic -->
<g id="node4" class="node">
<title>generic</title>
<polygon fill="white" stroke="black" points="210.88,-257.75 40.38,-257.75 40.38,-221.75 210.88,-221.75 210.88,-257.75"/>
<text xml:space="preserve" text-anchor="middle" x="125.62" y="-241.5" font-family="Times,serif" font-size="10.00">2. Generic Synthesis</text>
<text xml:space="preserve" text-anchor="middle" x="125.62" y="-230.25" font-family="Times,serif" font-size="10.00">technology&#45;independent optimisation</text>
</g>
<!-- elab&#45;&gt;generic -->
<g id="edge1" class="edge">
<title>elab&#45;&gt;generic</title>
<path fill="none" stroke="black" d="M125.62,-293.45C125.62,-286.16 125.62,-277.48 125.62,-269.29"/>
<polygon fill="black" stroke="black" points="129.13,-269.37 125.63,-259.37 122.13,-269.37 129.13,-269.37"/>
</g>
<!-- map -->
<g id="node5" class="node">
<title>map</title>
<polygon fill="white" stroke="black" points="182.75,-185.75 68.5,-185.75 68.5,-149.75 182.75,-149.75 182.75,-185.75"/>
<text xml:space="preserve" text-anchor="middle" x="125.62" y="-169.5" font-family="Times,serif" font-size="10.00">3. Technology Mapping</text>
<text xml:space="preserve" text-anchor="middle" x="125.62" y="-158.25" font-family="Times,serif" font-size="10.00">map to cell library</text>
</g>
<!-- generic&#45;&gt;map -->
<g id="edge2" class="edge">
<title>generic&#45;&gt;map</title>
<path fill="none" stroke="black" d="M125.62,-221.45C125.62,-214.16 125.62,-205.48 125.62,-197.29"/>
<polygon fill="black" stroke="black" points="129.13,-197.37 125.63,-187.37 122.13,-197.37 129.13,-197.37"/>
</g>
<!-- opt -->
<g id="node6" class="node">
<title>opt</title>
<polygon fill="white" stroke="black" points="172.62,-113.75 78.62,-113.75 78.62,-77.75 172.62,-77.75 172.62,-113.75"/>
<text xml:space="preserve" text-anchor="middle" x="125.62" y="-97.5" font-family="Times,serif" font-size="10.00">4. Optimise</text>
<text xml:space="preserve" text-anchor="middle" x="125.62" y="-86.25" font-family="Times,serif" font-size="10.00">timing, area, power</text>
</g>
<!-- map&#45;&gt;opt -->
<g id="edge3" class="edge">
<title>map&#45;&gt;opt</title>
<path fill="none" stroke="black" d="M125.62,-149.45C125.62,-142.16 125.62,-133.48 125.62,-125.29"/>
<polygon fill="black" stroke="black" points="129.13,-125.37 125.63,-115.37 122.13,-125.37 129.13,-125.37"/>
</g>
<!-- netlist -->
<g id="node7" class="node">
<title>netlist</title>
<polygon fill="#70ad47" stroke="black" points="105.5,-38.88 13.75,-38.88 13.75,-2.88 105.5,-2.88 105.5,-38.88"/>
<text xml:space="preserve" text-anchor="middle" x="59.62" y="-22.62" font-family="Times,serif" font-size="10.00">Gate&#45;Level Netlist</text>
<text xml:space="preserve" text-anchor="middle" x="59.62" y="-11.38" font-family="Times,serif" font-size="10.00">(.v / .sv)</text>
</g>
<!-- opt&#45;&gt;netlist -->
<g id="edge6" class="edge">
<title>opt&#45;&gt;netlist</title>
<path fill="none" stroke="black" d="M109.98,-77.48C101.91,-68.56 91.89,-57.5 82.92,-47.59"/>
<polygon fill="black" stroke="black" points="85.71,-45.46 76.4,-40.4 80.52,-50.16 85.71,-45.46"/>
</g>
<!-- sdf -->
<g id="node8" class="node">
<title>sdf</title>
<polygon fill="#a9d18e" stroke="black" points="261.75,-41.75 123.5,-41.75 123.5,0 261.75,0 261.75,-41.75"/>
<text xml:space="preserve" text-anchor="middle" x="192.62" y="-28.25" font-family="Times,serif" font-size="10.00">Standard Delay Format</text>
<text xml:space="preserve" text-anchor="middle" x="192.62" y="-17" font-family="Times,serif" font-size="10.00">(.sdf)</text>
<text xml:space="preserve" text-anchor="middle" x="192.62" y="-5.75" font-family="Times,serif" font-size="10.00">for back&#45;annotated simulation</text>
</g>
<!-- opt&#45;&gt;sdf -->
<g id="edge7" class="edge">
<title>opt&#45;&gt;sdf</title>
<path fill="none" stroke="black" d="M141.5,-77.48C148.89,-69.44 157.88,-59.66 166.25,-50.56"/>
<polygon fill="black" stroke="black" points="168.79,-52.97 172.98,-43.24 163.64,-48.23 168.79,-52.97"/>
</g>
</g>
</svg>
