<?xml version="1.0" encoding="UTF-8" standalone="no"?>
<!DOCTYPE svg PUBLIC "-//W3C//DTD SVG 1.1//EN"
 "http://www.w3.org/Graphics/SVG/1.1/DTD/svg11.dtd">
<!-- Generated by graphviz version 14.1.4 (20260321.0153)
 -->
<!-- Title: PowerStates Pages: 1 -->
<svg width="961pt" height="150pt"
 viewBox="0.00 0.00 961.00 150.00" xmlns="http://www.w3.org/2000/svg" xmlns:xlink="http://www.w3.org/1999/xlink">
<g id="graph0" class="graph" transform="scale(1 1) rotate(0) translate(4 146.48)">
<title>PowerStates</title>
<polygon fill="white" stroke="none" points="-4,4 -4,-146.48 957.32,-146.48 957.32,4 -4,4"/>
<!-- OFF -->
<g id="node1" class="node">
<title>OFF</title>
<ellipse fill="none" stroke="black" cx="43.66" cy="-71.24" rx="43.66" ry="43.66"/>
<text xml:space="preserve" text-anchor="middle" x="43.66" y="-72.99" font-family="Helvetica,sans-Serif" font-size="10.00">OFF</text>
<text xml:space="preserve" text-anchor="middle" x="43.66" y="-61.74" font-family="Helvetica,sans-Serif" font-size="10.00">(no power)</text>
</g>
<!-- DEEP -->
<g id="node2" class="node">
<title>DEEP</title>
<ellipse fill="none" stroke="black" cx="234.38" cy="-71.24" rx="54.8" ry="54.8"/>
<text xml:space="preserve" text-anchor="middle" x="234.38" y="-78.62" font-family="Helvetica,sans-Serif" font-size="10.00">DEEP</text>
<text xml:space="preserve" text-anchor="middle" x="234.38" y="-67.37" font-family="Helvetica,sans-Serif" font-size="10.00">SLEEP</text>
<text xml:space="preserve" text-anchor="middle" x="234.38" y="-56.12" font-family="Helvetica,sans-Serif" font-size="10.00">(only RTC on)</text>
</g>
<!-- OFF&#45;&gt;DEEP -->
<g id="edge1" class="edge">
<title>OFF&#45;&gt;DEEP</title>
<path fill="none" stroke="black" d="M87.49,-71.24C111.27,-71.24 141.37,-71.24 168.03,-71.24"/>
<polygon fill="black" stroke="black" points="167.71,-74.74 177.71,-71.24 167.71,-67.74 167.71,-74.74"/>
<text xml:space="preserve" text-anchor="middle" x="133.45" y="-72.64" font-family="Helvetica,sans-Serif" font-size="8.00">power on</text>
</g>
<!-- DEEP&#45;&gt;OFF -->
<g id="edge8" class="edge">
<title>DEEP&#45;&gt;OFF</title>
<path fill="none" stroke="black" d="M180.2,-60.52C173.94,-59.58 167.63,-58.78 161.58,-58.24 136.68,-56.01 130.19,-55.61 105.33,-58.24 102.85,-58.5 100.32,-58.83 97.77,-59.19"/>
<polygon fill="black" stroke="black" points="97.36,-55.71 88.07,-60.81 98.51,-62.62 97.36,-55.71"/>
<text xml:space="preserve" text-anchor="middle" x="133.45" y="-59.64" font-family="Helvetica,sans-Serif" font-size="8.00">power removed</text>
</g>
<!-- SLEEP -->
<g id="node3" class="node">
<title>SLEEP</title>
<ellipse fill="none" stroke="black" cx="472.17" cy="-71.24" rx="71.24" ry="71.24"/>
<text xml:space="preserve" text-anchor="middle" x="472.17" y="-78.62" font-family="Helvetica,sans-Serif" font-size="10.00">SLEEP</text>
<text xml:space="preserve" text-anchor="middle" x="472.17" y="-67.37" font-family="Helvetica,sans-Serif" font-size="10.00">(CPU off,</text>
<text xml:space="preserve" text-anchor="middle" x="472.17" y="-56.12" font-family="Helvetica,sans-Serif" font-size="10.00">DRAM self&#45;refresh)</text>
</g>
<!-- DEEP&#45;&gt;SLEEP -->
<g id="edge2" class="edge">
<title>DEEP&#45;&gt;SLEEP</title>
<path fill="none" stroke="black" d="M289.47,-71.24C319.03,-71.24 356.24,-71.24 389.28,-71.24"/>
<polygon fill="black" stroke="black" points="389.25,-74.74 399.25,-71.24 389.25,-67.74 389.25,-74.74"/>
<text xml:space="preserve" text-anchor="middle" x="345.05" y="-81.64" font-family="Helvetica,sans-Serif" font-size="8.00">wake event</text>
<text xml:space="preserve" text-anchor="middle" x="345.05" y="-72.64" font-family="Helvetica,sans-Serif" font-size="8.00">(RTC alarm, GPIO)</text>
</g>
<!-- SLEEP&#45;&gt;DEEP -->
<g id="edge7" class="edge">
<title>SLEEP&#45;&gt;DEEP</title>
<path fill="none" stroke="black" d="M401.43,-60.01C395.19,-59.29 388.95,-58.68 382.93,-58.24 349.35,-55.78 340.71,-55.23 307.18,-58.24 304.72,-58.46 302.22,-58.72 299.69,-59.02"/>
<polygon fill="black" stroke="black" points="299.5,-55.52 290.06,-60.32 300.44,-62.45 299.5,-55.52"/>
<text xml:space="preserve" text-anchor="middle" x="345.05" y="-59.64" font-family="Helvetica,sans-Serif" font-size="8.00">extended sleep policy</text>
</g>
<!-- IDLE -->
<g id="node4" class="node">
<title>IDLE</title>
<ellipse fill="none" stroke="black" cx="695.8" cy="-71.24" rx="56.39" ry="56.39"/>
<text xml:space="preserve" text-anchor="middle" x="695.8" y="-78.62" font-family="Helvetica,sans-Serif" font-size="10.00">IDLE</text>
<text xml:space="preserve" text-anchor="middle" x="695.8" y="-67.37" font-family="Helvetica,sans-Serif" font-size="10.00">(CPU WFI,</text>
<text xml:space="preserve" text-anchor="middle" x="695.8" y="-56.12" font-family="Helvetica,sans-Serif" font-size="10.00">peripherals on)</text>
</g>
<!-- SLEEP&#45;&gt;IDLE -->
<g id="edge3" class="edge">
<title>SLEEP&#45;&gt;IDLE</title>
<path fill="none" stroke="black" d="M543.91,-71.24C570.72,-71.24 601.16,-71.24 627.63,-71.24"/>
<polygon fill="black" stroke="black" points="627.59,-74.74 637.59,-71.24 627.59,-67.74 627.59,-74.74"/>
<text xml:space="preserve" text-anchor="middle" x="591.41" y="-72.64" font-family="Helvetica,sans-Serif" font-size="8.00">interrupt arrives</text>
</g>
<!-- IDLE&#45;&gt;SLEEP -->
<g id="edge6" class="edge">
<title>IDLE&#45;&gt;SLEEP</title>
<path fill="none" stroke="black" d="M640.04,-60.46C633.78,-59.55 627.47,-58.77 621.41,-58.24 594.85,-55.91 588.01,-56.29 561.41,-58.24 559.06,-58.41 556.67,-58.61 554.27,-58.83"/>
<polygon fill="black" stroke="black" points="554,-55.34 544.41,-59.85 554.72,-62.3 554,-55.34"/>
<text xml:space="preserve" text-anchor="middle" x="591.41" y="-59.64" font-family="Helvetica,sans-Serif" font-size="8.00">idle timer expires</text>
</g>
<!-- RUN -->
<g id="node5" class="node">
<title>RUN</title>
<ellipse fill="none" stroke="black" cx="904.88" cy="-71.24" rx="48.44" ry="48.44"/>
<text xml:space="preserve" text-anchor="middle" x="904.88" y="-78.62" font-family="Helvetica,sans-Serif" font-size="10.00">RUN</text>
<text xml:space="preserve" text-anchor="middle" x="904.88" y="-67.37" font-family="Helvetica,sans-Serif" font-size="10.00">(all domains</text>
<text xml:space="preserve" text-anchor="middle" x="904.88" y="-56.12" font-family="Helvetica,sans-Serif" font-size="10.00">active)</text>
</g>
<!-- IDLE&#45;&gt;RUN -->
<g id="edge4" class="edge">
<title>IDLE&#45;&gt;RUN</title>
<path fill="none" stroke="black" d="M752.57,-71.24C781.12,-71.24 815.88,-71.24 844.89,-71.24"/>
<polygon fill="black" stroke="black" points="844.59,-74.74 854.59,-71.24 844.59,-67.74 844.59,-74.74"/>
<text xml:space="preserve" text-anchor="middle" x="804.32" y="-72.64" font-family="Helvetica,sans-Serif" font-size="8.00">CPU exits WFI</text>
</g>
<!-- RUN&#45;&gt;IDLE -->
<g id="edge5" class="edge">
<title>RUN&#45;&gt;IDLE</title>
<path fill="none" stroke="black" d="M857.22,-60.82C850.94,-59.75 844.55,-58.84 838.44,-58.24 808.26,-55.27 800.41,-55.59 770.19,-58.24 767.73,-58.46 765.23,-58.71 762.71,-59"/>
<polygon fill="black" stroke="black" points="762.53,-55.5 753.07,-60.26 763.44,-62.44 762.53,-55.5"/>
<text xml:space="preserve" text-anchor="middle" x="804.32" y="-59.64" font-family="Helvetica,sans-Serif" font-size="8.00">CPU executes WFI</text>
</g>
</g>
</svg>
