<?xml version="1.0" encoding="UTF-8" standalone="no"?>
<!DOCTYPE svg PUBLIC "-//W3C//DTD SVG 1.1//EN"
 "http://www.w3.org/Graphics/SVG/1.1/DTD/svg11.dtd">
<!-- Generated by graphviz version 14.1.5 (20260411.2331)
 -->
<!-- Title: Q_Channel Pages: 1 -->
<svg width="835pt" height="331pt"
 viewBox="0.00 0.00 835.00 331.00" xmlns="http://www.w3.org/2000/svg" xmlns:xlink="http://www.w3.org/1999/xlink">
<g id="graph0" class="graph" transform="scale(1 1) rotate(0) translate(4 326.77)">
<title>Q_Channel</title>
<polygon fill="white" stroke="none" points="-4,4 -4,-326.77 830.85,-326.77 830.85,4 -4,4"/>
<!-- Q_RUN -->
<g id="node1" class="node">
<title>Q_RUN</title>
<ellipse fill="#7b35c2" stroke="#2d2d2d" cx="366.43" cy="-300.14" rx="144.43" ry="22.63"/>
<text xml:space="preserve" text-anchor="middle" x="366.43" y="-301.69" font-family="Helvetica,sans-Serif" font-size="11.00" fill="white">Q_RUN</text>
<text xml:space="preserve" text-anchor="middle" x="366.43" y="-289.69" font-family="Helvetica,sans-Serif" font-size="11.00" fill="white">QREQn=1 &#160;QACCEPTn=1 &#160;QDENY=0</text>
</g>
<!-- Q_REQUEST -->
<g id="node2" class="node">
<title>Q_REQUEST</title>
<ellipse fill="#f5f2ec" stroke="#2d2d2d" cx="366.43" cy="-207.64" rx="144.43" ry="22.63"/>
<text xml:space="preserve" text-anchor="middle" x="366.43" y="-209.19" font-family="Helvetica,sans-Serif" font-size="11.00">Q_REQUEST</text>
<text xml:space="preserve" text-anchor="middle" x="366.43" y="-197.19" font-family="Helvetica,sans-Serif" font-size="11.00">QREQn=0 &#160;QACCEPTn=1 &#160;QDENY=0</text>
</g>
<!-- Q_RUN&#45;&gt;Q_REQUEST -->
<g id="edge1" class="edge">
<title>Q_RUN&#45;&gt;Q_REQUEST</title>
<path fill="none" stroke="#2d2d2d" d="M366.43,-277.23C366.43,-266.64 366.43,-253.7 366.43,-241.92"/>
<polygon fill="#2d2d2d" stroke="#2d2d2d" points="369.93,-242.17 366.43,-232.17 362.93,-242.17 369.93,-242.17"/>
<text xml:space="preserve" text-anchor="middle" x="394.18" y="-250.01" font-family="Helvetica,sans-Serif" font-size="10.00">QREQn falls</text>
</g>
<!-- Q_STOPPED -->
<g id="node3" class="node">
<title>Q_STOPPED</title>
<ellipse fill="#e07820" stroke="#2d2d2d" cx="264.43" cy="-115.13" rx="144.43" ry="22.63"/>
<text xml:space="preserve" text-anchor="middle" x="264.43" y="-116.68" font-family="Helvetica,sans-Serif" font-size="11.00" fill="white">Q_STOPPED</text>
<text xml:space="preserve" text-anchor="middle" x="264.43" y="-104.68" font-family="Helvetica,sans-Serif" font-size="11.00" fill="white">QREQn=0 &#160;QACCEPTn=0 &#160;QDENY=0</text>
</g>
<!-- Q_REQUEST&#45;&gt;Q_STOPPED -->
<g id="edge2" class="edge">
<title>Q_REQUEST&#45;&gt;Q_STOPPED</title>
<path fill="none" stroke="#2d2d2d" d="M342,-184.96C328.5,-172.98 311.55,-157.95 296.94,-144.99"/>
<polygon fill="#2d2d2d" stroke="#2d2d2d" points="299.59,-142.66 289.79,-138.64 294.95,-147.89 299.59,-142.66"/>
<text xml:space="preserve" text-anchor="middle" x="359.03" y="-157.51" font-family="Helvetica,sans-Serif" font-size="10.00">QACCEPTn falls</text>
</g>
<!-- Q_DENIED -->
<g id="node5" class="node">
<title>Q_DENIED</title>
<ellipse fill="#f5f2ec" stroke="#2d2d2d" cx="571.43" cy="-115.13" rx="144.43" ry="22.63"/>
<text xml:space="preserve" text-anchor="middle" x="571.43" y="-116.68" font-family="Helvetica,sans-Serif" font-size="11.00">Q_DENIED</text>
<text xml:space="preserve" text-anchor="middle" x="571.43" y="-104.68" font-family="Helvetica,sans-Serif" font-size="11.00">QREQn=0 &#160;QACCEPTn=1 &#160;QDENY=1</text>
</g>
<!-- Q_REQUEST&#45;&gt;Q_DENIED -->
<g id="edge5" class="edge">
<title>Q_REQUEST&#45;&gt;Q_DENIED</title>
<path fill="none" stroke="#2d2d2d" d="M413.46,-185.87C443.3,-172.7 482.12,-155.56 513.81,-141.57"/>
<polygon fill="#2d2d2d" stroke="#2d2d2d" points="515.14,-144.81 522.88,-137.57 512.31,-138.4 515.14,-144.81"/>
<text xml:space="preserve" text-anchor="middle" x="511.2" y="-157.51" font-family="Helvetica,sans-Serif" font-size="10.00">QDENY rises</text>
</g>
<!-- Q_EXIT -->
<g id="node4" class="node">
<title>Q_EXIT</title>
<ellipse fill="#f5f2ec" stroke="#2d2d2d" cx="144.43" cy="-22.63" rx="144.43" ry="22.63"/>
<text xml:space="preserve" text-anchor="middle" x="144.43" y="-24.18" font-family="Helvetica,sans-Serif" font-size="11.00">Q_EXIT</text>
<text xml:space="preserve" text-anchor="middle" x="144.43" y="-12.18" font-family="Helvetica,sans-Serif" font-size="11.00">QREQn=1 &#160;QACCEPTn=0 &#160;QDENY=0</text>
</g>
<!-- Q_STOPPED&#45;&gt;Q_EXIT -->
<g id="edge3" class="edge">
<title>Q_STOPPED&#45;&gt;Q_EXIT</title>
<path fill="none" stroke="#2d2d2d" d="M235.99,-92.68C219.82,-80.49 199.37,-65.07 181.9,-51.89"/>
<polygon fill="#2d2d2d" stroke="#2d2d2d" points="184.38,-49.37 174.29,-46.15 180.16,-54.96 184.38,-49.37"/>
<text xml:space="preserve" text-anchor="middle" x="240.86" y="-65" font-family="Helvetica,sans-Serif" font-size="10.00">QREQn rises</text>
</g>
<!-- Q_EXIT&#45;&gt;Q_RUN -->
<g id="edge4" class="edge">
<title>Q_EXIT&#45;&gt;Q_RUN</title>
<path fill="none" stroke="#2d2d2d" d="M129.39,-45.27C115.12,-68.69 97.72,-106.83 111.43,-137.76 143.23,-209.53 225.15,-252.57 287.64,-275.93"/>
<polygon fill="#2d2d2d" stroke="#2d2d2d" points="286.26,-279.15 296.85,-279.27 288.64,-272.57 286.26,-279.15"/>
<text xml:space="preserve" text-anchor="middle" x="165.4" y="-157.51" font-family="Helvetica,sans-Serif" font-size="10.00">QACCEPTn rises</text>
</g>
<!-- Q_CONTINUE -->
<g id="node6" class="node">
<title>Q_CONTINUE</title>
<ellipse fill="#f5f2ec" stroke="#2d2d2d" cx="682.43" cy="-22.63" rx="144.43" ry="22.63"/>
<text xml:space="preserve" text-anchor="middle" x="682.43" y="-24.18" font-family="Helvetica,sans-Serif" font-size="11.00">Q_CONTINUE</text>
<text xml:space="preserve" text-anchor="middle" x="682.43" y="-12.18" font-family="Helvetica,sans-Serif" font-size="11.00">QREQn=1 &#160;QACCEPTn=1 &#160;QDENY=1</text>
</g>
<!-- Q_DENIED&#45;&gt;Q_CONTINUE -->
<g id="edge6" class="edge">
<title>Q_DENIED&#45;&gt;Q_CONTINUE</title>
<path fill="none" stroke="#2d2d2d" d="M598.01,-92.45C612.84,-80.36 631.49,-65.16 647.48,-52.12"/>
<polygon fill="#2d2d2d" stroke="#2d2d2d" points="649.34,-55.12 654.88,-46.09 644.92,-49.69 649.34,-55.12"/>
<text xml:space="preserve" text-anchor="middle" x="662.82" y="-65" font-family="Helvetica,sans-Serif" font-size="10.00">QREQn rises</text>
</g>
<!-- Q_CONTINUE&#45;&gt;Q_RUN -->
<g id="edge7" class="edge">
<title>Q_CONTINUE&#45;&gt;Q_RUN</title>
<path fill="none" stroke="#2d2d2d" d="M701.74,-45.55C720.42,-69.54 743.33,-108.49 724.43,-137.76 670.8,-220.8 563.08,-261.54 479.74,-281.26"/>
<polygon fill="#2d2d2d" stroke="#2d2d2d" points="479.12,-277.82 470.15,-283.46 480.68,-284.64 479.12,-277.82"/>
<text xml:space="preserve" text-anchor="middle" x="738.78" y="-157.51" font-family="Helvetica,sans-Serif" font-size="10.00">QDENY falls</text>
</g>
</g>
</svg>
