<?xml version="1.0" encoding="UTF-8" standalone="no"?>
<!DOCTYPE svg PUBLIC "-//W3C//DTD SVG 1.1//EN"
 "http://www.w3.org/Graphics/SVG/1.1/DTD/svg11.dtd">
<!-- Generated by graphviz version 14.1.4 (20260321.0153)
 -->
<!-- Title: PeripheralBandwidth Pages: 1 -->
<svg width="1200pt" height="128pt"
 viewBox="0.00 0.00 1200.00 128.00" xmlns="http://www.w3.org/2000/svg" xmlns:xlink="http://www.w3.org/1999/xlink">
<g id="graph0" class="graph" transform="scale(1 1) rotate(0) translate(4 124)">
<title>PeripheralBandwidth</title>
<polygon fill="white" stroke="none" points="-4,4 -4,-124 1196,-124 1196,4 -4,4"/>
<text xml:space="preserve" text-anchor="middle" x="596" y="-103.65" font-family="Times,serif" font-size="13.00">SoC Peripheral Bandwidth: High to Low</text>
<g id="clust1" class="cluster">
<title>cluster_high</title>
<polygon fill="none" stroke="black" stroke-dasharray="5,2" points="8,-8 8,-89 616.25,-89 616.25,-8 8,-8"/>
<text xml:space="preserve" text-anchor="middle" x="312.12" y="-72.65" font-family="Times,serif" font-size="13.00">AXI / AHB Fabric</text>
</g>
<g id="clust2" class="cluster">
<title>cluster_low</title>
<polygon fill="none" stroke="black" stroke-dasharray="5,2" points="715,-8 715,-89 1184,-89 1184,-8 715,-8"/>
<text xml:space="preserve" text-anchor="middle" x="949.5" y="-72.65" font-family="Times,serif" font-size="13.00">APB / Slow Bus</text>
</g>
<!-- PCIe -->
<g id="node1" class="node">
<title>PCIe</title>
<polygon fill="#4472c4" stroke="black" points="88.25,-57.88 16,-57.88 16,-16.12 88.25,-16.12 88.25,-57.88"/>
<text xml:space="preserve" text-anchor="middle" x="52.12" y="-44.38" font-family="Times,serif" font-size="10.00" fill="white">PCIe</text>
<text xml:space="preserve" text-anchor="middle" x="52.12" y="-33.12" font-family="Times,serif" font-size="10.00" fill="white">32 GB/s</text>
<text xml:space="preserve" text-anchor="middle" x="52.12" y="-21.88" font-family="Times,serif" font-size="10.00" fill="white">NVMe / GPU</text>
</g>
<!-- USB3 -->
<g id="node2" class="node">
<title>USB3</title>
<polygon fill="#5b9bd5" stroke="black" points="257,-57.88 203,-57.88 203,-16.12 257,-16.12 257,-57.88"/>
<text xml:space="preserve" text-anchor="middle" x="230" y="-44.38" font-family="Times,serif" font-size="10.00" fill="white">USB 3.0</text>
<text xml:space="preserve" text-anchor="middle" x="230" y="-33.12" font-family="Times,serif" font-size="10.00" fill="white">5 Gb/s</text>
<text xml:space="preserve" text-anchor="middle" x="230" y="-21.88" font-family="Times,serif" font-size="10.00" fill="white">External</text>
</g>
<!-- PCIe&#45;&gt;USB3 -->
<g id="edge1" class="edge">
<title>PCIe&#45;&gt;USB3</title>
<path fill="none" stroke="black" d="M88.72,-37C118.49,-37 160.85,-37 191.22,-37"/>
<polygon fill="black" stroke="black" points="191.11,-40.5 201.11,-37 191.11,-33.5 191.11,-40.5"/>
<text xml:space="preserve" text-anchor="middle" x="145.62" y="-39.15" font-family="Times,serif" font-size="8.00"> &#160;decreasing bandwidth &#160;</text>
</g>
<!-- ETH -->
<g id="node3" class="node">
<title>ETH</title>
<polygon fill="#70ad47" stroke="black" points="425.75,-57.88 371.75,-57.88 371.75,-16.12 425.75,-16.12 425.75,-57.88"/>
<text xml:space="preserve" text-anchor="middle" x="398.75" y="-44.38" font-family="Times,serif" font-size="10.00">Ethernet</text>
<text xml:space="preserve" text-anchor="middle" x="398.75" y="-33.12" font-family="Times,serif" font-size="10.00">1 Gb/s</text>
<text xml:space="preserve" text-anchor="middle" x="398.75" y="-21.88" font-family="Times,serif" font-size="10.00">Network</text>
</g>
<!-- USB3&#45;&gt;ETH -->
<g id="edge2" class="edge">
<title>USB3&#45;&gt;ETH</title>
<path fill="none" stroke="black" d="M257.42,-37C285.11,-37 328.85,-37 360.13,-37"/>
<polygon fill="black" stroke="black" points="359.94,-40.5 369.94,-37 359.94,-33.5 359.94,-40.5"/>
<text xml:space="preserve" text-anchor="middle" x="314.38" y="-39.15" font-family="Times,serif" font-size="8.00"> &#160;decreasing bandwidth &#160;</text>
</g>
<!-- USB2 -->
<g id="node4" class="node">
<title>USB2</title>
<polygon fill="#a9d18e" stroke="black" points="608.25,-57.88 540.5,-57.88 540.5,-16.12 608.25,-16.12 608.25,-57.88"/>
<text xml:space="preserve" text-anchor="middle" x="574.38" y="-44.38" font-family="Times,serif" font-size="10.00">USB 2.0</text>
<text xml:space="preserve" text-anchor="middle" x="574.38" y="-33.12" font-family="Times,serif" font-size="10.00">480 Mb/s</text>
<text xml:space="preserve" text-anchor="middle" x="574.38" y="-21.88" font-family="Times,serif" font-size="10.00">Legacy USB</text>
</g>
<!-- ETH&#45;&gt;USB2 -->
<g id="edge3" class="edge">
<title>ETH&#45;&gt;USB2</title>
<path fill="none" stroke="black" d="M426.12,-37C453.33,-37 496.25,-37 528.76,-37"/>
<polygon fill="black" stroke="black" points="528.7,-40.5 538.7,-37 528.7,-33.5 528.7,-40.5"/>
<text xml:space="preserve" text-anchor="middle" x="483.12" y="-39.15" font-family="Times,serif" font-size="8.00"> &#160;decreasing bandwidth &#160;</text>
</g>
<!-- SPI -->
<g id="node5" class="node">
<title>SPI</title>
<polygon fill="#ffd966" stroke="black" points="795.25,-57.88 723,-57.88 723,-16.12 795.25,-16.12 795.25,-57.88"/>
<text xml:space="preserve" text-anchor="middle" x="759.12" y="-44.38" font-family="Times,serif" font-size="10.00">SPI</text>
<text xml:space="preserve" text-anchor="middle" x="759.12" y="-33.12" font-family="Times,serif" font-size="10.00">50 Mb/s</text>
<text xml:space="preserve" text-anchor="middle" x="759.12" y="-21.88" font-family="Times,serif" font-size="10.00">Flash / OLED</text>
</g>
<!-- USB2&#45;&gt;SPI -->
<g id="edge4" class="edge">
<title>USB2&#45;&gt;SPI</title>
<path fill="none" stroke="black" d="M608.47,-37C637.23,-37 679.22,-37 711.41,-37"/>
<polygon fill="black" stroke="black" points="711.27,-40.5 721.27,-37 711.27,-33.5 711.27,-40.5"/>
<text xml:space="preserve" text-anchor="middle" x="665.62" y="-39.15" font-family="Times,serif" font-size="8.00"> &#160;decreasing bandwidth &#160;</text>
</g>
<!-- I2C -->
<g id="node6" class="node">
<title>I2C</title>
<polygon fill="#ffe699" stroke="black" points="983.75,-57.88 910,-57.88 910,-16.12 983.75,-16.12 983.75,-57.88"/>
<text xml:space="preserve" text-anchor="middle" x="946.88" y="-44.38" font-family="Times,serif" font-size="10.00">I2C</text>
<text xml:space="preserve" text-anchor="middle" x="946.88" y="-33.12" font-family="Times,serif" font-size="10.00">4 Mb/s</text>
<text xml:space="preserve" text-anchor="middle" x="946.88" y="-21.88" font-family="Times,serif" font-size="10.00">Sensors / IMU</text>
</g>
<!-- SPI&#45;&gt;I2C -->
<g id="edge5" class="edge">
<title>SPI&#45;&gt;I2C</title>
<path fill="none" stroke="black" d="M795.5,-37C824.66,-37 866.28,-37 898.34,-37"/>
<polygon fill="black" stroke="black" points="898.17,-40.5 908.17,-37 898.17,-33.5 898.17,-40.5"/>
<text xml:space="preserve" text-anchor="middle" x="852.62" y="-39.15" font-family="Times,serif" font-size="8.00"> &#160;decreasing bandwidth &#160;</text>
</g>
<!-- UART -->
<g id="node7" class="node">
<title>UART</title>
<polygon fill="#fff2cc" stroke="black" points="1176,-57.88 1098.5,-57.88 1098.5,-16.12 1176,-16.12 1176,-57.88"/>
<text xml:space="preserve" text-anchor="middle" x="1137.25" y="-44.38" font-family="Times,serif" font-size="10.00">UART</text>
<text xml:space="preserve" text-anchor="middle" x="1137.25" y="-33.12" font-family="Times,serif" font-size="10.00">115 kb/s</text>
<text xml:space="preserve" text-anchor="middle" x="1137.25" y="-21.88" font-family="Times,serif" font-size="10.00">Debug console</text>
</g>
<!-- I2C&#45;&gt;UART -->
<g id="edge6" class="edge">
<title>I2C&#45;&gt;UART</title>
<path fill="none" stroke="black" d="M984.2,-37C1013.33,-37 1054.53,-37 1086.7,-37"/>
<polygon fill="black" stroke="black" points="1086.59,-40.5 1096.59,-37 1086.59,-33.5 1086.59,-40.5"/>
<text xml:space="preserve" text-anchor="middle" x="1041.12" y="-39.15" font-family="Times,serif" font-size="8.00"> &#160;decreasing bandwidth &#160;</text>
</g>
</g>
</svg>
