<?xml version="1.0" encoding="UTF-8" standalone="no"?>
<!DOCTYPE svg PUBLIC "-//W3C//DTD SVG 1.1//EN"
 "http://www.w3.org/Graphics/SVG/1.1/DTD/svg11.dtd">
<!-- Generated by graphviz version 14.1.4 (20260321.0153)
 -->
<!-- Title: ResetSources Pages: 1 -->
<svg width="1049pt" height="242pt"
 viewBox="0.00 0.00 1049.00 242.00" xmlns="http://www.w3.org/2000/svg" xmlns:xlink="http://www.w3.org/1999/xlink">
<g id="graph0" class="graph" transform="scale(1 1) rotate(0) translate(4 237.73)">
<title>ResetSources</title>
<polygon fill="white" stroke="none" points="-4,4 -4,-237.73 1044.62,-237.73 1044.62,4 -4,4"/>
<!-- POR -->
<g id="node1" class="node">
<title>POR</title>
<polygon fill="none" stroke="black" points="206.5,-233.73 0,-233.73 0,-189.73 206.5,-189.73 206.5,-233.73"/>
<text xml:space="preserve" text-anchor="middle" x="103.25" y="-219.28" font-family="Helvetica,sans-Serif" font-size="11.00">Power&#45;On Reset</text>
<text xml:space="preserve" text-anchor="middle" x="103.25" y="-207.28" font-family="Helvetica,sans-Serif" font-size="11.00">(POR)</text>
<text xml:space="preserve" text-anchor="middle" x="103.25" y="-195.28" font-family="Helvetica,sans-Serif" font-size="11.00">Voltage monitor triggers on supply ramp</text>
</g>
<!-- RST_CTRL -->
<g id="node6" class="node">
<title>RST_CTRL</title>
<ellipse fill="none" stroke="black" cx="553.25" cy="-112.86" rx="97.76" ry="31.11"/>
<text xml:space="preserve" text-anchor="middle" x="553.25" y="-120.41" font-family="Helvetica,sans-Serif" font-size="11.00">Reset Controller</text>
<text xml:space="preserve" text-anchor="middle" x="553.25" y="-108.41" font-family="Helvetica,sans-Serif" font-size="11.00">(synchronises, prioritises,</text>
<text xml:space="preserve" text-anchor="middle" x="553.25" y="-96.41" font-family="Helvetica,sans-Serif" font-size="11.00">generates domain resets)</text>
</g>
<!-- POR&#45;&gt;RST_CTRL -->
<g id="edge1" class="edge">
<title>POR&#45;&gt;RST_CTRL</title>
<path fill="none" stroke="black" d="M203.12,-189.23C280.61,-172.55 387.14,-149.62 462.29,-133.44"/>
<polygon fill="black" stroke="black" points="462.62,-136.95 471.66,-131.43 461.15,-130.11 462.62,-136.95"/>
<text xml:space="preserve" text-anchor="middle" x="355.62" y="-163.18" font-family="Helvetica,sans-Serif" font-size="9.00">POR_RESET</text>
</g>
<!-- WDT -->
<g id="node2" class="node">
<title>WDT</title>
<polygon fill="none" stroke="black" points="428.38,-229.73 224.12,-229.73 224.12,-193.73 428.38,-193.73 428.38,-229.73"/>
<text xml:space="preserve" text-anchor="middle" x="326.25" y="-213.28" font-family="Helvetica,sans-Serif" font-size="11.00">Watchdog Timer Reset</text>
<text xml:space="preserve" text-anchor="middle" x="326.25" y="-201.28" font-family="Helvetica,sans-Serif" font-size="11.00">Firmware heartbeat missed &#45;&gt; full reset</text>
</g>
<!-- WDT&#45;&gt;RST_CTRL -->
<g id="edge2" class="edge">
<title>WDT&#45;&gt;RST_CTRL</title>
<path fill="none" stroke="black" d="M367.1,-193.3C400.02,-179.25 447.02,-159.19 485.56,-142.75"/>
<polygon fill="black" stroke="black" points="486.45,-146.17 494.28,-139.03 483.7,-139.73 486.45,-146.17"/>
<text xml:space="preserve" text-anchor="middle" x="467.5" y="-163.18" font-family="Helvetica,sans-Serif" font-size="9.00">WDT_RESET</text>
</g>
<!-- PMIC -->
<g id="node3" class="node">
<title>PMIC</title>
<polygon fill="none" stroke="black" points="660.25,-229.73 446.25,-229.73 446.25,-193.73 660.25,-193.73 660.25,-229.73"/>
<text xml:space="preserve" text-anchor="middle" x="553.25" y="-213.28" font-family="Helvetica,sans-Serif" font-size="11.00">External PMIC Reset</text>
<text xml:space="preserve" text-anchor="middle" x="553.25" y="-201.28" font-family="Helvetica,sans-Serif" font-size="11.00">Power management IC asserts RESETN</text>
</g>
<!-- PMIC&#45;&gt;RST_CTRL -->
<g id="edge3" class="edge">
<title>PMIC&#45;&gt;RST_CTRL</title>
<path fill="none" stroke="black" d="M553.25,-193.41C553.25,-182.89 553.25,-168.97 553.25,-155.72"/>
<polygon fill="black" stroke="black" points="556.75,-155.86 553.25,-145.86 549.75,-155.86 556.75,-155.86"/>
<text xml:space="preserve" text-anchor="middle" x="585.12" y="-163.18" font-family="Helvetica,sans-Serif" font-size="9.00">CHIP_RESETN</text>
</g>
<!-- SW -->
<g id="node4" class="node">
<title>SW</title>
<polygon fill="none" stroke="black" points="831.88,-229.73 678.62,-229.73 678.62,-193.73 831.88,-193.73 831.88,-229.73"/>
<text xml:space="preserve" text-anchor="middle" x="755.25" y="-213.28" font-family="Helvetica,sans-Serif" font-size="11.00">Software Reset</text>
<text xml:space="preserve" text-anchor="middle" x="755.25" y="-201.28" font-family="Helvetica,sans-Serif" font-size="11.00">Write to SYS_CTRL register</text>
</g>
<!-- SW&#45;&gt;RST_CTRL -->
<g id="edge4" class="edge">
<title>SW&#45;&gt;RST_CTRL</title>
<path fill="none" stroke="black" d="M719.14,-193.41C690.75,-179.8 650.51,-160.5 616.77,-144.32"/>
<polygon fill="black" stroke="black" points="618.42,-141.23 607.89,-140.07 615.4,-147.55 618.42,-141.23"/>
<text xml:space="preserve" text-anchor="middle" x="697.09" y="-163.18" font-family="Helvetica,sans-Serif" font-size="9.00">SW_RESET</text>
</g>
<!-- DEBUG -->
<g id="node5" class="node">
<title>DEBUG</title>
<polygon fill="none" stroke="black" points="1040.62,-229.73 849.88,-229.73 849.88,-193.73 1040.62,-193.73 1040.62,-229.73"/>
<text xml:space="preserve" text-anchor="middle" x="945.25" y="-213.28" font-family="Helvetica,sans-Serif" font-size="11.00">Debug Reset</text>
<text xml:space="preserve" text-anchor="middle" x="945.25" y="-201.28" font-family="Helvetica,sans-Serif" font-size="11.00">JTAG controller asserts system reset</text>
</g>
<!-- DEBUG&#45;&gt;RST_CTRL -->
<g id="edge5" class="edge">
<title>DEBUG&#45;&gt;RST_CTRL</title>
<path fill="none" stroke="black" d="M874.72,-193.3C809.12,-177.09 711.18,-152.89 640.65,-135.46"/>
<polygon fill="black" stroke="black" points="641.6,-132.09 631.05,-133.09 639.92,-138.88 641.6,-132.09"/>
<text xml:space="preserve" text-anchor="middle" x="811.74" y="-163.18" font-family="Helvetica,sans-Serif" font-size="9.00">DBG_RESET</text>
</g>
<!-- CPU_RST -->
<g id="node7" class="node">
<title>CPU_RST</title>
<polygon fill="none" stroke="black" points="397.5,-36 299,-36 299,0 397.5,0 397.5,-36"/>
<text xml:space="preserve" text-anchor="middle" x="348.25" y="-13.55" font-family="Helvetica,sans-Serif" font-size="11.00">CPU Core Reset</text>
</g>
<!-- RST_CTRL&#45;&gt;CPU_RST -->
<g id="edge6" class="edge">
<title>RST_CTRL&#45;&gt;CPU_RST</title>
<path fill="none" stroke="black" d="M498.04,-86.86C466.54,-72.58 427.4,-54.85 397.03,-41.09"/>
<polygon fill="black" stroke="black" points="398.61,-37.97 388.05,-37.03 395.72,-44.35 398.61,-37.97"/>
<text xml:space="preserve" text-anchor="middle" x="467.48" y="-55.2" font-family="Helvetica,sans-Serif" font-size="9.00">cpu_resetn</text>
</g>
<!-- BUS_RST -->
<g id="node8" class="node">
<title>BUS_RST</title>
<polygon fill="none" stroke="black" points="554.75,-36 415.75,-36 415.75,0 554.75,0 554.75,-36"/>
<text xml:space="preserve" text-anchor="middle" x="485.25" y="-13.55" font-family="Helvetica,sans-Serif" font-size="11.00">Bus &amp; Interconnect Reset</text>
</g>
<!-- RST_CTRL&#45;&gt;BUS_RST -->
<g id="edge7" class="edge">
<title>RST_CTRL&#45;&gt;BUS_RST</title>
<path fill="none" stroke="black" d="M531.55,-82.23C522.92,-70.45 513.08,-57 504.69,-45.55"/>
<polygon fill="black" stroke="black" points="507.68,-43.7 498.94,-37.7 502.03,-47.84 507.68,-43.7"/>
<text xml:space="preserve" text-anchor="middle" x="540.09" y="-55.2" font-family="Helvetica,sans-Serif" font-size="9.00">bus_resetn</text>
</g>
<!-- PERIPH_RST -->
<g id="node9" class="node">
<title>PERIPH_RST</title>
<polygon fill="none" stroke="black" points="669.75,-36 572.75,-36 572.75,0 669.75,0 669.75,-36"/>
<text xml:space="preserve" text-anchor="middle" x="621.25" y="-13.55" font-family="Helvetica,sans-Serif" font-size="11.00">Peripheral Reset</text>
</g>
<!-- RST_CTRL&#45;&gt;PERIPH_RST -->
<g id="edge8" class="edge">
<title>RST_CTRL&#45;&gt;PERIPH_RST</title>
<path fill="none" stroke="black" d="M574.95,-82.23C583.58,-70.45 593.42,-57 601.81,-45.55"/>
<polygon fill="black" stroke="black" points="604.47,-47.84 607.56,-37.7 598.82,-43.7 604.47,-47.84"/>
<text xml:space="preserve" text-anchor="middle" x="623.84" y="-55.2" font-family="Helvetica,sans-Serif" font-size="9.00">periph_resetn</text>
</g>
<!-- ALWAYS_ON -->
<g id="node10" class="node">
<title>ALWAYS_ON</title>
<polygon fill="none" stroke="black" points="854.25,-36 688.25,-36 688.25,0 854.25,0 854.25,-36"/>
<text xml:space="preserve" text-anchor="middle" x="771.25" y="-19.55" font-family="Helvetica,sans-Serif" font-size="11.00">Always&#45;On Domain</text>
<text xml:space="preserve" text-anchor="middle" x="771.25" y="-7.55" font-family="Helvetica,sans-Serif" font-size="11.00">(RTC, PMU, power sequencer)</text>
</g>
<!-- RST_CTRL&#45;&gt;ALWAYS_ON -->
<g id="edge9" class="edge">
<title>RST_CTRL&#45;&gt;ALWAYS_ON</title>
<path fill="none" stroke="black" d="M610.81,-87.34C644.73,-72.89 687.28,-54.77 720.03,-40.82"/>
<polygon fill="black" stroke="black" points="721.08,-44.18 728.9,-37.04 718.33,-37.74 721.08,-44.18"/>
<text xml:space="preserve" text-anchor="middle" x="753.06" y="-55.2" font-family="Helvetica,sans-Serif" font-size="9.00">por_resetn (never to always&#45;on)</text>
</g>
</g>
</svg>
