<?xml version="1.0" encoding="UTF-8" standalone="no"?>
<!DOCTYPE svg PUBLIC "-//W3C//DTD SVG 1.1//EN"
 "http://www.w3.org/Graphics/SVG/1.1/DTD/svg11.dtd">
<!-- Generated by graphviz version 14.1.2 (20260124.0452)
 -->
<!-- Title: fsm Pages: 1 -->
<svg width="325pt" height="142pt"
 viewBox="0.00 0.00 325.00 142.00" xmlns="http://www.w3.org/2000/svg" xmlns:xlink="http://www.w3.org/1999/xlink">
<g id="graph0" class="graph" transform="scale(1 1) rotate(0) translate(4 138.02)">
<title>fsm</title>
<polygon fill="white" stroke="none" points="-4,4 -4,-138.02 320.53,-138.02 320.53,4 -4,4"/>
<!-- Idle -->
<g id="node1" class="node">
<title>Idle</title>
<ellipse fill="none" stroke="black" cx="25.25" cy="-51.37" rx="25.25" ry="25.25"/>
<text xml:space="preserve" text-anchor="middle" x="25.25" y="-46.32" font-family="Times,serif" font-size="14.00">Idle</text>
</g>
<!-- Running -->
<g id="node2" class="node">
<title>Running</title>
<ellipse fill="none" stroke="black" cx="152.4" cy="-91.37" rx="42.65" ry="42.65"/>
<text xml:space="preserve" text-anchor="middle" x="152.4" y="-86.32" font-family="Times,serif" font-size="14.00">Running</text>
</g>
<!-- Idle&#45;&gt;Running -->
<g id="edge1" class="edge">
<title>Idle&#45;&gt;Running</title>
<path fill="none" stroke="black" d="M48.82,-61.69C55.12,-64.38 62.01,-67.14 68.5,-69.37 78.43,-72.78 89.17,-75.98 99.54,-78.83"/>
<polygon fill="black" stroke="black" points="98.54,-82.19 109.11,-81.38 100.35,-75.42 98.54,-82.19"/>
<text xml:space="preserve" text-anchor="middle" x="80.12" y="-79.61" font-family="Times,serif" font-size="14.00">start</text>
</g>
<!-- Running&#45;&gt;Idle -->
<g id="edge2" class="edge">
<title>Running&#45;&gt;Idle</title>
<path fill="none" stroke="black" d="M119.64,-63.34C111.13,-57.41 101.56,-52 91.75,-48.87 82.24,-45.83 71.57,-45.16 61.63,-45.6"/>
<polygon fill="black" stroke="black" points="61.61,-42.09 51.94,-46.43 62.2,-49.07 61.61,-42.09"/>
<text xml:space="preserve" text-anchor="middle" x="80.12" y="-52.07" font-family="Times,serif" font-size="14.00">stop</text>
</g>
<!-- Error -->
<g id="node3" class="node">
<title>Error</title>
<ellipse fill="none" stroke="black" cx="286.17" cy="-30.37" rx="30.37" ry="30.37"/>
<text xml:space="preserve" text-anchor="middle" x="286.17" y="-25.32" font-family="Times,serif" font-size="14.00">Error</text>
</g>
<!-- Running&#45;&gt;Error -->
<g id="edge3" class="edge">
<title>Running&#45;&gt;Error</title>
<path fill="none" stroke="black" d="M191.51,-73.72C209.14,-65.56 230.01,-55.9 247.57,-47.77"/>
<polygon fill="black" stroke="black" points="249.04,-50.95 256.64,-43.57 246.1,-44.6 249.04,-50.95"/>
<text xml:space="preserve" text-anchor="middle" x="225.42" y="-65.9" font-family="Times,serif" font-size="14.00">fault</text>
</g>
<!-- Error&#45;&gt;Idle -->
<g id="edge4" class="edge">
<title>Error&#45;&gt;Idle</title>
<path fill="none" stroke="black" d="M255.77,-25.44C220.74,-20.4 160.57,-14.43 109.75,-22.87 92.6,-25.71 74.25,-31.63 59.14,-37.35"/>
<polygon fill="black" stroke="black" points="58.2,-33.95 50.17,-40.87 60.76,-40.47 58.2,-33.95"/>
<text xml:space="preserve" text-anchor="middle" x="152.4" y="-26.07" font-family="Times,serif" font-size="14.00">reset</text>
</g>
</g>
</svg>
