<?xml version="1.0" encoding="UTF-8" standalone="no"?>
<!DOCTYPE svg PUBLIC "-//W3C//DTD SVG 1.1//EN"
 "http://www.w3.org/Graphics/SVG/1.1/DTD/svg11.dtd">
<!-- Generated by graphviz version 2.42.4 (0)
 -->
<!-- Title: AbstractionLevels Pages: 1 -->
<svg width="297pt" height="274pt"
 viewBox="0.00 0.00 296.50 274.00" xmlns="http://www.w3.org/2000/svg" xmlns:xlink="http://www.w3.org/1999/xlink">
<g id="graph0" class="graph" transform="scale(1 1) rotate(0) translate(4 270)">
<title>AbstractionLevels</title>
<polygon fill="white" stroke="transparent" points="-4,4 -4,-270 292.5,-270 292.5,4 -4,4"/>
<text text-anchor="middle" x="144.25" y="-251.6" font-family="Times,serif" font-size="13.00">HDL Abstraction Levels</text>
<!-- structural -->
<g id="node1" class="node">
<title>structural</title>
<polygon fill="#4472c4" stroke="black" points="257,-244 0,-244 0,-192 257,-192 257,-244"/>
<text text-anchor="middle" x="128.5" y="-232" font-family="Times,serif" font-size="10.00" fill="white">Structural</text>
<text text-anchor="middle" x="128.5" y="-221" font-family="Times,serif" font-size="10.00" fill="white">Instantiate specific gates and wires.</text>
<text text-anchor="middle" x="128.5" y="-210" font-family="Times,serif" font-size="10.00" fill="white">Like drawing a schematic in code.</text>
<text text-anchor="middle" x="128.5" y="-199" font-family="Times,serif" font-size="10.00" fill="white">Used for top&#45;level integration and cell libraries.</text>
</g>
<!-- behavioural -->
<g id="node2" class="node">
<title>behavioural</title>
<polygon fill="#70ad47" stroke="black" points="245,-141 12,-141 12,-89 245,-89 245,-141"/>
<text text-anchor="middle" x="128.5" y="-129" font-family="Times,serif" font-size="10.00">Behavioural</text>
<text text-anchor="middle" x="128.5" y="-118" font-family="Times,serif" font-size="10.00">Describe WHAT the circuit does, not HOW.</text>
<text text-anchor="middle" x="128.5" y="-107" font-family="Times,serif" font-size="10.00">Synthesis tool infers the gates.</text>
<text text-anchor="middle" x="128.5" y="-96" font-family="Times,serif" font-size="10.00">High abstraction, less control.</text>
</g>
<!-- structural&#45;&gt;behavioural -->
<g id="edge1" class="edge">
<title>structural&#45;&gt;behavioural</title>
<path fill="none" stroke="black" stroke-dasharray="5,2" d="M128.5,-191.77C128.5,-179.6 128.5,-164.79 128.5,-151.5"/>
<polygon fill="black" stroke="black" points="132,-151.25 128.5,-141.25 125,-151.25 132,-151.25"/>
<text text-anchor="middle" x="208.5" y="-162.8" font-family="Times,serif" font-size="14.00">increasing abstraction</text>
</g>
<!-- rtl -->
<g id="node3" class="node">
<title>rtl</title>
<polygon fill="#ffd966" stroke="black" points="255.5,-52 1.5,-52 1.5,0 255.5,0 255.5,-52"/>
<text text-anchor="middle" x="128.5" y="-40" font-family="Times,serif" font-size="10.00">RTL (Register Transfer Level)</text>
<text text-anchor="middle" x="128.5" y="-29" font-family="Times,serif" font-size="10.00">Describe data movements between registers</text>
<text text-anchor="middle" x="128.5" y="-18" font-family="Times,serif" font-size="10.00">with explicit clock edges.</text>
<text text-anchor="middle" x="128.5" y="-7" font-family="Times,serif" font-size="10.00">Sweet spot for SoC design &#45;&#45; what teams write.</text>
</g>
<!-- behavioural&#45;&gt;rtl -->
<!-- rtl&#45;&gt;behavioural -->
</g>
</svg>
