<svg xmlns="http://www.w3.org/2000/svg" width="260" height="300"><rect x="0" y="0" width="260" height="300" fill="#ffffff"/><rect x="40" y="70" width="200" height="6" fill="#333333"/><line x1="40" y1="110" x2="240" y2="110" stroke="#666666" stroke-width="1"/><line x1="40" y1="150" x2="240" y2="150" stroke="#666666" stroke-width="1"/><line x1="40" y1="190" x2="240" y2="190" stroke="#666666" stroke-width="1"/><line x1="40" y1="230" x2="240" y2="230" stroke="#666666" stroke-width="1"/><line x1="40" y1="270" x2="240" y2="270" stroke="#666666" stroke-width="1"/><line x1="40" y1="70" x2="40" y2="270" stroke="#333333" stroke-width="3"/><line x1="80" y1="70" x2="80" y2="270" stroke="#333333" stroke-width="2.7"/><line x1="120" y1="70" x2="120" y2="270" stroke="#333333" stroke-width="2.4"/><line x1="160" y1="70" x2="160" y2="270" stroke="#333333" stroke-width="2.1"/><line x1="200" y1="70" x2="200" y2="270" stroke="#333333" stroke-width="1.8"/><line x1="240" y1="70" x2="240" y2="270" stroke="#333333" stroke-width="1.5"/><text x="130" y="24" text-anchor="middle" dominant-baseline="auto" fill="#333333" font-family="Helvetica, Arial, sans-serif" font-size="14" font-weight="bold">F Major (barre)</text><rect x="40" y="78" width="200" height="24" rx="12" ry="12" fill="#333333"/><circle cx="40" cy="90" r="12" fill="#e63c3c"/><text x="40" y="90" text-anchor="middle" dominant-baseline="middle" fill="#ffffff" font-family="Helvetica, Arial, sans-serif" font-size="11">1</text><circle cx="80" cy="90" r="12" fill="#333333"/><text x="80" y="90" text-anchor="middle" dominant-baseline="middle" fill="#ffffff" font-family="Helvetica, Arial, sans-serif" font-size="11">1</text><circle cx="120" cy="130" r="12" fill="#333333"/><text x="120" y="130" text-anchor="middle" dominant-baseline="middle" fill="#ffffff" font-family="Helvetica, Arial, sans-serif" font-size="11">2</text><circle cx="160" cy="170" r="12" fill="#333333"/><text x="160" y="170" text-anchor="middle" dominant-baseline="middle" fill="#ffffff" font-family="Helvetica, Arial, sans-serif" font-size="11">3</text><circle cx="200" cy="170" r="12" fill="#333333"/><text x="200" y="170" text-anchor="middle" dominant-baseline="middle" fill="#ffffff" font-family="Helvetica, Arial, sans-serif" font-size="11">4</text><circle cx="240" cy="90" r="12" fill="#e63c3c"/><text x="240" y="90" text-anchor="middle" dominant-baseline="middle" fill="#ffffff" font-family="Helvetica, Arial, sans-serif" font-size="11">1</text></svg>
