<svg xmlns="http://www.w3.org/2000/svg" width="180" height="300"><rect x="0" y="0" width="180" height="300" fill="#ffffff"/><rect x="40" y="70" width="120" height="6" fill="#333333"/><line x1="40" y1="110" x2="160" y2="110" stroke="#666666" stroke-width="1"/><line x1="40" y1="150" x2="160" y2="150" stroke="#666666" stroke-width="1"/><line x1="40" y1="190" x2="160" y2="190" stroke="#666666" stroke-width="1"/><line x1="40" y1="230" x2="160" y2="230" stroke="#666666" stroke-width="1"/><line x1="40" y1="270" x2="160" y2="270" stroke="#666666" stroke-width="1"/><line x1="40" y1="70" x2="40" y2="270" stroke="#333333" stroke-width="1.5"/><line x1="80" y1="70" x2="80" y2="270" stroke="#333333" stroke-width="3"/><line x1="120" y1="70" x2="120" y2="270" stroke="#333333" stroke-width="2.25"/><line x1="160" y1="70" x2="160" y2="270" stroke="#333333" stroke-width="1.5"/><text x="90" y="24" text-anchor="middle" dominant-baseline="auto" fill="#333333" font-family="Helvetica, Arial, sans-serif" font-size="14" font-weight="bold">C</text><circle cx="40" cy="52" r="8" fill="none" stroke="#333333" stroke-width="1.5"/><circle cx="80" cy="52" r="8" fill="none" stroke="#333333" stroke-width="1.5"/><circle cx="120" cy="52" r="8" fill="none" stroke="#333333" stroke-width="1.5"/><circle cx="160" cy="170" r="12" fill="#333333"/><text x="160" y="170" text-anchor="middle" dominant-baseline="middle" fill="#ffffff" font-family="Helvetica, Arial, sans-serif" font-size="11">3</text></svg>
