<?xml version="1.0" encoding="UTF-8" standalone="no"?>
<!DOCTYPE svg PUBLIC "-//W3C//DTD SVG 1.1//EN"
 "http://www.w3.org/Graphics/SVG/1.1/DTD/svg11.dtd">
<!-- Generated by graphviz version 15.1.1 (20260805.0921)
 -->
<!-- Title: Loop Pages: 1 -->
<svg width="180pt" height="44pt"
 viewBox="0.00 0.00 180.00 44.00" xmlns="http://www.w3.org/2000/svg" xmlns:xlink="http://www.w3.org/1999/xlink">
<g id="graph0" class="graph" transform="scale(1 1) rotate(0) translate(4 40)">
<title>Loop</title>
<polygon fill="white" stroke="none" points="-4,4 -4,-40 176.25,-40 176.25,4 -4,4"/>
<!-- A -->
<g id="node1" class="node">
<title>A</title>
<path fill="none" stroke="black" d="M49.75,-36C49.75,-36 12,-36 12,-36 6,-36 0,-30 0,-24 0,-24 0,-12 0,-12 0,-6 6,0 12,0 12,0 49.75,0 49.75,0 55.75,0 61.75,-6 61.75,-12 61.75,-12 61.75,-24 61.75,-24 61.75,-30 55.75,-36 49.75,-36"/>
<text xml:space="preserve" text-anchor="middle" x="30.88" y="-13.55" font-family="Helvetica,sans-Serif" font-size="11.00">inverter A</text>
</g>
<!-- B -->
<g id="node2" class="node">
<title>B</title>
<path fill="none" stroke="black" d="M160.25,-36C160.25,-36 121.75,-36 121.75,-36 115.75,-36 109.75,-30 109.75,-24 109.75,-24 109.75,-12 109.75,-12 109.75,-6 115.75,0 121.75,0 121.75,0 160.25,0 160.25,0 166.25,0 172.25,-6 172.25,-12 172.25,-12 172.25,-24 172.25,-24 172.25,-30 166.25,-36 160.25,-36"/>
<text xml:space="preserve" text-anchor="middle" x="141" y="-13.55" font-family="Helvetica,sans-Serif" font-size="11.00">inverter B</text>
</g>
<!-- A&#45;&gt;B -->
<g id="edge1" class="edge">
<title>A&#45;&gt;B</title>
<path fill="none" stroke="black" d="M61.99,-18C73.17,-18 86.06,-18 98.09,-18"/>
<polygon fill="black" stroke="black" points="97.78,-21.5 107.78,-18 97.78,-14.5 97.78,-21.5"/>
<text xml:space="preserve" text-anchor="middle" x="85.75" y="-19.75" font-family="Helvetica,sans-Serif" font-size="10.00">V1</text>
</g>
<!-- B&#45;&gt;A -->
<g id="edge2" class="edge">
<title>B&#45;&gt;A</title>
<path fill="none" stroke="black" d="M109.27,-5.28C99.87,-2.73 89.45,-1.24 79.75,-2.75 77.58,-3.09 75.38,-3.5 73.17,-3.98"/>
<polygon fill="black" stroke="black" points="72.47,-0.55 63.65,-6.43 74.21,-7.33 72.47,-0.55"/>
<text xml:space="preserve" text-anchor="middle" x="85.75" y="-4.5" font-family="Helvetica,sans-Serif" font-size="10.00">V2</text>
</g>
</g>
</svg>
