<?xml version="1.0" encoding="UTF-8" standalone="no"?>
<!DOCTYPE svg PUBLIC "-//W3C//DTD SVG 1.1//EN"
 "http://www.w3.org/Graphics/SVG/1.1/DTD/svg11.dtd">
<!-- Generated by graphviz version 14.1.4 (20260321.0153)
 -->
<!-- Title: SPI Pages: 1 -->
<svg width="321pt" height="284pt"
 viewBox="0.00 0.00 321.00 284.00" xmlns="http://www.w3.org/2000/svg" xmlns:xlink="http://www.w3.org/1999/xlink">
<g id="graph0" class="graph" transform="scale(1 1) rotate(0) translate(4 280)">
<title>SPI</title>
<polygon fill="white" stroke="none" points="-4,4 -4,-280 317.12,-280 317.12,4 -4,4"/>
<text xml:space="preserve" text-anchor="middle" x="156.56" y="-6.65" font-family="Times,serif" font-size="13.00">SPI 4&#45;Wire Connection (Single Slave)</text>
<g id="clust1" class="cluster">
<title>cluster_master</title>
<polygon fill="lightblue" stroke="black" points="0,-31 0,-268 88,-268 88,-31 0,-31"/>
<text xml:space="preserve" text-anchor="middle" x="44" y="-251.65" font-family="Times,serif" font-size="13.00">SoC (Master)</text>
</g>
<g id="clust2" class="cluster">
<title>cluster_slave</title>
<polygon fill="lightyellow" stroke="black" points="210,-31 210,-268 306.25,-268 306.25,-31 210,-31"/>
<text xml:space="preserve" text-anchor="middle" x="258.12" y="-251.65" font-family="Times,serif" font-size="13.00">Device (Slave)</text>
</g>
<!-- m_sclk -->
<g id="node1" class="node">
<title>m_sclk</title>
<polygon fill="lightgrey" stroke="black" points="70.5,-237 16.5,-237 16.5,-201 70.5,-201 70.5,-237"/>
<text xml:space="preserve" text-anchor="middle" x="43.5" y="-215.12" font-family="Times,serif" font-size="10.00">SCLK</text>
</g>
<!-- s_sclk -->
<g id="node5" class="node">
<title>s_sclk</title>
<polygon fill="lightgrey" stroke="black" points="284.62,-237 230.62,-237 230.62,-201 284.62,-201 284.62,-237"/>
<text xml:space="preserve" text-anchor="middle" x="257.62" y="-215.12" font-family="Times,serif" font-size="10.00">SCLK</text>
</g>
<!-- m_sclk&#45;&gt;s_sclk -->
<g id="edge1" class="edge">
<title>m_sclk&#45;&gt;s_sclk</title>
<path fill="none" stroke="black" d="M70.94,-219C108.19,-219 176.34,-219 218.91,-219"/>
<polygon fill="black" stroke="black" points="218.68,-222.5 228.68,-219 218.68,-215.5 218.68,-222.5"/>
<text xml:space="preserve" text-anchor="middle" x="149" y="-222.2" font-family="Times,serif" font-size="14.00">Clock</text>
</g>
<!-- m_mosi -->
<g id="node2" class="node">
<title>m_mosi</title>
<polygon fill="lightgrey" stroke="black" points="70.5,-183 16.5,-183 16.5,-147 70.5,-147 70.5,-183"/>
<text xml:space="preserve" text-anchor="middle" x="43.5" y="-161.12" font-family="Times,serif" font-size="10.00">MOSI</text>
</g>
<!-- s_mosi -->
<g id="node6" class="node">
<title>s_mosi</title>
<polygon fill="lightgrey" stroke="black" points="290,-183 225.25,-183 225.25,-147 290,-147 290,-183"/>
<text xml:space="preserve" text-anchor="middle" x="257.62" y="-161.12" font-family="Times,serif" font-size="10.00">MOSI (SDI)</text>
</g>
<!-- m_mosi&#45;&gt;s_mosi -->
<g id="edge2" class="edge">
<title>m_mosi&#45;&gt;s_mosi</title>
<path fill="none" stroke="black" d="M70.94,-165C106.67,-165 170.82,-165 213.56,-165"/>
<polygon fill="black" stroke="black" points="213.5,-168.5 223.5,-165 213.5,-161.5 213.5,-168.5"/>
<text xml:space="preserve" text-anchor="middle" x="149" y="-168.2" font-family="Times,serif" font-size="14.00">Data out</text>
</g>
<!-- m_miso -->
<g id="node3" class="node">
<title>m_miso</title>
<polygon fill="lightgrey" stroke="black" points="70.5,-75 16.5,-75 16.5,-39 70.5,-39 70.5,-75"/>
<text xml:space="preserve" text-anchor="middle" x="43.5" y="-53.12" font-family="Times,serif" font-size="10.00">MISO</text>
</g>
<!-- m_cs -->
<g id="node4" class="node">
<title>m_cs</title>
<polygon fill="lightgrey" stroke="black" points="70.5,-129 16.5,-129 16.5,-93 70.5,-93 70.5,-129"/>
<text xml:space="preserve" text-anchor="middle" x="43.5" y="-107.12" font-family="Times,serif" font-size="10.00">CS</text>
</g>
<!-- s_cs -->
<g id="node8" class="node">
<title>s_cs</title>
<polygon fill="lightgrey" stroke="black" points="297.12,-129 218.12,-129 218.12,-93 297.12,-93 297.12,-129"/>
<text xml:space="preserve" text-anchor="middle" x="257.62" y="-107.12" font-family="Times,serif" font-size="10.00">CS (active low)</text>
</g>
<!-- m_cs&#45;&gt;s_cs -->
<g id="edge4" class="edge">
<title>m_cs&#45;&gt;s_cs</title>
<path fill="none" stroke="black" d="M70.94,-111C104.74,-111 163.98,-111 206.46,-111"/>
<polygon fill="black" stroke="black" points="206.45,-114.5 216.45,-111 206.45,-107.5 206.45,-114.5"/>
<text xml:space="preserve" text-anchor="middle" x="149" y="-114.2" font-family="Times,serif" font-size="14.00">Select (active low)</text>
</g>
<!-- s_miso -->
<g id="node7" class="node">
<title>s_miso</title>
<polygon fill="lightgrey" stroke="black" points="292.25,-75 223,-75 223,-39 292.25,-39 292.25,-75"/>
<text xml:space="preserve" text-anchor="middle" x="257.62" y="-53.12" font-family="Times,serif" font-size="10.00">MISO (SDO)</text>
</g>
<!-- s_miso&#45;&gt;m_miso -->
<g id="edge3" class="edge">
<title>s_miso&#45;&gt;m_miso</title>
<path fill="none" stroke="black" d="M222.84,-57C184.53,-57 122.21,-57 82.3,-57"/>
<polygon fill="black" stroke="black" points="82.45,-53.5 72.45,-57 82.45,-60.5 82.45,-53.5"/>
<text xml:space="preserve" text-anchor="middle" x="149" y="-60.2" font-family="Times,serif" font-size="14.00">Data in</text>
</g>
</g>
</svg>
