<?xml version="1.0" encoding="UTF-8" standalone="no"?>
<!DOCTYPE svg PUBLIC "-//W3C//DTD SVG 1.1//EN"
 "http://www.w3.org/Graphics/SVG/1.1/DTD/svg11.dtd">
<!-- Generated by graphviz version 14.1.4 (20260321.0153)
 -->
<!-- Title: DoorbellFlow Pages: 1 -->
<svg width="552pt" height="98pt"
 viewBox="0.00 0.00 552.00 98.00" xmlns="http://www.w3.org/2000/svg" xmlns:xlink="http://www.w3.org/1999/xlink">
<g id="graph0" class="graph" transform="scale(1 1) rotate(0) translate(4 94)">
<title>DoorbellFlow</title>
<polygon fill="white" stroke="none" points="-4,4 -4,-94 547.75,-94 547.75,4 -4,4"/>
<!-- ring -->
<g id="node1" class="node">
<title>ring</title>
<polygon fill="lightblue" stroke="black" points="54,-63 0,-63 0,-27 54,-27 54,-63"/>
<text xml:space="preserve" text-anchor="middle" x="27" y="-46.75" font-family="Times,serif" font-size="10.00">Doorbell</text>
<text xml:space="preserve" text-anchor="middle" x="27" y="-35.5" font-family="Times,serif" font-size="10.00">Pressed</text>
</g>
<!-- notify -->
<g id="node2" class="node">
<title>notify</title>
<polygon fill="lightyellow" stroke="black" points="157.25,-65.88 91,-65.88 91,-24.12 157.25,-24.12 157.25,-65.88"/>
<text xml:space="preserve" text-anchor="middle" x="124.12" y="-52.38" font-family="Times,serif" font-size="10.00">Send Push</text>
<text xml:space="preserve" text-anchor="middle" x="124.12" y="-41.12" font-family="Times,serif" font-size="10.00">Notification</text>
<text xml:space="preserve" text-anchor="middle" x="124.12" y="-29.88" font-family="Times,serif" font-size="10.00">+ snapshot</text>
</g>
<!-- ring&#45;&gt;notify -->
<g id="edge1" class="edge">
<title>ring&#45;&gt;notify</title>
<path fill="none" stroke="black" d="M54.5,-45C62.21,-45 70.84,-45 79.32,-45"/>
<polygon fill="black" stroke="black" points="79.16,-48.5 89.16,-45 79.16,-41.5 79.16,-48.5"/>
</g>
<!-- wait -->
<g id="node3" class="node">
<title>wait</title>
<polygon fill="#fff2cc" stroke="black" points="273.25,-86.75 194.25,-45 273.25,-3.25 352.25,-45 273.25,-86.75"/>
<text xml:space="preserve" text-anchor="middle" x="273.25" y="-52.38" font-family="Times,serif" font-size="10.00">Wait for</text>
<text xml:space="preserve" text-anchor="middle" x="273.25" y="-41.12" font-family="Times,serif" font-size="10.00">door open</text>
<text xml:space="preserve" text-anchor="middle" x="273.25" y="-29.88" font-family="Times,serif" font-size="10.00">(2 min timeout)</text>
</g>
<!-- notify&#45;&gt;wait -->
<g id="edge2" class="edge">
<title>notify&#45;&gt;wait</title>
<path fill="none" stroke="black" d="M157.41,-45C164.88,-45 173.19,-45 181.83,-45"/>
<polygon fill="black" stroke="black" points="181.81,-48.5 191.81,-45 181.81,-41.5 181.81,-48.5"/>
</g>
<!-- clear -->
<g id="node4" class="node">
<title>clear</title>
<polygon fill="#e2efda" stroke="black" points="532.88,-90 466.62,-90 466.62,-54 532.88,-54 532.88,-90"/>
<text xml:space="preserve" text-anchor="middle" x="499.75" y="-73.75" font-family="Times,serif" font-size="10.00">Clear</text>
<text xml:space="preserve" text-anchor="middle" x="499.75" y="-62.5" font-family="Times,serif" font-size="10.00">Notification</text>
</g>
<!-- wait&#45;&gt;clear -->
<g id="edge3" class="edge">
<title>wait&#45;&gt;clear</title>
<path fill="none" stroke="black" d="M338.58,-52.74C375.9,-57.23 421.92,-62.76 455.04,-66.74"/>
<polygon fill="black" stroke="black" points="454.34,-70.18 464.68,-67.9 455.17,-63.23 454.34,-70.18"/>
<text xml:space="preserve" text-anchor="middle" x="404" y="-67.22" font-family="Times,serif" font-size="14.00">door opened</text>
</g>
<!-- expire -->
<g id="node5" class="node">
<title>expire</title>
<polygon fill="lightgrey" stroke="black" points="543.75,-36 455.75,-36 455.75,0 543.75,0 543.75,-36"/>
<text xml:space="preserve" text-anchor="middle" x="499.75" y="-19.75" font-family="Times,serif" font-size="10.00">Notification</text>
<text xml:space="preserve" text-anchor="middle" x="499.75" y="-8.5" font-family="Times,serif" font-size="10.00">Expires Naturally</text>
</g>
<!-- wait&#45;&gt;expire -->
<g id="edge4" class="edge">
<title>wait&#45;&gt;expire</title>
<path fill="none" stroke="black" d="M338.58,-37.26C371.93,-33.25 412.23,-28.41 444.06,-24.58"/>
<polygon fill="black" stroke="black" points="444.36,-28.07 453.87,-23.4 443.53,-21.12 444.36,-28.07"/>
<text xml:space="preserve" text-anchor="middle" x="404" y="-36.32" font-family="Times,serif" font-size="14.00">timeout</text>
</g>
</g>
</svg>
