<?xml version="1.0" encoding="UTF-8" standalone="no"?>
<!DOCTYPE svg PUBLIC "-//W3C//DTD SVG 1.1//EN"
 "http://www.w3.org/Graphics/SVG/1.1/DTD/svg11.dtd">
<!-- Generated by graphviz version 15.1.1 (20260805.0921)
 -->
<!-- Title: MultiCycleUnit Pages: 1 -->
<svg width="340pt" height="125pt"
 viewBox="0.00 0.00 340.00 125.00" xmlns="http://www.w3.org/2000/svg" xmlns:xlink="http://www.w3.org/1999/xlink">
<g id="graph0" class="graph" transform="scale(1 1) rotate(0) translate(4 121)">
<title>MultiCycleUnit</title>
<polygon fill="white" stroke="none" points="-4,4 -4,-121 336.26,-121 336.26,4 -4,4"/>
<!-- Idle -->
<g id="node1" class="node">
<title>Idle</title>
<ellipse fill="none" stroke="black" cx="18.79" cy="-48.47" rx="18.79" ry="18.79"/>
<text xml:space="preserve" text-anchor="middle" x="18.79" y="-44.59" font-family="Helvetica,sans-Serif" font-size="10.00">Idle</text>
</g>
<!-- Busy -->
<g id="node2" class="node">
<title>Busy</title>
<ellipse fill="none" stroke="black" cx="156.45" cy="-66.47" rx="22.78" ry="22.78"/>
<text xml:space="preserve" text-anchor="middle" x="156.45" y="-62.59" font-family="Helvetica,sans-Serif" font-size="10.00">Busy</text>
</g>
<!-- Idle&#45;&gt;Busy -->
<g id="edge1" class="edge">
<title>Idle&#45;&gt;Busy</title>
<path fill="none" stroke="black" d="M36.7,-54.53C42.6,-56.41 49.31,-58.3 55.57,-59.47 77.51,-63.55 102.55,-65.3 122.08,-66.03"/>
<polygon fill="black" stroke="black" points="121.83,-69.52 131.93,-66.32 122.04,-62.52 121.83,-69.52"/>
<text xml:space="preserve" text-anchor="middle" x="77.32" y="-65.77" font-family="Helvetica,sans-Serif" font-size="9.00">issue op</text>
</g>
<!-- Busy&#45;&gt;Idle -->
<g id="edge5" class="edge">
<title>Busy&#45;&gt;Idle</title>
<path fill="none" stroke="#e07820" d="M134.92,-58.36C124.39,-54.62 111.24,-50.61 99.07,-48.72 82.65,-46.17 64.09,-45.97 49.05,-46.47"/>
<polygon fill="#e07820" stroke="#e07820" points="49.2,-42.95 39.37,-46.92 49.52,-49.95 49.2,-42.95"/>
<text xml:space="preserve" text-anchor="middle" x="77.32" y="-49.92" font-family="Helvetica,sans-Serif" font-size="9.00" fill="#e07820">flush or kill</text>
</g>
<!-- Busy&#45;&gt;Busy -->
<g id="edge2" class="edge">
<title>Busy&#45;&gt;Busy</title>
<path fill="none" stroke="black" d="M143.07,-85.34C140.09,-96.63 144.55,-107.25 156.45,-107.25 164.07,-107.25 168.64,-102.89 170.15,-96.79"/>
<polygon fill="black" stroke="black" points="173.66,-96.75 169.87,-86.86 166.66,-96.95 173.66,-96.75"/>
<text xml:space="preserve" text-anchor="middle" x="156.45" y="-108.45" font-family="Helvetica,sans-Serif" font-size="9.00">cycles left &gt; 1</text>
</g>
<!-- Result -->
<g id="node3" class="node">
<title>Result</title>
<ellipse fill="none" stroke="#7b35c2" cx="300.79" cy="-31.47" rx="31.47" ry="31.47"/>
<text xml:space="preserve" text-anchor="middle" x="300.79" y="-33.22" font-family="Helvetica,sans-Serif" font-size="10.00" fill="#7b35c2">Result</text>
<text xml:space="preserve" text-anchor="middle" x="300.79" y="-21.97" font-family="Helvetica,sans-Serif" font-size="10.00" fill="#7b35c2">ready</text>
</g>
<!-- Busy&#45;&gt;Result -->
<g id="edge3" class="edge">
<title>Busy&#45;&gt;Result</title>
<path fill="none" stroke="black" d="M179.07,-61.15C200.14,-55.97 232.71,-47.96 258.71,-41.57"/>
<polygon fill="black" stroke="black" points="259.42,-45 268.29,-39.21 257.75,-38.2 259.42,-45"/>
<text xml:space="preserve" text-anchor="middle" x="232.57" y="-53.3" font-family="Helvetica,sans-Serif" font-size="9.00">last cycle</text>
</g>
<!-- Result&#45;&gt;Idle -->
<g id="edge4" class="edge">
<title>Result&#45;&gt;Idle</title>
<path fill="none" stroke="black" d="M269.28,-27.44C232.9,-23.3 170.33,-18.31 117.07,-24.72 93.49,-27.55 67.36,-34.13 48.13,-39.64"/>
<polygon fill="black" stroke="black" points="47.18,-36.27 38.58,-42.47 49.16,-42.99 47.18,-36.27"/>
<text xml:space="preserve" text-anchor="middle" x="156.45" y="-25.92" font-family="Helvetica,sans-Serif" font-size="9.00">writeback accepted</text>
</g>
</g>
</svg>
