<?xml version="1.0" encoding="UTF-8" standalone="no"?>
<!DOCTYPE svg PUBLIC "-//W3C//DTD SVG 1.1//EN"
 "http://www.w3.org/Graphics/SVG/1.1/DTD/svg11.dtd">
<!-- Generated by graphviz version 14.1.5 (20260411.2331)
 -->
<!-- Title: DesignFlow Pages: 1 -->
<svg width="234pt" height="616pt"
 viewBox="0.00 0.00 234.00 616.00" xmlns="http://www.w3.org/2000/svg" xmlns:xlink="http://www.w3.org/1999/xlink">
<g id="graph0" class="graph" transform="scale(1 1) rotate(0) translate(4 612.25)">
<title>DesignFlow</title>
<polygon fill="white" stroke="none" points="-4,4 -4,-612.25 230.12,-612.25 230.12,4 -4,4"/>
<!-- SPEC -->
<g id="node1" class="node">
<title>SPEC</title>
<path fill="none" stroke="black" d="M128.88,-608.25C128.88,-608.25 69.38,-608.25 69.38,-608.25 63.38,-608.25 57.38,-602.25 57.38,-596.25 57.38,-596.25 57.38,-584.25 57.38,-584.25 57.38,-578.25 63.38,-572.25 69.38,-572.25 69.38,-572.25 128.88,-572.25 128.88,-572.25 134.88,-572.25 140.88,-578.25 140.88,-584.25 140.88,-584.25 140.88,-596.25 140.88,-596.25 140.88,-602.25 134.88,-608.25 128.88,-608.25"/>
<text xml:space="preserve" text-anchor="middle" x="99.12" y="-591.8" font-family="Helvetica,sans-Serif" font-size="11.00">Specification</text>
<text xml:space="preserve" text-anchor="middle" x="99.12" y="-579.8" font-family="Helvetica,sans-Serif" font-size="11.00">&amp; Architecture</text>
</g>
<!-- RTL -->
<g id="node2" class="node">
<title>RTL</title>
<path fill="none" stroke="black" d="M123.62,-526.5C123.62,-526.5 74.62,-526.5 74.62,-526.5 68.62,-526.5 62.62,-520.5 62.62,-514.5 62.62,-514.5 62.62,-502.5 62.62,-502.5 62.62,-496.5 68.62,-490.5 74.62,-490.5 74.62,-490.5 123.62,-490.5 123.62,-490.5 129.62,-490.5 135.62,-496.5 135.62,-502.5 135.62,-502.5 135.62,-514.5 135.62,-514.5 135.62,-520.5 129.62,-526.5 123.62,-526.5"/>
<text xml:space="preserve" text-anchor="middle" x="99.12" y="-510.05" font-family="Helvetica,sans-Serif" font-size="11.00">RTL Design</text>
<text xml:space="preserve" text-anchor="middle" x="99.12" y="-498.05" font-family="Helvetica,sans-Serif" font-size="11.00">&amp; Lint</text>
</g>
<!-- SPEC&#45;&gt;RTL -->
<g id="edge1" class="edge">
<title>SPEC&#45;&gt;RTL</title>
<path fill="none" stroke="black" d="M99.12,-571.95C99.12,-562.02 99.12,-549.31 99.12,-537.95"/>
<polygon fill="black" stroke="black" points="102.63,-538.28 99.13,-528.28 95.63,-538.28 102.63,-538.28"/>
<text xml:space="preserve" text-anchor="middle" x="128" y="-545.7" font-family="Helvetica,sans-Serif" font-size="9.00">arch complete</text>
</g>
<!-- FVERI -->
<g id="node3" class="node">
<title>FVERI</title>
<path fill="none" stroke="black" d="M59.38,-444.75C59.38,-444.75 14.88,-444.75 14.88,-444.75 8.88,-444.75 2.88,-438.75 2.88,-432.75 2.88,-432.75 2.88,-420.75 2.88,-420.75 2.88,-414.75 8.88,-408.75 14.88,-408.75 14.88,-408.75 59.38,-408.75 59.38,-408.75 65.38,-408.75 71.38,-414.75 71.38,-420.75 71.38,-420.75 71.38,-432.75 71.38,-432.75 71.38,-438.75 65.38,-444.75 59.38,-444.75"/>
<text xml:space="preserve" text-anchor="middle" x="37.12" y="-428.3" font-family="Helvetica,sans-Serif" font-size="11.00">Functional</text>
<text xml:space="preserve" text-anchor="middle" x="37.12" y="-416.3" font-family="Helvetica,sans-Serif" font-size="11.00">Verification</text>
</g>
<!-- RTL&#45;&gt;FVERI -->
<g id="edge2" class="edge">
<title>RTL&#45;&gt;FVERI</title>
<path fill="none" stroke="black" d="M62.3,-495.66C51.66,-490.34 41.26,-482.85 35.12,-472.5 32.25,-467.65 31.17,-461.97 31.08,-456.3"/>
<polygon fill="black" stroke="black" points="34.56,-456.76 31.95,-446.5 27.58,-456.15 34.56,-456.76"/>
<text xml:space="preserve" text-anchor="middle" x="56.12" y="-463.95" font-family="Helvetica,sans-Serif" font-size="9.00">RTL ready</text>
</g>
<!-- FVERI&#45;&gt;RTL -->
<g id="edge4" class="edge">
<title>FVERI&#45;&gt;RTL</title>
<path fill="none" stroke="red" stroke-dasharray="5,2" d="M60.22,-445.22C66.2,-450.44 72.29,-456.45 77.12,-462.75 81.08,-467.9 84.6,-473.88 87.61,-479.75"/>
<polygon fill="red" stroke="red" points="84.37,-481.09 91.8,-488.64 90.7,-478.1 84.37,-481.09"/>
<text xml:space="preserve" text-anchor="middle" x="106.08" y="-463.95" font-family="Helvetica,sans-Serif" font-size="9.00">bugs found</text>
</g>
<!-- SYNTH -->
<g id="node4" class="node">
<title>SYNTH</title>
<path fill="none" stroke="black" d="M56.38,-363C56.38,-363 17.87,-363 17.87,-363 11.87,-363 5.88,-357 5.88,-351 5.88,-351 5.88,-339 5.88,-339 5.88,-333 11.88,-327 17.88,-327 17.88,-327 56.38,-327 56.38,-327 62.38,-327 68.38,-333 68.38,-339 68.38,-339 68.38,-351 68.38,-351 68.38,-357 62.38,-363 56.38,-363"/>
<text xml:space="preserve" text-anchor="middle" x="37.12" y="-340.55" font-family="Helvetica,sans-Serif" font-size="11.00">Synthesis</text>
</g>
<!-- FVERI&#45;&gt;SYNTH -->
<g id="edge3" class="edge">
<title>FVERI&#45;&gt;SYNTH</title>
<path fill="none" stroke="black" d="M37.12,-408.45C37.12,-398.52 37.12,-385.81 37.12,-374.45"/>
<polygon fill="black" stroke="black" points="40.63,-374.78 37.13,-364.78 33.63,-374.78 40.63,-374.78"/>
<text xml:space="preserve" text-anchor="middle" x="86.25" y="-382.2" font-family="Helvetica,sans-Serif" font-size="9.00">coverage &amp; bugs closed</text>
</g>
<!-- GVERI -->
<g id="node5" class="node">
<title>GVERI</title>
<path fill="none" stroke="black" d="M182.38,-281.25C182.38,-281.25 137.88,-281.25 137.88,-281.25 131.88,-281.25 125.88,-275.25 125.88,-269.25 125.88,-269.25 125.88,-257.25 125.88,-257.25 125.88,-251.25 131.88,-245.25 137.88,-245.25 137.88,-245.25 182.38,-245.25 182.38,-245.25 188.38,-245.25 194.38,-251.25 194.38,-257.25 194.38,-257.25 194.38,-269.25 194.38,-269.25 194.38,-275.25 188.38,-281.25 182.38,-281.25"/>
<text xml:space="preserve" text-anchor="middle" x="160.12" y="-264.8" font-family="Helvetica,sans-Serif" font-size="11.00">Gate&#45;Level</text>
<text xml:space="preserve" text-anchor="middle" x="160.12" y="-252.8" font-family="Helvetica,sans-Serif" font-size="11.00">Verification</text>
</g>
<!-- SYNTH&#45;&gt;GVERI -->
<g id="edge5" class="edge">
<title>SYNTH&#45;&gt;GVERI</title>
<path fill="none" stroke="black" d="M58.63,-326.66C69.72,-318.04 83.6,-307.68 96.62,-299.25 102.94,-295.16 109.78,-291.07 116.54,-287.21"/>
<polygon fill="black" stroke="black" points="117.98,-290.41 125,-282.47 114.57,-284.3 117.98,-290.41"/>
<text xml:space="preserve" text-anchor="middle" x="121.38" y="-300.45" font-family="Helvetica,sans-Serif" font-size="9.00">netlist ready</text>
</g>
<!-- GVERI&#45;&gt;RTL -->
<g id="edge7" class="edge">
<title>GVERI&#45;&gt;RTL</title>
<path fill="none" stroke="red" stroke-dasharray="5,2" d="M161.45,-281.75C163.51,-318.92 164.44,-407.66 133.12,-472.5 131.63,-475.6 129.74,-478.61 127.64,-481.46"/>
<polygon fill="red" stroke="red" points="125.16,-478.98 121.34,-488.86 130.49,-483.52 125.16,-478.98"/>
<text xml:space="preserve" text-anchor="middle" x="191.45" y="-382.2" font-family="Helvetica,sans-Serif" font-size="9.00">synthesis issues</text>
</g>
<!-- PD -->
<g id="node6" class="node">
<title>PD</title>
<path fill="none" stroke="black" d="M214.12,-199.5C214.12,-199.5 102.12,-199.5 102.12,-199.5 96.12,-199.5 90.12,-193.5 90.12,-187.5 90.12,-187.5 90.12,-175.5 90.12,-175.5 90.12,-169.5 96.12,-163.5 102.12,-163.5 102.12,-163.5 214.12,-163.5 214.12,-163.5 220.12,-163.5 226.12,-169.5 226.12,-175.5 226.12,-175.5 226.12,-187.5 226.12,-187.5 226.12,-193.5 220.12,-199.5 214.12,-199.5"/>
<text xml:space="preserve" text-anchor="middle" x="158.12" y="-183.05" font-family="Helvetica,sans-Serif" font-size="11.00">Physical Design</text>
<text xml:space="preserve" text-anchor="middle" x="158.12" y="-171.05" font-family="Helvetica,sans-Serif" font-size="11.00">(Floor/Place/CTS/Route)</text>
</g>
<!-- GVERI&#45;&gt;PD -->
<g id="edge6" class="edge">
<title>GVERI&#45;&gt;PD</title>
<path fill="none" stroke="black" d="M159.69,-244.95C159.44,-235.02 159.12,-222.31 158.84,-210.95"/>
<polygon fill="black" stroke="black" points="162.35,-211.19 158.6,-201.28 155.35,-211.37 162.35,-211.19"/>
<text xml:space="preserve" text-anchor="middle" x="187.37" y="-218.7" font-family="Helvetica,sans-Serif" font-size="9.00">gate sim pass</text>
</g>
<!-- SIGNOFF -->
<g id="node7" class="node">
<title>SIGNOFF</title>
<path fill="none" stroke="black" d="M126.25,-117.75C126.25,-117.75 12,-117.75 12,-117.75 6,-117.75 0,-111.75 0,-105.75 0,-105.75 0,-93.75 0,-93.75 0,-87.75 6,-81.75 12,-81.75 12,-81.75 126.25,-81.75 126.25,-81.75 132.25,-81.75 138.25,-87.75 138.25,-93.75 138.25,-93.75 138.25,-105.75 138.25,-105.75 138.25,-111.75 132.25,-117.75 126.25,-117.75"/>
<text xml:space="preserve" text-anchor="middle" x="69.12" y="-101.3" font-family="Helvetica,sans-Serif" font-size="11.00">Sign&#45;off</text>
<text xml:space="preserve" text-anchor="middle" x="69.12" y="-89.3" font-family="Helvetica,sans-Serif" font-size="11.00">(STA, DRC, LVS, Power)</text>
</g>
<!-- PD&#45;&gt;SIGNOFF -->
<g id="edge8" class="edge">
<title>PD&#45;&gt;SIGNOFF</title>
<path fill="none" stroke="black" d="M152.59,-163.2C149.02,-154.17 143.62,-143.43 136.12,-135.75 131.89,-131.41 126.99,-127.49 121.82,-123.99"/>
<polygon fill="black" stroke="black" points="123.92,-121.17 113.57,-118.92 120.26,-127.14 123.92,-121.17"/>
<text xml:space="preserve" text-anchor="middle" x="177.75" y="-136.95" font-family="Helvetica,sans-Serif" font-size="9.00">routing complete</text>
</g>
<!-- SIGNOFF&#45;&gt;SYNTH -->
<g id="edge11" class="edge">
<title>SIGNOFF&#45;&gt;SYNTH</title>
<path fill="none" stroke="red" stroke-dasharray="5,2" d="M61.16,-118.08C51.34,-140.47 35.21,-180.94 29.12,-217.5 23.57,-250.86 27.57,-289.75 31.65,-315.51"/>
<polygon fill="red" stroke="red" points="28.17,-315.93 33.3,-325.19 35.07,-314.75 28.17,-315.93"/>
<text xml:space="preserve" text-anchor="middle" x="92.12" y="-218.7" font-family="Helvetica,sans-Serif" font-size="9.00">critical path needs RTL change</text>
</g>
<!-- SIGNOFF&#45;&gt;PD -->
<g id="edge10" class="edge">
<title>SIGNOFF&#45;&gt;PD</title>
<path fill="none" stroke="red" stroke-dasharray="5,2" d="M63.18,-117.83C61.18,-126.8 60.64,-137.55 66.12,-145.5 69.98,-151.09 74.85,-155.78 80.33,-159.73"/>
<polygon fill="red" stroke="red" points="78.42,-162.66 88.77,-164.9 82.07,-156.69 78.42,-162.66"/>
<text xml:space="preserve" text-anchor="middle" x="99.12" y="-136.95" font-family="Helvetica,sans-Serif" font-size="9.00">timing/DRC fails</text>
</g>
<!-- TAPEOUT -->
<g id="node8" class="node">
<title>TAPEOUT</title>
<path fill="none" stroke="black" d="M92.5,-36C92.5,-36 45.75,-36 45.75,-36 39.75,-36 33.75,-30 33.75,-24 33.75,-24 33.75,-12 33.75,-12 33.75,-6 39.75,0 45.75,0 45.75,0 92.5,0 92.5,0 98.5,0 104.5,-6 104.5,-12 104.5,-12 104.5,-24 104.5,-24 104.5,-30 98.5,-36 92.5,-36"/>
<text xml:space="preserve" text-anchor="middle" x="69.12" y="-13.55" font-family="Helvetica,sans-Serif" font-size="11.00">TAPE&#45;OUT</text>
</g>
<!-- SIGNOFF&#45;&gt;TAPEOUT -->
<g id="edge9" class="edge">
<title>SIGNOFF&#45;&gt;TAPEOUT</title>
<path fill="none" stroke="black" d="M69.12,-81.45C69.12,-71.52 69.12,-58.81 69.12,-47.45"/>
<polygon fill="black" stroke="black" points="72.63,-47.78 69.13,-37.78 65.63,-47.78 72.63,-47.78"/>
<text xml:space="preserve" text-anchor="middle" x="100.25" y="-55.2" font-family="Helvetica,sans-Serif" font-size="9.00">all checks pass</text>
</g>
</g>
</svg>
