<?xml version="1.0" encoding="UTF-8" standalone="no"?>
<!DOCTYPE svg PUBLIC "-//W3C//DTD SVG 1.1//EN"
 "http://www.w3.org/Graphics/SVG/1.1/DTD/svg11.dtd">
<!-- Generated by graphviz version 14.1.4 (20260321.0153)
 -->
<!-- Title: Ethernet Pages: 1 -->
<svg width="577pt" height="142pt"
 viewBox="0.00 0.00 577.00 142.00" xmlns="http://www.w3.org/2000/svg" xmlns:xlink="http://www.w3.org/1999/xlink">
<g id="graph0" class="graph" transform="scale(1 1) rotate(0) translate(4 137.88)">
<title>Ethernet</title>
<polygon fill="white" stroke="none" points="-4,4 -4,-137.88 573.25,-137.88 573.25,4 -4,4"/>
<text xml:space="preserve" text-anchor="middle" x="284.62" y="-6.65" font-family="Times,serif" font-size="13.00">Ethernet Signal Path</text>
<!-- CPU -->
<g id="node1" class="node">
<title>CPU</title>
<polygon fill="lightblue" stroke="black" points="54,-89.88 0,-89.88 0,-53.88 54,-53.88 54,-89.88"/>
<text xml:space="preserve" text-anchor="middle" x="27" y="-68" font-family="Times,serif" font-size="10.00">CPU</text>
</g>
<!-- AXI -->
<g id="node2" class="node">
<title>AXI</title>
<polygon fill="lightblue" stroke="black" points="145,-89.88 91,-89.88 91,-53.88 145,-53.88 145,-89.88"/>
<text xml:space="preserve" text-anchor="middle" x="118" y="-68" font-family="Times,serif" font-size="10.00">AXI Bus</text>
</g>
<!-- CPU&#45;&gt;AXI -->
<g id="edge1" class="edge">
<title>CPU&#45;&gt;AXI</title>
<path fill="none" stroke="black" d="M54.22,-71.88C62.12,-71.88 70.94,-71.88 79.43,-71.88"/>
<polygon fill="black" stroke="black" points="79.14,-75.38 89.14,-71.88 79.14,-68.38 79.14,-75.38"/>
</g>
<!-- MAC -->
<g id="node3" class="node">
<title>MAC</title>
<polygon fill="lightblue" stroke="black" points="258,-89.88 182,-89.88 182,-53.88 258,-53.88 258,-89.88"/>
<text xml:space="preserve" text-anchor="middle" x="220" y="-73.62" font-family="Times,serif" font-size="10.00">Ethernet MAC</text>
<text xml:space="preserve" text-anchor="middle" x="220" y="-62.38" font-family="Times,serif" font-size="10.00">(on&#45;chip)</text>
</g>
<!-- AXI&#45;&gt;MAC -->
<g id="edge2" class="edge">
<title>AXI&#45;&gt;MAC</title>
<path fill="none" stroke="black" d="M145.27,-71.88C153,-71.88 161.71,-71.88 170.36,-71.88"/>
<polygon fill="black" stroke="black" points="170.11,-75.38 180.11,-71.88 170.11,-68.38 170.11,-75.38"/>
</g>
<!-- DMA -->
<g id="node4" class="node">
<title>DMA</title>
<polygon fill="lightyellow" stroke="black" points="370.62,-118.88 299.88,-118.88 299.88,-82.88 370.62,-82.88 370.62,-118.88"/>
<text xml:space="preserve" text-anchor="middle" x="335.25" y="-97" font-family="Times,serif" font-size="10.00">DMA Engine</text>
</g>
<!-- MAC&#45;&gt;DMA -->
<g id="edge5" class="edge">
<title>MAC&#45;&gt;DMA</title>
<path fill="none" stroke="black" d="M269.25,-84.23C275.62,-85.86 282.13,-87.53 288.46,-89.15"/>
<polygon fill="black" stroke="black" points="270.42,-80.92 259.86,-81.83 268.68,-87.7 270.42,-80.92"/>
<polygon fill="black" stroke="black" points="287.55,-92.53 298.11,-91.62 289.29,-85.75 287.55,-92.53"/>
</g>
<!-- PHY -->
<g id="node6" class="node">
<title>PHY</title>
<polygon fill="#fff2cc" stroke="black" points="375.5,-64.75 295,-64.75 295,-23 375.5,-23 375.5,-64.75"/>
<text xml:space="preserve" text-anchor="middle" x="335.25" y="-51.25" font-family="Times,serif" font-size="10.00">PHY Chip</text>
<text xml:space="preserve" text-anchor="middle" x="335.25" y="-40" font-family="Times,serif" font-size="10.00">(off&#45;chip)</text>
<text xml:space="preserve" text-anchor="middle" x="335.25" y="-28.75" font-family="Times,serif" font-size="10.00">RGMII / SGMII</text>
</g>
<!-- MAC&#45;&gt;PHY -->
<g id="edge3" class="edge">
<title>MAC&#45;&gt;PHY</title>
<path fill="none" stroke="black" d="M258.4,-62.63C266.46,-60.64 275.11,-58.5 283.59,-56.4"/>
<polygon fill="black" stroke="black" points="284.22,-59.85 293.09,-54.05 282.54,-53.05 284.22,-59.85"/>
</g>
<!-- DRAM -->
<g id="node5" class="node">
<title>DRAM</title>
<polygon fill="lightyellow" stroke="black" points="569.25,-118.88 494.75,-118.88 494.75,-82.88 569.25,-82.88 569.25,-118.88"/>
<text xml:space="preserve" text-anchor="middle" x="532" y="-102.62" font-family="Times,serif" font-size="10.00">DRAM</text>
<text xml:space="preserve" text-anchor="middle" x="532" y="-91.38" font-family="Times,serif" font-size="10.00">Packet Buffers</text>
</g>
<!-- DMA&#45;&gt;DRAM -->
<g id="edge6" class="edge">
<title>DMA&#45;&gt;DRAM</title>
<path fill="none" stroke="black" d="M382.2,-100.88C412.61,-100.88 452.4,-100.88 483.18,-100.88"/>
<polygon fill="black" stroke="black" points="382.58,-97.38 372.58,-100.88 382.58,-104.38 382.58,-97.38"/>
<polygon fill="black" stroke="black" points="482.99,-104.38 492.99,-100.88 482.99,-97.38 482.99,-104.38"/>
<text xml:space="preserve" text-anchor="middle" x="435.12" y="-120.58" font-family="Times,serif" font-size="14.00">packet DMA</text>
<text xml:space="preserve" text-anchor="middle" x="435.12" y="-104.08" font-family="Times,serif" font-size="14.00">to/from buffers</text>
</g>
<!-- RJ45 -->
<g id="node7" class="node">
<title>RJ45</title>
<polygon fill="lightgrey" stroke="black" points="560.62,-61.88 503.38,-61.88 503.38,-25.88 560.62,-25.88 560.62,-61.88"/>
<text xml:space="preserve" text-anchor="middle" x="532" y="-40" font-family="Times,serif" font-size="10.00">RJ45 Jack</text>
</g>
<!-- PHY&#45;&gt;RJ45 -->
<g id="edge4" class="edge">
<title>PHY&#45;&gt;RJ45</title>
<path fill="none" stroke="black" d="M375.66,-43.88C409.46,-43.88 457.92,-43.88 491.69,-43.88"/>
<polygon fill="black" stroke="black" points="491.47,-47.38 501.47,-43.88 491.47,-40.38 491.47,-47.38"/>
</g>
</g>
</svg>
