<?xml version="1.0" encoding="UTF-8" standalone="no"?>
<!DOCTYPE svg PUBLIC "-//W3C//DTD SVG 1.1//EN"
 "http://www.w3.org/Graphics/SVG/1.1/DTD/svg11.dtd">
<!-- Generated by graphviz version 14.1.4 (20260321.0153)
 -->
<!-- Title: CPU_State Pages: 1 -->
<svg width="1033pt" height="303pt"
 viewBox="0.00 0.00 1033.00 303.00" xmlns="http://www.w3.org/2000/svg" xmlns:xlink="http://www.w3.org/1999/xlink">
<g id="graph0" class="graph" transform="scale(1 1) rotate(0) translate(4 299.19)">
<title>CPU_State</title>
<polygon fill="white" stroke="none" points="-4,4 -4,-299.19 1029.41,-299.19 1029.41,4 -4,4"/>
<!-- RESET -->
<g id="node1" class="node">
<title>RESET</title>
<ellipse fill="none" stroke="black" cx="36.17" cy="-97" rx="32.17" ry="32.17"/>
<ellipse fill="none" stroke="black" cx="36.17" cy="-97" rx="36.17" ry="36.17"/>
<text xml:space="preserve" text-anchor="middle" x="36.17" y="-92.55" font-family="Helvetica,sans-Serif" font-size="11.00">RESET</text>
</g>
<!-- FETCH -->
<g id="node2" class="node">
<title>FETCH</title>
<ellipse fill="none" stroke="black" cx="202.01" cy="-97" rx="32.17" ry="32.17"/>
<text xml:space="preserve" text-anchor="middle" x="202.01" y="-92.55" font-family="Helvetica,sans-Serif" font-size="11.00">FETCH</text>
</g>
<!-- RESET&#45;&gt;FETCH -->
<g id="edge1" class="edge">
<title>RESET&#45;&gt;FETCH</title>
<path fill="none" stroke="black" d="M72.72,-97C97.81,-97 131.55,-97 158.13,-97"/>
<polygon fill="black" stroke="black" points="157.9,-100.5 167.9,-97 157.9,-93.5 157.9,-100.5"/>
<text xml:space="preserve" text-anchor="middle" x="121.09" y="-98.75" font-family="Helvetica,sans-Serif" font-size="10.00">reset released</text>
</g>
<!-- DECODE -->
<g id="node3" class="node">
<title>DECODE</title>
<ellipse fill="none" stroke="black" cx="377.47" cy="-245" rx="38.49" ry="38.49"/>
<text xml:space="preserve" text-anchor="middle" x="377.47" y="-240.55" font-family="Helvetica,sans-Serif" font-size="11.00">DECODE</text>
</g>
<!-- FETCH&#45;&gt;DECODE -->
<g id="edge2" class="edge">
<title>FETCH&#45;&gt;DECODE</title>
<path fill="none" stroke="black" d="M221.39,-123.01C230.06,-134.39 240.96,-147.51 252.19,-158 277.24,-181.42 308.96,-203.52 334.09,-219.59"/>
<polygon fill="black" stroke="black" points="332.11,-222.48 342.43,-224.85 335.84,-216.56 332.11,-222.48"/>
<text xml:space="preserve" text-anchor="middle" x="285.94" y="-210.26" font-family="Helvetica,sans-Serif" font-size="10.00">instruction read</text>
</g>
<!-- HALTED -->
<g id="node7" class="node">
<title>HALTED</title>
<ellipse fill="none" stroke="black" cx="377.47" cy="-149" rx="35.78" ry="35.78"/>
<ellipse fill="none" stroke="black" cx="377.47" cy="-149" rx="39.78" ry="39.78"/>
<text xml:space="preserve" text-anchor="middle" x="377.47" y="-144.55" font-family="Helvetica,sans-Serif" font-size="11.00">HALTED</text>
</g>
<!-- FETCH&#45;&gt;HALTED -->
<g id="edge11" class="edge">
<title>FETCH&#45;&gt;HALTED</title>
<path fill="none" stroke="black" d="M229.22,-114.73C236.41,-118.96 244.39,-123.08 252.19,-126 275.75,-134.81 303.13,-140.34 326.18,-143.77"/>
<polygon fill="black" stroke="black" points="325.57,-147.22 335.96,-145.12 326.53,-140.28 325.57,-147.22"/>
<text xml:space="preserve" text-anchor="middle" x="285.94" y="-144.35" font-family="Helvetica,sans-Serif" font-size="10.00">WFI instruction</text>
</g>
<!-- EXCEPTION -->
<g id="node8" class="node">
<title>EXCEPTION</title>
<ellipse fill="none" stroke="black" cx="813.2" cy="-85" rx="56.92" ry="56.92"/>
<text xml:space="preserve" text-anchor="middle" x="813.2" y="-86.55" font-family="Helvetica,sans-Serif" font-size="11.00">EXCEPTION</text>
<text xml:space="preserve" text-anchor="middle" x="813.2" y="-74.55" font-family="Helvetica,sans-Serif" font-size="11.00">HANDLER</text>
</g>
<!-- FETCH&#45;&gt;EXCEPTION -->
<g id="edge8" class="edge">
<title>FETCH&#45;&gt;EXCEPTION</title>
<path fill="none" stroke="black" d="M234.49,-95.61C240.37,-95.38 246.46,-95.17 252.19,-95 429.96,-89.8 639.56,-86.92 744.77,-85.71"/>
<polygon fill="black" stroke="black" points="744.68,-89.21 754.64,-85.6 744.6,-82.21 744.68,-89.21"/>
<text xml:space="preserve" text-anchor="middle" x="491.12" y="-92.29" font-family="Helvetica,sans-Serif" font-size="10.00">IRQ / fault</text>
</g>
<!-- EXECUTE -->
<g id="node4" class="node">
<title>EXECUTE</title>
<ellipse fill="none" stroke="black" cx="606.64" cy="-194" rx="41.64" ry="41.64"/>
<text xml:space="preserve" text-anchor="middle" x="606.64" y="-189.55" font-family="Helvetica,sans-Serif" font-size="11.00">EXECUTE</text>
</g>
<!-- DECODE&#45;&gt;EXECUTE -->
<g id="edge3" class="edge">
<title>DECODE&#45;&gt;EXECUTE</title>
<path fill="none" stroke="black" d="M415.47,-236.69C453.25,-228.21 512.17,-214.98 554.42,-205.5"/>
<polygon fill="black" stroke="black" points="555.12,-208.93 564.11,-203.32 553.59,-202.1 555.12,-208.93"/>
<text xml:space="preserve" text-anchor="middle" x="491.12" y="-233.07" font-family="Helvetica,sans-Serif" font-size="10.00">decoded</text>
</g>
<!-- MEMACCESS -->
<g id="node5" class="node">
<title>MEMACCESS</title>
<ellipse fill="none" stroke="black" cx="813.2" cy="-251" rx="44.19" ry="44.19"/>
<text xml:space="preserve" text-anchor="middle" x="813.2" y="-252.55" font-family="Helvetica,sans-Serif" font-size="11.00">MEM</text>
<text xml:space="preserve" text-anchor="middle" x="813.2" y="-240.55" font-family="Helvetica,sans-Serif" font-size="11.00">ACCESS</text>
</g>
<!-- EXECUTE&#45;&gt;MEMACCESS -->
<g id="edge4" class="edge">
<title>EXECUTE&#45;&gt;MEMACCESS</title>
<path fill="none" stroke="black" d="M647.08,-204.99C679.03,-213.89 724.34,-226.52 759.42,-236.29"/>
<polygon fill="black" stroke="black" points="758.39,-239.64 768.96,-238.95 760.27,-232.9 758.39,-239.64"/>
<text xml:space="preserve" text-anchor="middle" x="702.28" y="-231.03" font-family="Helvetica,sans-Serif" font-size="10.00">load/store</text>
</g>
<!-- WRITEBACK -->
<g id="node6" class="node">
<title>WRITEBACK</title>
<ellipse fill="none" stroke="black" cx="988.64" cy="-178" rx="36.77" ry="36.77"/>
<text xml:space="preserve" text-anchor="middle" x="988.64" y="-179.55" font-family="Helvetica,sans-Serif" font-size="11.00">WRITE</text>
<text xml:space="preserve" text-anchor="middle" x="988.64" y="-167.55" font-family="Helvetica,sans-Serif" font-size="11.00">BACK</text>
</g>
<!-- EXECUTE&#45;&gt;WRITEBACK -->
<g id="edge5" class="edge">
<title>EXECUTE&#45;&gt;WRITEBACK</title>
<path fill="none" stroke="black" d="M648.64,-191.88C678.49,-190.37 719.89,-188.33 756.28,-186.75 819.96,-183.99 893.51,-181.29 940.28,-179.64"/>
<polygon fill="black" stroke="black" points="940.19,-183.15 950.06,-179.3 939.94,-176.15 940.19,-183.15"/>
<text xml:space="preserve" text-anchor="middle" x="813.2" y="-188.5" font-family="Helvetica,sans-Serif" font-size="10.00">reg&#45;reg op</text>
</g>
<!-- EXECUTE&#45;&gt;EXCEPTION -->
<g id="edge9" class="edge">
<title>EXECUTE&#45;&gt;EXCEPTION</title>
<path fill="none" stroke="black" d="M640.45,-169.38C648.7,-163.63 657.66,-157.73 666.28,-152.75 692.86,-137.39 723.52,-122.74 749.85,-111.01"/>
<polygon fill="black" stroke="black" points="750.96,-114.34 758.7,-107.11 748.14,-107.93 750.96,-114.34"/>
<text xml:space="preserve" text-anchor="middle" x="702.28" y="-154.5" font-family="Helvetica,sans-Serif" font-size="10.00">illegal instr / trap</text>
</g>
<!-- MEMACCESS&#45;&gt;WRITEBACK -->
<g id="edge6" class="edge">
<title>MEMACCESS&#45;&gt;WRITEBACK</title>
<path fill="none" stroke="black" d="M854.43,-234.07C881.2,-222.8 916.36,-208 943.83,-196.44"/>
<polygon fill="black" stroke="black" points="945.08,-199.71 952.94,-192.61 942.36,-193.26 945.08,-199.71"/>
<text xml:space="preserve" text-anchor="middle" x="911" y="-220.62" font-family="Helvetica,sans-Serif" font-size="10.00">data ready</text>
</g>
<!-- WRITEBACK&#45;&gt;FETCH -->
<g id="edge7" class="edge">
<title>WRITEBACK&#45;&gt;FETCH</title>
<path fill="none" stroke="black" d="M973.24,-144.1C948.76,-92.46 893.81,0 814.2,0 376.47,0 376.47,0 376.47,0 320.72,0 266.26,-38.63 233.65,-67.14"/>
<polygon fill="black" stroke="black" points="231.68,-64.21 226.58,-73.49 236.36,-69.41 231.68,-64.21"/>
<text xml:space="preserve" text-anchor="middle" x="606.64" y="-1.75" font-family="Helvetica,sans-Serif" font-size="10.00">PC += 4</text>
</g>
<!-- HALTED&#45;&gt;FETCH -->
<g id="edge12" class="edge">
<title>HALTED&#45;&gt;FETCH</title>
<path fill="none" stroke="black" d="M345.01,-125.53C337.09,-120.6 328.36,-115.93 319.69,-112.75 296.15,-104.13 268.39,-100.15 245.86,-98.35"/>
<polygon fill="black" stroke="black" points="246.32,-94.87 236.11,-97.69 245.85,-101.86 246.32,-94.87"/>
<text xml:space="preserve" text-anchor="middle" x="285.94" y="-114.5" font-family="Helvetica,sans-Serif" font-size="10.00">interrupt arrives</text>
</g>
<!-- EXCEPTION&#45;&gt;FETCH -->
<g id="edge10" class="edge">
<title>EXCEPTION&#45;&gt;FETCH</title>
<path fill="none" stroke="black" d="M756.09,-81.93C702.43,-79.16 619.22,-75.28 547,-73.75 415.82,-70.97 382.41,-73.01 252.19,-89 250,-89.27 247.76,-89.56 245.5,-89.88"/>
<polygon fill="black" stroke="black" points="245.05,-86.4 235.67,-91.33 246.08,-93.33 245.05,-86.4"/>
<text xml:space="preserve" text-anchor="middle" x="491.12" y="-75.5" font-family="Helvetica,sans-Serif" font-size="10.00">MRET / handler complete</text>
</g>
</g>
</svg>
