<svg xmlns="http://www.w3.org/2000/svg" viewBox="0 0 1200 660" width="1200" height="660" font-family="Helvetica, Arial, sans-serif">
<rect x="0" y="0" width="1200" height="660" fill="#F5F2EC"/>
<text x="50" y="46" font-size="26" font-weight="bold" fill="#2D2D2D">The inverter: one pMOS above, one nMOS below</text>
<text x="50" y="74" font-size="17" fill="#4A4A4A">Exactly one of the two conducts, so the output is always driven and no path runs from supply to ground.</text>
<rect x="50" y="105" width="520" height="500" rx="14" fill="none" stroke="#4A4A4A" stroke-width="1.5"/>
<path d="M 320 170 L 400 170" stroke="#2D2D2D" stroke-width="4" fill="none" stroke-linecap="round" stroke-linejoin="round"/>
<text x="360" y="156" font-size="16" fill="#2D2D2D" text-anchor="middle">VDD</text>
<g stroke="#2D2D2D" stroke-width="3" fill="none" stroke-linecap="round">
<path d="M 298 260 L 316 260"/>
<circle cx="323" cy="260" r="7" fill="#F5F2EC"/>
<path d="M 330 236 L 330 284"/>
<path d="M 343 236 L 343 284"/>
<path d="M 343 243 L 360 243 L 360 220"/>
<path d="M 343 277 L 360 277 L 360 300"/>
</g>
<g stroke="#2D2D2D" stroke-width="3" fill="none" stroke-linecap="round">
<path d="M 298 420 L 330 420"/>
<path d="M 330 396 L 330 444"/>
<path d="M 343 396 L 343 444"/>
<path d="M 343 403 L 360 403 L 360 380"/>
<path d="M 343 437 L 360 437 L 360 460"/>
</g>
<path d="M 360 220 L 360 170" stroke="#2D2D2D" stroke-width="3" fill="none" stroke-linecap="round" stroke-linejoin="round"/>
<path d="M 360 300 L 360 380" stroke="#2D2D2D" stroke-width="3" fill="none" stroke-linecap="round" stroke-linejoin="round"/>
<path d="M 360 460 L 360 500" stroke="#2D2D2D" stroke-width="3" fill="none" stroke-linecap="round" stroke-linejoin="round"/>
<path d="M 330 500 L 390 500" stroke="#2D2D2D" stroke-width="4" fill="none" stroke-linecap="round" stroke-linejoin="round"/>
<path d="M 340 512 L 380 512" stroke="#2D2D2D" stroke-width="3" fill="none" stroke-linecap="round" stroke-linejoin="round"/>
<path d="M 350 524 L 370 524" stroke="#2D2D2D" stroke-width="3" fill="none" stroke-linecap="round" stroke-linejoin="round"/>
<circle cx="360" cy="340" r="6" fill="#2D2D2D"/>
<path d="M 360 340 L 480 340" stroke="#2D2D2D" stroke-width="3" fill="none" stroke-linecap="round" stroke-linejoin="round"/>
<text x="490" y="346" font-size="17" fill="#2D2D2D" text-anchor="start">OUT</text>
<path d="M 250 260 L 298 260" stroke="#2D2D2D" stroke-width="3" fill="none" stroke-linecap="round" stroke-linejoin="round"/>
<path d="M 250 420 L 298 420" stroke="#2D2D2D" stroke-width="3" fill="none" stroke-linecap="round" stroke-linejoin="round"/>
<path d="M 250 260 L 250 420" stroke="#2D2D2D" stroke-width="3" fill="none" stroke-linecap="round" stroke-linejoin="round"/>
<path d="M 190 340 L 250 340" stroke="#2D2D2D" stroke-width="3" fill="none" stroke-linecap="round" stroke-linejoin="round"/>
<circle cx="250" cy="340" r="6" fill="#2D2D2D"/>
<text x="180" y="346" font-size="17" fill="#2D2D2D" text-anchor="end">IN</text>
<text x="392" y="266" font-size="16" fill="#E07820" text-anchor="start" font-weight="bold">2W</text>
<text x="392" y="426" font-size="16" fill="#E07820" text-anchor="start" font-weight="bold">W</text>
<text x="80" y="552" font-size="15" fill="#4A4A4A" text-anchor="start">W is the reference nMOS width.</text>
<text x="80" y="578" font-size="15" fill="#E07820" text-anchor="start">The pMOS is drawn about twice as wide, because holes are slower.</text>
<rect x="600" y="105" width="270" height="500" rx="14" fill="none" stroke="#4A4A4A" stroke-width="1.5"/>
<g>
<path d="M 680 180 L 760 180" stroke="#2D2D2D" stroke-width="4" fill="none" stroke-linecap="round" stroke-linejoin="round"/>
<text x="720" y="166" font-size="15" fill="#2D2D2D" text-anchor="middle">VDD</text>
<g stroke="#E07820" stroke-width="3" fill="none" stroke-linecap="round">
<path d="M 658 270 L 676 270"/>
<circle cx="683" cy="270" r="7" fill="#F5F2EC"/>
<path d="M 690 246 L 690 294"/>
<path d="M 703 246 L 703 294"/>
<path d="M 703 253 L 720 253 L 720 230"/>
<path d="M 703 287 L 720 287 L 720 310"/>
</g>
<g stroke="#B5AFA4" stroke-width="3" fill="none" stroke-linecap="round">
<path d="M 658 420 L 690 420"/>
<path d="M 690 396 L 690 444"/>
<path d="M 703 396 L 703 444"/>
<path d="M 703 403 L 720 403 L 720 380"/>
<path d="M 703 437 L 720 437 L 720 460"/>
</g>
<path d="M 720 230 L 720 180" stroke="#E07820" stroke-width="3" fill="none" stroke-linecap="round" stroke-linejoin="round"/>
<path d="M 720 310 L 720 380" stroke="#E07820" stroke-width="3" fill="none" stroke-linecap="round" stroke-linejoin="round"/>
<path d="M 720 460 L 720 500" stroke="#B5AFA4" stroke-width="3" fill="none" stroke-linecap="round" stroke-linejoin="round"/>
<path d="M 690 500 L 750 500" stroke="#2D2D2D" stroke-width="4" fill="none" stroke-linecap="round" stroke-linejoin="round"/>
<path d="M 700 512 L 740 512" stroke="#2D2D2D" stroke-width="3" fill="none" stroke-linecap="round" stroke-linejoin="round"/>
<path d="M 710 524 L 730 524" stroke="#2D2D2D" stroke-width="3" fill="none" stroke-linecap="round" stroke-linejoin="round"/>
<circle cx="720" cy="345" r="6" fill="#2D2D2D"/>
<path d="M 720 345 L 800 345" stroke="#E07820" stroke-width="3" fill="none" stroke-linecap="round" stroke-linejoin="round"/>
<text x="808" y="351" font-size="19" fill="#E07820" text-anchor="start" font-weight="bold">1</text>
<path d="M 630 270 L 658 270" stroke="#2D2D2D" stroke-width="3" fill="none" stroke-linecap="round" stroke-linejoin="round"/>
<path d="M 630 420 L 658 420" stroke="#2D2D2D" stroke-width="3" fill="none" stroke-linecap="round" stroke-linejoin="round"/>
<path d="M 630 270 L 630 420" stroke="#2D2D2D" stroke-width="3" fill="none" stroke-linecap="round" stroke-linejoin="round"/>
<path d="M 630 345 L 630 345" stroke="#2D2D2D" stroke-width="3" fill="none" stroke-linecap="round" stroke-linejoin="round"/>
<text x="620" y="351" font-size="19" fill="#2D2D2D" text-anchor="end" font-weight="bold">0</text>
</g>
<text x="735" y="570" font-size="16" fill="#4A4A4A" text-anchor="middle">pMOS on, nMOS off</text>
<rect x="890" y="105" width="270" height="500" rx="14" fill="none" stroke="#4A4A4A" stroke-width="1.5"/>
<g>
<path d="M 970 180 L 1050 180" stroke="#2D2D2D" stroke-width="4" fill="none" stroke-linecap="round" stroke-linejoin="round"/>
<text x="1010" y="166" font-size="15" fill="#2D2D2D" text-anchor="middle">VDD</text>
<g stroke="#B5AFA4" stroke-width="3" fill="none" stroke-linecap="round">
<path d="M 948 270 L 966 270"/>
<circle cx="973" cy="270" r="7" fill="#F5F2EC"/>
<path d="M 980 246 L 980 294"/>
<path d="M 993 246 L 993 294"/>
<path d="M 993 253 L 1010 253 L 1010 230"/>
<path d="M 993 287 L 1010 287 L 1010 310"/>
</g>
<g stroke="#E07820" stroke-width="3" fill="none" stroke-linecap="round">
<path d="M 948 420 L 980 420"/>
<path d="M 980 396 L 980 444"/>
<path d="M 993 396 L 993 444"/>
<path d="M 993 403 L 1010 403 L 1010 380"/>
<path d="M 993 437 L 1010 437 L 1010 460"/>
</g>
<path d="M 1010 230 L 1010 180" stroke="#B5AFA4" stroke-width="3" fill="none" stroke-linecap="round" stroke-linejoin="round"/>
<path d="M 1010 310 L 1010 380" stroke="#E07820" stroke-width="3" fill="none" stroke-linecap="round" stroke-linejoin="round"/>
<path d="M 1010 460 L 1010 500" stroke="#E07820" stroke-width="3" fill="none" stroke-linecap="round" stroke-linejoin="round"/>
<path d="M 980 500 L 1040 500" stroke="#2D2D2D" stroke-width="4" fill="none" stroke-linecap="round" stroke-linejoin="round"/>
<path d="M 990 512 L 1030 512" stroke="#2D2D2D" stroke-width="3" fill="none" stroke-linecap="round" stroke-linejoin="round"/>
<path d="M 1000 524 L 1020 524" stroke="#2D2D2D" stroke-width="3" fill="none" stroke-linecap="round" stroke-linejoin="round"/>
<circle cx="1010" cy="345" r="6" fill="#2D2D2D"/>
<path d="M 1010 345 L 1090 345" stroke="#E07820" stroke-width="3" fill="none" stroke-linecap="round" stroke-linejoin="round"/>
<text x="1098" y="351" font-size="19" fill="#E07820" text-anchor="start" font-weight="bold">0</text>
<path d="M 920 270 L 948 270" stroke="#2D2D2D" stroke-width="3" fill="none" stroke-linecap="round" stroke-linejoin="round"/>
<path d="M 920 420 L 948 420" stroke="#2D2D2D" stroke-width="3" fill="none" stroke-linecap="round" stroke-linejoin="round"/>
<path d="M 920 270 L 920 420" stroke="#2D2D2D" stroke-width="3" fill="none" stroke-linecap="round" stroke-linejoin="round"/>
<path d="M 920 345 L 920 345" stroke="#2D2D2D" stroke-width="3" fill="none" stroke-linecap="round" stroke-linejoin="round"/>
<text x="910" y="351" font-size="19" fill="#2D2D2D" text-anchor="end" font-weight="bold">1</text>
</g>
<text x="1025" y="570" font-size="16" fill="#4A4A4A" text-anchor="middle">nMOS on, pMOS off</text>
<text x="50" y="640" font-size="17" fill="#7B35C2" text-anchor="start">Grey means off. In each state the output is tied to a rail through a conducting device, and the other device is an open circuit.</text>
</svg>